G04 #@! TF.GenerationSoftware,KiCad,Pcbnew,(5.99.0-10628-ga06f965ffa)*
G04 #@! TF.CreationDate,2021-12-04T20:30:47+01:00*
G04 #@! TF.ProjectId,MAN Adapterplatine,4d414e20-4164-4617-9074-6572706c6174,1.1*
G04 #@! TF.SameCoordinates,Original*
G04 #@! TF.FileFunction,Profile,NP*
%FSLAX46Y46*%
G04 Gerber Fmt 4.6, Leading zero omitted, Abs format (unit mm)*
G04 Created by KiCad (PCBNEW (5.99.0-10628-ga06f965ffa)) date 2021-12-04 20:30:47*
%MOMM*%
%LPD*%
G01*
G04 APERTURE LIST*
G04 #@! TA.AperFunction,Profile*
%ADD10C,0.200000*%
G04 #@! TD*
%ADD11C,0.200000*%
G04 APERTURE END LIST*
D10*
X153543107Y-83979600D02*
X155963752Y-83979600D01*
X121525121Y-65345130D02*
X121525121Y-71256166D01*
X155963752Y-83979600D02*
X155963752Y-65345130D01*
D11*
X121525121Y-71256166D02*
X121490652Y-71640992D01*
X121393242Y-71976880D01*
X121241882Y-72263322D01*
X121045563Y-72499810D01*
X120813278Y-72685835D01*
X120554017Y-72820889D01*
X120276773Y-72904463D01*
X119990537Y-72936049D01*
X119704301Y-72915139D01*
X119427057Y-72841224D01*
X119167796Y-72713796D01*
X118935511Y-72532346D01*
X118739192Y-72296367D01*
X118587832Y-72005349D01*
X118490422Y-71658785D01*
X118455954Y-71256166D01*
D10*
X91396636Y-96887180D02*
X91396636Y-102133576D01*
X91458179Y-71264450D02*
X91458179Y-85822710D01*
X155963752Y-65345130D02*
X121525121Y-65345130D01*
X91458179Y-71264450D02*
X118397694Y-71256166D01*
X95583371Y-87097834D02*
X95583371Y-95604957D01*
X153543107Y-97256423D02*
X153543107Y-86848293D01*
D11*
X153543107Y-86848293D02*
X153174593Y-86816076D01*
X152857930Y-86725028D01*
X152592535Y-86583555D01*
X152377826Y-86400059D01*
X152213222Y-86182946D01*
X152098141Y-85940620D01*
X152032002Y-85681485D01*
X152014221Y-85413946D01*
X152044219Y-85146407D01*
X152121412Y-84887272D01*
X152245220Y-84644946D01*
X152415059Y-84427833D01*
X152630350Y-84244337D01*
X152890509Y-84102864D01*
X153194955Y-84011816D01*
X153543107Y-83979600D01*
X94400000Y-86202791D02*
X94601590Y-86231421D01*
X94806401Y-86270447D01*
X95005154Y-86326564D01*
X95188574Y-86406467D01*
X95382151Y-86549994D01*
X95519155Y-86754222D01*
X95575849Y-86970097D01*
X95583371Y-87097834D01*
D10*
X155836162Y-100131562D02*
X153543107Y-100131562D01*
X91396636Y-96887180D02*
X94333153Y-96508966D01*
X91396636Y-102133576D02*
X155836162Y-102133576D01*
D11*
X153543107Y-100131562D02*
X153193277Y-100099272D01*
X152888480Y-100008020D01*
X152629059Y-99866229D01*
X152415361Y-99682321D01*
X152247730Y-99464720D01*
X152126513Y-99221850D01*
X152052056Y-98962132D01*
X152024703Y-98693992D01*
X152044800Y-98425852D01*
X152112692Y-98166134D01*
X152228726Y-97923264D01*
X152393247Y-97705663D01*
X152606599Y-97521755D01*
X152869130Y-97379964D01*
X153181184Y-97288712D01*
X153543107Y-97256423D01*
D10*
X91458179Y-85822710D02*
X94394695Y-86200925D01*
X155836162Y-102133576D02*
X155836162Y-100131562D01*
D11*
X94400000Y-96500000D02*
X94601590Y-96471370D01*
X94806401Y-96432344D01*
X95005154Y-96376226D01*
X95188574Y-96296324D01*
X95382151Y-96152797D01*
X95519155Y-95948568D01*
X95575849Y-95732693D01*
X95583371Y-95604957D01*
M02*
