G04 #@! TF.GenerationSoftware,KiCad,Pcbnew,(6.0.0-rc1-dev-557-ge985f797c)*
G04 #@! TF.CreationDate,2018-12-31T20:35:23+01:00*
G04 #@! TF.ProjectId,MAN Adapterplatine,4D414E2041646170746572706C617469,1.0*
G04 #@! TF.SameCoordinates,Original*
G04 #@! TF.FileFunction,Soldermask,Bot*
G04 #@! TF.FilePolarity,Negative*
%FSLAX46Y46*%
G04 Gerber Fmt 4.6, Leading zero omitted, Abs format (unit mm)*
G04 Created by KiCad (PCBNEW (6.0.0-rc1-dev-557-ge985f797c)) date 12/31/18 20:35:23*
%MOMM*%
%LPD*%
G01*
G04 APERTURE LIST*
%ADD10C,0.100000*%
G04 APERTURE END LIST*
D10*
G36*
X117839375Y-96048764D02*
X117941542Y-96079756D01*
X117992627Y-96095252D01*
X118068120Y-96135605D01*
X118133863Y-96170745D01*
X118133865Y-96170746D01*
X118133864Y-96170746D01*
X118257659Y-96272341D01*
X118359255Y-96396135D01*
X118434748Y-96537372D01*
X118450244Y-96588457D01*
X118481236Y-96690624D01*
X118493000Y-96810067D01*
X118493000Y-97189932D01*
X118481236Y-97309375D01*
X118450244Y-97411543D01*
X118434748Y-97462628D01*
X118359255Y-97603865D01*
X118257659Y-97727659D01*
X118133865Y-97829255D01*
X117992628Y-97904748D01*
X117941543Y-97920244D01*
X117839376Y-97951236D01*
X117680000Y-97966933D01*
X117520625Y-97951236D01*
X117418458Y-97920244D01*
X117367373Y-97904748D01*
X117226136Y-97829255D01*
X117146933Y-97764255D01*
X117102341Y-97727659D01*
X117000745Y-97603864D01*
X116992110Y-97587709D01*
X116925252Y-97462628D01*
X116909756Y-97411543D01*
X116878764Y-97309376D01*
X116867000Y-97189933D01*
X116867000Y-96810068D01*
X116878764Y-96690625D01*
X116925252Y-96537374D01*
X116925252Y-96537373D01*
X117000746Y-96396136D01*
X117102341Y-96272341D01*
X117226135Y-96170745D01*
X117367372Y-96095252D01*
X117418457Y-96079756D01*
X117520624Y-96048764D01*
X117680000Y-96033067D01*
X117839375Y-96048764D01*
X117839375Y-96048764D01*
G37*
G36*
X115299375Y-96048764D02*
X115401542Y-96079756D01*
X115452627Y-96095252D01*
X115528120Y-96135605D01*
X115593863Y-96170745D01*
X115593865Y-96170746D01*
X115593864Y-96170746D01*
X115717659Y-96272341D01*
X115819255Y-96396135D01*
X115894748Y-96537372D01*
X115910244Y-96588457D01*
X115941236Y-96690624D01*
X115953000Y-96810067D01*
X115953000Y-97189932D01*
X115941236Y-97309375D01*
X115910244Y-97411543D01*
X115894748Y-97462628D01*
X115819255Y-97603865D01*
X115717659Y-97727659D01*
X115593865Y-97829255D01*
X115452628Y-97904748D01*
X115401543Y-97920244D01*
X115299376Y-97951236D01*
X115140000Y-97966933D01*
X114980625Y-97951236D01*
X114878458Y-97920244D01*
X114827373Y-97904748D01*
X114686136Y-97829255D01*
X114606933Y-97764255D01*
X114562341Y-97727659D01*
X114460745Y-97603864D01*
X114452110Y-97587709D01*
X114385252Y-97462628D01*
X114369756Y-97411543D01*
X114338764Y-97309376D01*
X114327000Y-97189933D01*
X114327000Y-96810068D01*
X114338764Y-96690625D01*
X114385252Y-96537374D01*
X114385252Y-96537373D01*
X114460746Y-96396136D01*
X114562341Y-96272341D01*
X114686135Y-96170745D01*
X114827372Y-96095252D01*
X114878457Y-96079756D01*
X114980624Y-96048764D01*
X115140000Y-96033067D01*
X115299375Y-96048764D01*
X115299375Y-96048764D01*
G37*
G36*
X112759375Y-96048764D02*
X112861542Y-96079756D01*
X112912627Y-96095252D01*
X112988120Y-96135605D01*
X113053863Y-96170745D01*
X113053865Y-96170746D01*
X113053864Y-96170746D01*
X113177659Y-96272341D01*
X113279255Y-96396135D01*
X113354748Y-96537372D01*
X113370244Y-96588457D01*
X113401236Y-96690624D01*
X113413000Y-96810067D01*
X113413000Y-97189932D01*
X113401236Y-97309375D01*
X113370244Y-97411543D01*
X113354748Y-97462628D01*
X113279255Y-97603865D01*
X113177659Y-97727659D01*
X113053865Y-97829255D01*
X112912628Y-97904748D01*
X112861543Y-97920244D01*
X112759376Y-97951236D01*
X112600000Y-97966933D01*
X112440625Y-97951236D01*
X112338458Y-97920244D01*
X112287373Y-97904748D01*
X112146136Y-97829255D01*
X112066933Y-97764255D01*
X112022341Y-97727659D01*
X111920745Y-97603864D01*
X111912110Y-97587709D01*
X111845252Y-97462628D01*
X111829756Y-97411543D01*
X111798764Y-97309376D01*
X111787000Y-97189933D01*
X111787000Y-96810068D01*
X111798764Y-96690625D01*
X111845252Y-96537374D01*
X111845252Y-96537373D01*
X111920746Y-96396136D01*
X112022341Y-96272341D01*
X112146135Y-96170745D01*
X112287372Y-96095252D01*
X112338457Y-96079756D01*
X112440624Y-96048764D01*
X112600000Y-96033067D01*
X112759375Y-96048764D01*
X112759375Y-96048764D01*
G37*
G36*
X110219375Y-96048764D02*
X110321542Y-96079756D01*
X110372627Y-96095252D01*
X110448120Y-96135605D01*
X110513863Y-96170745D01*
X110513865Y-96170746D01*
X110513864Y-96170746D01*
X110637659Y-96272341D01*
X110739255Y-96396135D01*
X110814748Y-96537372D01*
X110830244Y-96588457D01*
X110861236Y-96690624D01*
X110873000Y-96810067D01*
X110873000Y-97189932D01*
X110861236Y-97309375D01*
X110830244Y-97411543D01*
X110814748Y-97462628D01*
X110739255Y-97603865D01*
X110637659Y-97727659D01*
X110513865Y-97829255D01*
X110372628Y-97904748D01*
X110321543Y-97920244D01*
X110219376Y-97951236D01*
X110060000Y-97966933D01*
X109900625Y-97951236D01*
X109798458Y-97920244D01*
X109747373Y-97904748D01*
X109606136Y-97829255D01*
X109526933Y-97764255D01*
X109482341Y-97727659D01*
X109380745Y-97603864D01*
X109372110Y-97587709D01*
X109305252Y-97462628D01*
X109289756Y-97411543D01*
X109258764Y-97309376D01*
X109247000Y-97189933D01*
X109247000Y-96810068D01*
X109258764Y-96690625D01*
X109305252Y-96537374D01*
X109305252Y-96537373D01*
X109380746Y-96396136D01*
X109482341Y-96272341D01*
X109606135Y-96170745D01*
X109747372Y-96095252D01*
X109798457Y-96079756D01*
X109900624Y-96048764D01*
X110060000Y-96033067D01*
X110219375Y-96048764D01*
X110219375Y-96048764D01*
G37*
G36*
X107679375Y-96048764D02*
X107781542Y-96079756D01*
X107832627Y-96095252D01*
X107908120Y-96135605D01*
X107973863Y-96170745D01*
X107973865Y-96170746D01*
X107973864Y-96170746D01*
X108097659Y-96272341D01*
X108199255Y-96396135D01*
X108274748Y-96537372D01*
X108290244Y-96588457D01*
X108321236Y-96690624D01*
X108333000Y-96810067D01*
X108333000Y-97189932D01*
X108321236Y-97309375D01*
X108290244Y-97411543D01*
X108274748Y-97462628D01*
X108199255Y-97603865D01*
X108097659Y-97727659D01*
X107973865Y-97829255D01*
X107832628Y-97904748D01*
X107781543Y-97920244D01*
X107679376Y-97951236D01*
X107520000Y-97966933D01*
X107360625Y-97951236D01*
X107258458Y-97920244D01*
X107207373Y-97904748D01*
X107066136Y-97829255D01*
X106986933Y-97764255D01*
X106942341Y-97727659D01*
X106840745Y-97603864D01*
X106832110Y-97587709D01*
X106765252Y-97462628D01*
X106749756Y-97411543D01*
X106718764Y-97309376D01*
X106707000Y-97189933D01*
X106707000Y-96810068D01*
X106718764Y-96690625D01*
X106765252Y-96537374D01*
X106765252Y-96537373D01*
X106840746Y-96396136D01*
X106942341Y-96272341D01*
X107066135Y-96170745D01*
X107207372Y-96095252D01*
X107258457Y-96079756D01*
X107360624Y-96048764D01*
X107520000Y-96033067D01*
X107679375Y-96048764D01*
X107679375Y-96048764D01*
G37*
G36*
X105139375Y-96048764D02*
X105241542Y-96079756D01*
X105292627Y-96095252D01*
X105368120Y-96135605D01*
X105433863Y-96170745D01*
X105433865Y-96170746D01*
X105433864Y-96170746D01*
X105557659Y-96272341D01*
X105659255Y-96396135D01*
X105734748Y-96537372D01*
X105750244Y-96588457D01*
X105781236Y-96690624D01*
X105793000Y-96810067D01*
X105793000Y-97189932D01*
X105781236Y-97309375D01*
X105750244Y-97411543D01*
X105734748Y-97462628D01*
X105659255Y-97603865D01*
X105557659Y-97727659D01*
X105433865Y-97829255D01*
X105292628Y-97904748D01*
X105241543Y-97920244D01*
X105139376Y-97951236D01*
X104980000Y-97966933D01*
X104820625Y-97951236D01*
X104718458Y-97920244D01*
X104667373Y-97904748D01*
X104526136Y-97829255D01*
X104446933Y-97764255D01*
X104402341Y-97727659D01*
X104300745Y-97603864D01*
X104292110Y-97587709D01*
X104225252Y-97462628D01*
X104209756Y-97411543D01*
X104178764Y-97309376D01*
X104167000Y-97189933D01*
X104167000Y-96810068D01*
X104178764Y-96690625D01*
X104225252Y-96537374D01*
X104225252Y-96537373D01*
X104300746Y-96396136D01*
X104402341Y-96272341D01*
X104526135Y-96170745D01*
X104667372Y-96095252D01*
X104718457Y-96079756D01*
X104820624Y-96048764D01*
X104980000Y-96033067D01*
X105139375Y-96048764D01*
X105139375Y-96048764D01*
G37*
G36*
X102599375Y-96048764D02*
X102701542Y-96079756D01*
X102752627Y-96095252D01*
X102828120Y-96135605D01*
X102893863Y-96170745D01*
X102893865Y-96170746D01*
X102893864Y-96170746D01*
X103017659Y-96272341D01*
X103119255Y-96396135D01*
X103194748Y-96537372D01*
X103210244Y-96588457D01*
X103241236Y-96690624D01*
X103253000Y-96810067D01*
X103253000Y-97189932D01*
X103241236Y-97309375D01*
X103210244Y-97411543D01*
X103194748Y-97462628D01*
X103119255Y-97603865D01*
X103017659Y-97727659D01*
X102893865Y-97829255D01*
X102752628Y-97904748D01*
X102701543Y-97920244D01*
X102599376Y-97951236D01*
X102440000Y-97966933D01*
X102280625Y-97951236D01*
X102178458Y-97920244D01*
X102127373Y-97904748D01*
X101986136Y-97829255D01*
X101906933Y-97764255D01*
X101862341Y-97727659D01*
X101760745Y-97603864D01*
X101752110Y-97587709D01*
X101685252Y-97462628D01*
X101669756Y-97411543D01*
X101638764Y-97309376D01*
X101627000Y-97189933D01*
X101627000Y-96810068D01*
X101638764Y-96690625D01*
X101685252Y-96537374D01*
X101685252Y-96537373D01*
X101760746Y-96396136D01*
X101862341Y-96272341D01*
X101986135Y-96170745D01*
X102127372Y-96095252D01*
X102178457Y-96079756D01*
X102280624Y-96048764D01*
X102440000Y-96033067D01*
X102599375Y-96048764D01*
X102599375Y-96048764D01*
G37*
G36*
X100713000Y-97963000D02*
X99087000Y-97963000D01*
X99087000Y-96037000D01*
X100713000Y-96037000D01*
X100713000Y-97963000D01*
X100713000Y-97963000D01*
G37*
G36*
X130075256Y-92791298D02*
X130181579Y-92812447D01*
X130482042Y-92936903D01*
X130748852Y-93115180D01*
X130752454Y-93117587D01*
X130982413Y-93347546D01*
X131163098Y-93617960D01*
X131287553Y-93918422D01*
X131351000Y-94237389D01*
X131351000Y-94562611D01*
X131287553Y-94881578D01*
X131163098Y-95182040D01*
X130982413Y-95452454D01*
X130752454Y-95682413D01*
X130752451Y-95682415D01*
X130482042Y-95863097D01*
X130181579Y-95987553D01*
X130075256Y-96008702D01*
X129862611Y-96051000D01*
X129537389Y-96051000D01*
X129324744Y-96008702D01*
X129218421Y-95987553D01*
X128917958Y-95863097D01*
X128647549Y-95682415D01*
X128647546Y-95682413D01*
X128417587Y-95452454D01*
X128236902Y-95182040D01*
X128112447Y-94881578D01*
X128049000Y-94562611D01*
X128049000Y-94237389D01*
X128112447Y-93918422D01*
X128236902Y-93617960D01*
X128417587Y-93347546D01*
X128647546Y-93117587D01*
X128651148Y-93115180D01*
X128917958Y-92936903D01*
X129218421Y-92812447D01*
X129324744Y-92791298D01*
X129537389Y-92749000D01*
X129862611Y-92749000D01*
X130075256Y-92791298D01*
X130075256Y-92791298D01*
G37*
G36*
X107679375Y-88428764D02*
X107781542Y-88459756D01*
X107832627Y-88475252D01*
X107908120Y-88515605D01*
X107973863Y-88550745D01*
X107973865Y-88550746D01*
X107973864Y-88550746D01*
X108097659Y-88652341D01*
X108199255Y-88776135D01*
X108274748Y-88917372D01*
X108290244Y-88968457D01*
X108321236Y-89070624D01*
X108333000Y-89190067D01*
X108333000Y-89569932D01*
X108321236Y-89689375D01*
X108290244Y-89791543D01*
X108274748Y-89842628D01*
X108199255Y-89983865D01*
X108097659Y-90107659D01*
X107973865Y-90209255D01*
X107832628Y-90284748D01*
X107781543Y-90300244D01*
X107679376Y-90331236D01*
X107520000Y-90346933D01*
X107360625Y-90331236D01*
X107258458Y-90300244D01*
X107207373Y-90284748D01*
X107066136Y-90209255D01*
X106986933Y-90144255D01*
X106942341Y-90107659D01*
X106840745Y-89983864D01*
X106832110Y-89967709D01*
X106765252Y-89842628D01*
X106749756Y-89791543D01*
X106718764Y-89689376D01*
X106707000Y-89569933D01*
X106707000Y-89190068D01*
X106718764Y-89070625D01*
X106765252Y-88917374D01*
X106765252Y-88917373D01*
X106840746Y-88776136D01*
X106942341Y-88652341D01*
X107066135Y-88550745D01*
X107207372Y-88475252D01*
X107258457Y-88459756D01*
X107360624Y-88428764D01*
X107520000Y-88413067D01*
X107679375Y-88428764D01*
X107679375Y-88428764D01*
G37*
G36*
X100059375Y-88428764D02*
X100161542Y-88459756D01*
X100212627Y-88475252D01*
X100288120Y-88515605D01*
X100353863Y-88550745D01*
X100353865Y-88550746D01*
X100353864Y-88550746D01*
X100477659Y-88652341D01*
X100579255Y-88776135D01*
X100654748Y-88917372D01*
X100670244Y-88968457D01*
X100701236Y-89070624D01*
X100713000Y-89190067D01*
X100713000Y-89569932D01*
X100701236Y-89689375D01*
X100670244Y-89791543D01*
X100654748Y-89842628D01*
X100579255Y-89983865D01*
X100477659Y-90107659D01*
X100353865Y-90209255D01*
X100212628Y-90284748D01*
X100161543Y-90300244D01*
X100059376Y-90331236D01*
X99900000Y-90346933D01*
X99740625Y-90331236D01*
X99638458Y-90300244D01*
X99587373Y-90284748D01*
X99446136Y-90209255D01*
X99366933Y-90144255D01*
X99322341Y-90107659D01*
X99220745Y-89983864D01*
X99212110Y-89967709D01*
X99145252Y-89842628D01*
X99129756Y-89791543D01*
X99098764Y-89689376D01*
X99087000Y-89569933D01*
X99087000Y-89190068D01*
X99098764Y-89070625D01*
X99145252Y-88917374D01*
X99145252Y-88917373D01*
X99220746Y-88776136D01*
X99322341Y-88652341D01*
X99446135Y-88550745D01*
X99587372Y-88475252D01*
X99638457Y-88459756D01*
X99740624Y-88428764D01*
X99900000Y-88413067D01*
X100059375Y-88428764D01*
X100059375Y-88428764D01*
G37*
G36*
X102599375Y-88428764D02*
X102701542Y-88459756D01*
X102752627Y-88475252D01*
X102828120Y-88515605D01*
X102893863Y-88550745D01*
X102893865Y-88550746D01*
X102893864Y-88550746D01*
X103017659Y-88652341D01*
X103119255Y-88776135D01*
X103194748Y-88917372D01*
X103210244Y-88968457D01*
X103241236Y-89070624D01*
X103253000Y-89190067D01*
X103253000Y-89569932D01*
X103241236Y-89689375D01*
X103210244Y-89791543D01*
X103194748Y-89842628D01*
X103119255Y-89983865D01*
X103017659Y-90107659D01*
X102893865Y-90209255D01*
X102752628Y-90284748D01*
X102701543Y-90300244D01*
X102599376Y-90331236D01*
X102440000Y-90346933D01*
X102280625Y-90331236D01*
X102178458Y-90300244D01*
X102127373Y-90284748D01*
X101986136Y-90209255D01*
X101906933Y-90144255D01*
X101862341Y-90107659D01*
X101760745Y-89983864D01*
X101752110Y-89967709D01*
X101685252Y-89842628D01*
X101669756Y-89791543D01*
X101638764Y-89689376D01*
X101627000Y-89569933D01*
X101627000Y-89190068D01*
X101638764Y-89070625D01*
X101685252Y-88917374D01*
X101685252Y-88917373D01*
X101760746Y-88776136D01*
X101862341Y-88652341D01*
X101986135Y-88550745D01*
X102127372Y-88475252D01*
X102178457Y-88459756D01*
X102280624Y-88428764D01*
X102440000Y-88413067D01*
X102599375Y-88428764D01*
X102599375Y-88428764D01*
G37*
G36*
X105139375Y-88428764D02*
X105241542Y-88459756D01*
X105292627Y-88475252D01*
X105368120Y-88515605D01*
X105433863Y-88550745D01*
X105433865Y-88550746D01*
X105433864Y-88550746D01*
X105557659Y-88652341D01*
X105659255Y-88776135D01*
X105734748Y-88917372D01*
X105750244Y-88968457D01*
X105781236Y-89070624D01*
X105793000Y-89190067D01*
X105793000Y-89569932D01*
X105781236Y-89689375D01*
X105750244Y-89791543D01*
X105734748Y-89842628D01*
X105659255Y-89983865D01*
X105557659Y-90107659D01*
X105433865Y-90209255D01*
X105292628Y-90284748D01*
X105241543Y-90300244D01*
X105139376Y-90331236D01*
X104980000Y-90346933D01*
X104820625Y-90331236D01*
X104718458Y-90300244D01*
X104667373Y-90284748D01*
X104526136Y-90209255D01*
X104446933Y-90144255D01*
X104402341Y-90107659D01*
X104300745Y-89983864D01*
X104292110Y-89967709D01*
X104225252Y-89842628D01*
X104209756Y-89791543D01*
X104178764Y-89689376D01*
X104167000Y-89569933D01*
X104167000Y-89190068D01*
X104178764Y-89070625D01*
X104225252Y-88917374D01*
X104225252Y-88917373D01*
X104300746Y-88776136D01*
X104402341Y-88652341D01*
X104526135Y-88550745D01*
X104667372Y-88475252D01*
X104718457Y-88459756D01*
X104820624Y-88428764D01*
X104980000Y-88413067D01*
X105139375Y-88428764D01*
X105139375Y-88428764D01*
G37*
G36*
X112759375Y-88428764D02*
X112861542Y-88459756D01*
X112912627Y-88475252D01*
X112988120Y-88515605D01*
X113053863Y-88550745D01*
X113053865Y-88550746D01*
X113053864Y-88550746D01*
X113177659Y-88652341D01*
X113279255Y-88776135D01*
X113354748Y-88917372D01*
X113370244Y-88968457D01*
X113401236Y-89070624D01*
X113413000Y-89190067D01*
X113413000Y-89569932D01*
X113401236Y-89689375D01*
X113370244Y-89791543D01*
X113354748Y-89842628D01*
X113279255Y-89983865D01*
X113177659Y-90107659D01*
X113053865Y-90209255D01*
X112912628Y-90284748D01*
X112861543Y-90300244D01*
X112759376Y-90331236D01*
X112600000Y-90346933D01*
X112440625Y-90331236D01*
X112338458Y-90300244D01*
X112287373Y-90284748D01*
X112146136Y-90209255D01*
X112066933Y-90144255D01*
X112022341Y-90107659D01*
X111920745Y-89983864D01*
X111912110Y-89967709D01*
X111845252Y-89842628D01*
X111829756Y-89791543D01*
X111798764Y-89689376D01*
X111787000Y-89569933D01*
X111787000Y-89190068D01*
X111798764Y-89070625D01*
X111845252Y-88917374D01*
X111845252Y-88917373D01*
X111920746Y-88776136D01*
X112022341Y-88652341D01*
X112146135Y-88550745D01*
X112287372Y-88475252D01*
X112338457Y-88459756D01*
X112440624Y-88428764D01*
X112600000Y-88413067D01*
X112759375Y-88428764D01*
X112759375Y-88428764D01*
G37*
G36*
X115299375Y-88428764D02*
X115401542Y-88459756D01*
X115452627Y-88475252D01*
X115528120Y-88515605D01*
X115593863Y-88550745D01*
X115593865Y-88550746D01*
X115593864Y-88550746D01*
X115717659Y-88652341D01*
X115819255Y-88776135D01*
X115894748Y-88917372D01*
X115910244Y-88968457D01*
X115941236Y-89070624D01*
X115953000Y-89190067D01*
X115953000Y-89569932D01*
X115941236Y-89689375D01*
X115910244Y-89791543D01*
X115894748Y-89842628D01*
X115819255Y-89983865D01*
X115717659Y-90107659D01*
X115593865Y-90209255D01*
X115452628Y-90284748D01*
X115401543Y-90300244D01*
X115299376Y-90331236D01*
X115140000Y-90346933D01*
X114980625Y-90331236D01*
X114878458Y-90300244D01*
X114827373Y-90284748D01*
X114686136Y-90209255D01*
X114606933Y-90144255D01*
X114562341Y-90107659D01*
X114460745Y-89983864D01*
X114452110Y-89967709D01*
X114385252Y-89842628D01*
X114369756Y-89791543D01*
X114338764Y-89689376D01*
X114327000Y-89569933D01*
X114327000Y-89190068D01*
X114338764Y-89070625D01*
X114385252Y-88917374D01*
X114385252Y-88917373D01*
X114460746Y-88776136D01*
X114562341Y-88652341D01*
X114686135Y-88550745D01*
X114827372Y-88475252D01*
X114878457Y-88459756D01*
X114980624Y-88428764D01*
X115140000Y-88413067D01*
X115299375Y-88428764D01*
X115299375Y-88428764D01*
G37*
G36*
X117839375Y-88428764D02*
X117941542Y-88459756D01*
X117992627Y-88475252D01*
X118068120Y-88515605D01*
X118133863Y-88550745D01*
X118133865Y-88550746D01*
X118133864Y-88550746D01*
X118257659Y-88652341D01*
X118359255Y-88776135D01*
X118434748Y-88917372D01*
X118450244Y-88968457D01*
X118481236Y-89070624D01*
X118493000Y-89190067D01*
X118493000Y-89569932D01*
X118481236Y-89689375D01*
X118450244Y-89791543D01*
X118434748Y-89842628D01*
X118359255Y-89983865D01*
X118257659Y-90107659D01*
X118133865Y-90209255D01*
X117992628Y-90284748D01*
X117941543Y-90300244D01*
X117839376Y-90331236D01*
X117680000Y-90346933D01*
X117520625Y-90331236D01*
X117418458Y-90300244D01*
X117367373Y-90284748D01*
X117226136Y-90209255D01*
X117146933Y-90144255D01*
X117102341Y-90107659D01*
X117000745Y-89983864D01*
X116992110Y-89967709D01*
X116925252Y-89842628D01*
X116909756Y-89791543D01*
X116878764Y-89689376D01*
X116867000Y-89569933D01*
X116867000Y-89190068D01*
X116878764Y-89070625D01*
X116925252Y-88917374D01*
X116925252Y-88917373D01*
X117000746Y-88776136D01*
X117102341Y-88652341D01*
X117226135Y-88550745D01*
X117367372Y-88475252D01*
X117418457Y-88459756D01*
X117520624Y-88428764D01*
X117680000Y-88413067D01*
X117839375Y-88428764D01*
X117839375Y-88428764D01*
G37*
G36*
X110219375Y-88428764D02*
X110321542Y-88459756D01*
X110372627Y-88475252D01*
X110448120Y-88515605D01*
X110513863Y-88550745D01*
X110513865Y-88550746D01*
X110513864Y-88550746D01*
X110637659Y-88652341D01*
X110739255Y-88776135D01*
X110814748Y-88917372D01*
X110830244Y-88968457D01*
X110861236Y-89070624D01*
X110873000Y-89190067D01*
X110873000Y-89569932D01*
X110861236Y-89689375D01*
X110830244Y-89791543D01*
X110814748Y-89842628D01*
X110739255Y-89983865D01*
X110637659Y-90107659D01*
X110513865Y-90209255D01*
X110372628Y-90284748D01*
X110321543Y-90300244D01*
X110219376Y-90331236D01*
X110060000Y-90346933D01*
X109900625Y-90331236D01*
X109798458Y-90300244D01*
X109747373Y-90284748D01*
X109606136Y-90209255D01*
X109526933Y-90144255D01*
X109482341Y-90107659D01*
X109380745Y-89983864D01*
X109372110Y-89967709D01*
X109305252Y-89842628D01*
X109289756Y-89791543D01*
X109258764Y-89689376D01*
X109247000Y-89569933D01*
X109247000Y-89190068D01*
X109258764Y-89070625D01*
X109305252Y-88917374D01*
X109305252Y-88917373D01*
X109380746Y-88776136D01*
X109482341Y-88652341D01*
X109606135Y-88550745D01*
X109747372Y-88475252D01*
X109798457Y-88459756D01*
X109900624Y-88428764D01*
X110060000Y-88413067D01*
X110219375Y-88428764D01*
X110219375Y-88428764D01*
G37*
G36*
X151175256Y-78091298D02*
X151281579Y-78112447D01*
X151582042Y-78236903D01*
X151813702Y-78391694D01*
X151852454Y-78417587D01*
X152082413Y-78647546D01*
X152263098Y-78917960D01*
X152387553Y-79218422D01*
X152451000Y-79537389D01*
X152451000Y-79862611D01*
X152387553Y-80181578D01*
X152263098Y-80482040D01*
X152082413Y-80752454D01*
X151852454Y-80982413D01*
X151852451Y-80982415D01*
X151582042Y-81163097D01*
X151281579Y-81287553D01*
X151175256Y-81308702D01*
X150962611Y-81351000D01*
X150637389Y-81351000D01*
X150424744Y-81308702D01*
X150318421Y-81287553D01*
X150017958Y-81163097D01*
X149747549Y-80982415D01*
X149747546Y-80982413D01*
X149517587Y-80752454D01*
X149336902Y-80482040D01*
X149212447Y-80181578D01*
X149149000Y-79862611D01*
X149149000Y-79537389D01*
X149212447Y-79218422D01*
X149336902Y-78917960D01*
X149517587Y-78647546D01*
X149747546Y-78417587D01*
X149786298Y-78391694D01*
X150017958Y-78236903D01*
X150318421Y-78112447D01*
X150424744Y-78091298D01*
X150637389Y-78049000D01*
X150962611Y-78049000D01*
X151175256Y-78091298D01*
X151175256Y-78091298D01*
G37*
G36*
X107039294Y-77138633D02*
X107211694Y-77190931D01*
X107211696Y-77190932D01*
X107370583Y-77275859D01*
X107370585Y-77275860D01*
X107370584Y-77275860D01*
X107509849Y-77390151D01*
X107624140Y-77529416D01*
X107709069Y-77688306D01*
X107761367Y-77860706D01*
X107779025Y-78040000D01*
X107761367Y-78219294D01*
X107709069Y-78391694D01*
X107709068Y-78391696D01*
X107624141Y-78550583D01*
X107509849Y-78689849D01*
X107370583Y-78804141D01*
X107211696Y-78889068D01*
X107211694Y-78889069D01*
X107039294Y-78941367D01*
X106904931Y-78954600D01*
X106815069Y-78954600D01*
X106680706Y-78941367D01*
X106508306Y-78889069D01*
X106508304Y-78889068D01*
X106349417Y-78804141D01*
X106210151Y-78689849D01*
X106095859Y-78550583D01*
X106010932Y-78391696D01*
X106010931Y-78391694D01*
X105958633Y-78219294D01*
X105940975Y-78040000D01*
X105958633Y-77860706D01*
X106010931Y-77688306D01*
X106095860Y-77529416D01*
X106210151Y-77390151D01*
X106349416Y-77275860D01*
X106349415Y-77275860D01*
X106349417Y-77275859D01*
X106508304Y-77190932D01*
X106508306Y-77190931D01*
X106680706Y-77138633D01*
X106815069Y-77125400D01*
X106904931Y-77125400D01*
X107039294Y-77138633D01*
X107039294Y-77138633D01*
G37*
G36*
X104499294Y-77138633D02*
X104671694Y-77190931D01*
X104671696Y-77190932D01*
X104830583Y-77275859D01*
X104830585Y-77275860D01*
X104830584Y-77275860D01*
X104969849Y-77390151D01*
X105084140Y-77529416D01*
X105169069Y-77688306D01*
X105221367Y-77860706D01*
X105239025Y-78040000D01*
X105221367Y-78219294D01*
X105169069Y-78391694D01*
X105169068Y-78391696D01*
X105084141Y-78550583D01*
X104969849Y-78689849D01*
X104830583Y-78804141D01*
X104671696Y-78889068D01*
X104671694Y-78889069D01*
X104499294Y-78941367D01*
X104364931Y-78954600D01*
X104275069Y-78954600D01*
X104140706Y-78941367D01*
X103968306Y-78889069D01*
X103968304Y-78889068D01*
X103809417Y-78804141D01*
X103670151Y-78689849D01*
X103555859Y-78550583D01*
X103470932Y-78391696D01*
X103470931Y-78391694D01*
X103418633Y-78219294D01*
X103400975Y-78040000D01*
X103418633Y-77860706D01*
X103470931Y-77688306D01*
X103555860Y-77529416D01*
X103670151Y-77390151D01*
X103809416Y-77275860D01*
X103809415Y-77275860D01*
X103809417Y-77275859D01*
X103968304Y-77190932D01*
X103968306Y-77190931D01*
X104140706Y-77138633D01*
X104275069Y-77125400D01*
X104364931Y-77125400D01*
X104499294Y-77138633D01*
X104499294Y-77138633D01*
G37*
G36*
X101959294Y-77138633D02*
X102131694Y-77190931D01*
X102131696Y-77190932D01*
X102290583Y-77275859D01*
X102290585Y-77275860D01*
X102290584Y-77275860D01*
X102429849Y-77390151D01*
X102544140Y-77529416D01*
X102629069Y-77688306D01*
X102681367Y-77860706D01*
X102699025Y-78040000D01*
X102681367Y-78219294D01*
X102629069Y-78391694D01*
X102629068Y-78391696D01*
X102544141Y-78550583D01*
X102429849Y-78689849D01*
X102290583Y-78804141D01*
X102131696Y-78889068D01*
X102131694Y-78889069D01*
X101959294Y-78941367D01*
X101824931Y-78954600D01*
X101735069Y-78954600D01*
X101600706Y-78941367D01*
X101428306Y-78889069D01*
X101428304Y-78889068D01*
X101269417Y-78804141D01*
X101130151Y-78689849D01*
X101015859Y-78550583D01*
X100930932Y-78391696D01*
X100930931Y-78391694D01*
X100878633Y-78219294D01*
X100860975Y-78040000D01*
X100878633Y-77860706D01*
X100930931Y-77688306D01*
X101015860Y-77529416D01*
X101130151Y-77390151D01*
X101269416Y-77275860D01*
X101269415Y-77275860D01*
X101269417Y-77275859D01*
X101428304Y-77190932D01*
X101428306Y-77190931D01*
X101600706Y-77138633D01*
X101735069Y-77125400D01*
X101824931Y-77125400D01*
X101959294Y-77138633D01*
X101959294Y-77138633D01*
G37*
G36*
X99419294Y-77138633D02*
X99591694Y-77190931D01*
X99591696Y-77190932D01*
X99750583Y-77275859D01*
X99750585Y-77275860D01*
X99750584Y-77275860D01*
X99889849Y-77390151D01*
X100004140Y-77529416D01*
X100089069Y-77688306D01*
X100141367Y-77860706D01*
X100159025Y-78040000D01*
X100141367Y-78219294D01*
X100089069Y-78391694D01*
X100089068Y-78391696D01*
X100004141Y-78550583D01*
X99889849Y-78689849D01*
X99750583Y-78804141D01*
X99591696Y-78889068D01*
X99591694Y-78889069D01*
X99419294Y-78941367D01*
X99284931Y-78954600D01*
X99195069Y-78954600D01*
X99060706Y-78941367D01*
X98888306Y-78889069D01*
X98888304Y-78889068D01*
X98729417Y-78804141D01*
X98590151Y-78689849D01*
X98475859Y-78550583D01*
X98390932Y-78391696D01*
X98390931Y-78391694D01*
X98338633Y-78219294D01*
X98320975Y-78040000D01*
X98338633Y-77860706D01*
X98390931Y-77688306D01*
X98475860Y-77529416D01*
X98590151Y-77390151D01*
X98729416Y-77275860D01*
X98729415Y-77275860D01*
X98729417Y-77275859D01*
X98888304Y-77190932D01*
X98888306Y-77190931D01*
X99060706Y-77138633D01*
X99195069Y-77125400D01*
X99284931Y-77125400D01*
X99419294Y-77138633D01*
X99419294Y-77138633D01*
G37*
G36*
X96879294Y-77138633D02*
X97051694Y-77190931D01*
X97051696Y-77190932D01*
X97210583Y-77275859D01*
X97210585Y-77275860D01*
X97210584Y-77275860D01*
X97349849Y-77390151D01*
X97464140Y-77529416D01*
X97549069Y-77688306D01*
X97601367Y-77860706D01*
X97619025Y-78040000D01*
X97601367Y-78219294D01*
X97549069Y-78391694D01*
X97549068Y-78391696D01*
X97464141Y-78550583D01*
X97349849Y-78689849D01*
X97210583Y-78804141D01*
X97051696Y-78889068D01*
X97051694Y-78889069D01*
X96879294Y-78941367D01*
X96744931Y-78954600D01*
X96655069Y-78954600D01*
X96520706Y-78941367D01*
X96348306Y-78889069D01*
X96348304Y-78889068D01*
X96189417Y-78804141D01*
X96050151Y-78689849D01*
X95935859Y-78550583D01*
X95850932Y-78391696D01*
X95850931Y-78391694D01*
X95798633Y-78219294D01*
X95780975Y-78040000D01*
X95798633Y-77860706D01*
X95850931Y-77688306D01*
X95935860Y-77529416D01*
X96050151Y-77390151D01*
X96189416Y-77275860D01*
X96189415Y-77275860D01*
X96189417Y-77275859D01*
X96348304Y-77190932D01*
X96348306Y-77190931D01*
X96520706Y-77138633D01*
X96655069Y-77125400D01*
X96744931Y-77125400D01*
X96879294Y-77138633D01*
X96879294Y-77138633D01*
G37*
G36*
X107774600Y-76414600D02*
X105945400Y-76414600D01*
X105945400Y-74585400D01*
X107774600Y-74585400D01*
X107774600Y-76414600D01*
X107774600Y-76414600D01*
G37*
G36*
X96879294Y-74598633D02*
X97051694Y-74650931D01*
X97051696Y-74650932D01*
X97210583Y-74735859D01*
X97210585Y-74735860D01*
X97210584Y-74735860D01*
X97349849Y-74850151D01*
X97464140Y-74989416D01*
X97549069Y-75148306D01*
X97601367Y-75320706D01*
X97619025Y-75500000D01*
X97601367Y-75679294D01*
X97549069Y-75851694D01*
X97549068Y-75851696D01*
X97464141Y-76010583D01*
X97349849Y-76149849D01*
X97210583Y-76264141D01*
X97051696Y-76349068D01*
X97051694Y-76349069D01*
X96879294Y-76401367D01*
X96744931Y-76414600D01*
X96655069Y-76414600D01*
X96520706Y-76401367D01*
X96348306Y-76349069D01*
X96348304Y-76349068D01*
X96189417Y-76264141D01*
X96050151Y-76149849D01*
X95935859Y-76010583D01*
X95850932Y-75851696D01*
X95850931Y-75851694D01*
X95798633Y-75679294D01*
X95780975Y-75500000D01*
X95798633Y-75320706D01*
X95850931Y-75148306D01*
X95935860Y-74989416D01*
X96050151Y-74850151D01*
X96189416Y-74735860D01*
X96189415Y-74735860D01*
X96189417Y-74735859D01*
X96348304Y-74650932D01*
X96348306Y-74650931D01*
X96520706Y-74598633D01*
X96655069Y-74585400D01*
X96744931Y-74585400D01*
X96879294Y-74598633D01*
X96879294Y-74598633D01*
G37*
G36*
X99419294Y-74598633D02*
X99591694Y-74650931D01*
X99591696Y-74650932D01*
X99750583Y-74735859D01*
X99750585Y-74735860D01*
X99750584Y-74735860D01*
X99889849Y-74850151D01*
X100004140Y-74989416D01*
X100089069Y-75148306D01*
X100141367Y-75320706D01*
X100159025Y-75500000D01*
X100141367Y-75679294D01*
X100089069Y-75851694D01*
X100089068Y-75851696D01*
X100004141Y-76010583D01*
X99889849Y-76149849D01*
X99750583Y-76264141D01*
X99591696Y-76349068D01*
X99591694Y-76349069D01*
X99419294Y-76401367D01*
X99284931Y-76414600D01*
X99195069Y-76414600D01*
X99060706Y-76401367D01*
X98888306Y-76349069D01*
X98888304Y-76349068D01*
X98729417Y-76264141D01*
X98590151Y-76149849D01*
X98475859Y-76010583D01*
X98390932Y-75851696D01*
X98390931Y-75851694D01*
X98338633Y-75679294D01*
X98320975Y-75500000D01*
X98338633Y-75320706D01*
X98390931Y-75148306D01*
X98475860Y-74989416D01*
X98590151Y-74850151D01*
X98729416Y-74735860D01*
X98729415Y-74735860D01*
X98729417Y-74735859D01*
X98888304Y-74650932D01*
X98888306Y-74650931D01*
X99060706Y-74598633D01*
X99195069Y-74585400D01*
X99284931Y-74585400D01*
X99419294Y-74598633D01*
X99419294Y-74598633D01*
G37*
G36*
X101959294Y-74598633D02*
X102131694Y-74650931D01*
X102131696Y-74650932D01*
X102290583Y-74735859D01*
X102290585Y-74735860D01*
X102290584Y-74735860D01*
X102429849Y-74850151D01*
X102544140Y-74989416D01*
X102629069Y-75148306D01*
X102681367Y-75320706D01*
X102699025Y-75500000D01*
X102681367Y-75679294D01*
X102629069Y-75851694D01*
X102629068Y-75851696D01*
X102544141Y-76010583D01*
X102429849Y-76149849D01*
X102290583Y-76264141D01*
X102131696Y-76349068D01*
X102131694Y-76349069D01*
X101959294Y-76401367D01*
X101824931Y-76414600D01*
X101735069Y-76414600D01*
X101600706Y-76401367D01*
X101428306Y-76349069D01*
X101428304Y-76349068D01*
X101269417Y-76264141D01*
X101130151Y-76149849D01*
X101015859Y-76010583D01*
X100930932Y-75851696D01*
X100930931Y-75851694D01*
X100878633Y-75679294D01*
X100860975Y-75500000D01*
X100878633Y-75320706D01*
X100930931Y-75148306D01*
X101015860Y-74989416D01*
X101130151Y-74850151D01*
X101269416Y-74735860D01*
X101269415Y-74735860D01*
X101269417Y-74735859D01*
X101428304Y-74650932D01*
X101428306Y-74650931D01*
X101600706Y-74598633D01*
X101735069Y-74585400D01*
X101824931Y-74585400D01*
X101959294Y-74598633D01*
X101959294Y-74598633D01*
G37*
G36*
X104499294Y-74598633D02*
X104671694Y-74650931D01*
X104671696Y-74650932D01*
X104830583Y-74735859D01*
X104830585Y-74735860D01*
X104830584Y-74735860D01*
X104969849Y-74850151D01*
X105084140Y-74989416D01*
X105169069Y-75148306D01*
X105221367Y-75320706D01*
X105239025Y-75500000D01*
X105221367Y-75679294D01*
X105169069Y-75851694D01*
X105169068Y-75851696D01*
X105084141Y-76010583D01*
X104969849Y-76149849D01*
X104830583Y-76264141D01*
X104671696Y-76349068D01*
X104671694Y-76349069D01*
X104499294Y-76401367D01*
X104364931Y-76414600D01*
X104275069Y-76414600D01*
X104140706Y-76401367D01*
X103968306Y-76349069D01*
X103968304Y-76349068D01*
X103809417Y-76264141D01*
X103670151Y-76149849D01*
X103555859Y-76010583D01*
X103470932Y-75851696D01*
X103470931Y-75851694D01*
X103418633Y-75679294D01*
X103400975Y-75500000D01*
X103418633Y-75320706D01*
X103470931Y-75148306D01*
X103555860Y-74989416D01*
X103670151Y-74850151D01*
X103809416Y-74735860D01*
X103809415Y-74735860D01*
X103809417Y-74735859D01*
X103968304Y-74650932D01*
X103968306Y-74650931D01*
X104140706Y-74598633D01*
X104275069Y-74585400D01*
X104364931Y-74585400D01*
X104499294Y-74598633D01*
X104499294Y-74598633D01*
G37*
G36*
X129859294Y-70738633D02*
X130031694Y-70790931D01*
X130031696Y-70790932D01*
X130190583Y-70875859D01*
X130190585Y-70875860D01*
X130190584Y-70875860D01*
X130329849Y-70990151D01*
X130444140Y-71129416D01*
X130529069Y-71288306D01*
X130581367Y-71460706D01*
X130599025Y-71640000D01*
X130581367Y-71819294D01*
X130529069Y-71991694D01*
X130529068Y-71991696D01*
X130444141Y-72150583D01*
X130329849Y-72289849D01*
X130190583Y-72404141D01*
X130031696Y-72489068D01*
X130031694Y-72489069D01*
X129859294Y-72541367D01*
X129724931Y-72554600D01*
X129635069Y-72554600D01*
X129500706Y-72541367D01*
X129328306Y-72489069D01*
X129328304Y-72489068D01*
X129169417Y-72404141D01*
X129030151Y-72289849D01*
X128915859Y-72150583D01*
X128830932Y-71991696D01*
X128830931Y-71991694D01*
X128778633Y-71819294D01*
X128760975Y-71640000D01*
X128778633Y-71460706D01*
X128830931Y-71288306D01*
X128915860Y-71129416D01*
X129030151Y-70990151D01*
X129169416Y-70875860D01*
X129169415Y-70875860D01*
X129169417Y-70875859D01*
X129328304Y-70790932D01*
X129328306Y-70790931D01*
X129500706Y-70738633D01*
X129635069Y-70725400D01*
X129724931Y-70725400D01*
X129859294Y-70738633D01*
X129859294Y-70738633D01*
G37*
G36*
X132399294Y-70738633D02*
X132571694Y-70790931D01*
X132571696Y-70790932D01*
X132730583Y-70875859D01*
X132730585Y-70875860D01*
X132730584Y-70875860D01*
X132869849Y-70990151D01*
X132984140Y-71129416D01*
X133069069Y-71288306D01*
X133121367Y-71460706D01*
X133139025Y-71640000D01*
X133121367Y-71819294D01*
X133069069Y-71991694D01*
X133069068Y-71991696D01*
X132984141Y-72150583D01*
X132869849Y-72289849D01*
X132730583Y-72404141D01*
X132571696Y-72489068D01*
X132571694Y-72489069D01*
X132399294Y-72541367D01*
X132264931Y-72554600D01*
X132175069Y-72554600D01*
X132040706Y-72541367D01*
X131868306Y-72489069D01*
X131868304Y-72489068D01*
X131709417Y-72404141D01*
X131570151Y-72289849D01*
X131455859Y-72150583D01*
X131370932Y-71991696D01*
X131370931Y-71991694D01*
X131318633Y-71819294D01*
X131300975Y-71640000D01*
X131318633Y-71460706D01*
X131370931Y-71288306D01*
X131455860Y-71129416D01*
X131570151Y-70990151D01*
X131709416Y-70875860D01*
X131709415Y-70875860D01*
X131709417Y-70875859D01*
X131868304Y-70790932D01*
X131868306Y-70790931D01*
X132040706Y-70738633D01*
X132175069Y-70725400D01*
X132264931Y-70725400D01*
X132399294Y-70738633D01*
X132399294Y-70738633D01*
G37*
G36*
X134939294Y-70738633D02*
X135111694Y-70790931D01*
X135111696Y-70790932D01*
X135270583Y-70875859D01*
X135270585Y-70875860D01*
X135270584Y-70875860D01*
X135409849Y-70990151D01*
X135524140Y-71129416D01*
X135609069Y-71288306D01*
X135661367Y-71460706D01*
X135679025Y-71640000D01*
X135661367Y-71819294D01*
X135609069Y-71991694D01*
X135609068Y-71991696D01*
X135524141Y-72150583D01*
X135409849Y-72289849D01*
X135270583Y-72404141D01*
X135111696Y-72489068D01*
X135111694Y-72489069D01*
X134939294Y-72541367D01*
X134804931Y-72554600D01*
X134715069Y-72554600D01*
X134580706Y-72541367D01*
X134408306Y-72489069D01*
X134408304Y-72489068D01*
X134249417Y-72404141D01*
X134110151Y-72289849D01*
X133995859Y-72150583D01*
X133910932Y-71991696D01*
X133910931Y-71991694D01*
X133858633Y-71819294D01*
X133840975Y-71640000D01*
X133858633Y-71460706D01*
X133910931Y-71288306D01*
X133995860Y-71129416D01*
X134110151Y-70990151D01*
X134249416Y-70875860D01*
X134249415Y-70875860D01*
X134249417Y-70875859D01*
X134408304Y-70790932D01*
X134408306Y-70790931D01*
X134580706Y-70738633D01*
X134715069Y-70725400D01*
X134804931Y-70725400D01*
X134939294Y-70738633D01*
X134939294Y-70738633D01*
G37*
G36*
X137479294Y-70738633D02*
X137651694Y-70790931D01*
X137651696Y-70790932D01*
X137810583Y-70875859D01*
X137810585Y-70875860D01*
X137810584Y-70875860D01*
X137949849Y-70990151D01*
X138064140Y-71129416D01*
X138149069Y-71288306D01*
X138201367Y-71460706D01*
X138219025Y-71640000D01*
X138201367Y-71819294D01*
X138149069Y-71991694D01*
X138149068Y-71991696D01*
X138064141Y-72150583D01*
X137949849Y-72289849D01*
X137810583Y-72404141D01*
X137651696Y-72489068D01*
X137651694Y-72489069D01*
X137479294Y-72541367D01*
X137344931Y-72554600D01*
X137255069Y-72554600D01*
X137120706Y-72541367D01*
X136948306Y-72489069D01*
X136948304Y-72489068D01*
X136789417Y-72404141D01*
X136650151Y-72289849D01*
X136535859Y-72150583D01*
X136450932Y-71991696D01*
X136450931Y-71991694D01*
X136398633Y-71819294D01*
X136380975Y-71640000D01*
X136398633Y-71460706D01*
X136450931Y-71288306D01*
X136535860Y-71129416D01*
X136650151Y-70990151D01*
X136789416Y-70875860D01*
X136789415Y-70875860D01*
X136789417Y-70875859D01*
X136948304Y-70790932D01*
X136948306Y-70790931D01*
X137120706Y-70738633D01*
X137255069Y-70725400D01*
X137344931Y-70725400D01*
X137479294Y-70738633D01*
X137479294Y-70738633D01*
G37*
G36*
X140019294Y-70738633D02*
X140191694Y-70790931D01*
X140191696Y-70790932D01*
X140350583Y-70875859D01*
X140350585Y-70875860D01*
X140350584Y-70875860D01*
X140489849Y-70990151D01*
X140604140Y-71129416D01*
X140689069Y-71288306D01*
X140741367Y-71460706D01*
X140759025Y-71640000D01*
X140741367Y-71819294D01*
X140689069Y-71991694D01*
X140689068Y-71991696D01*
X140604141Y-72150583D01*
X140489849Y-72289849D01*
X140350583Y-72404141D01*
X140191696Y-72489068D01*
X140191694Y-72489069D01*
X140019294Y-72541367D01*
X139884931Y-72554600D01*
X139795069Y-72554600D01*
X139660706Y-72541367D01*
X139488306Y-72489069D01*
X139488304Y-72489068D01*
X139329417Y-72404141D01*
X139190151Y-72289849D01*
X139075859Y-72150583D01*
X138990932Y-71991696D01*
X138990931Y-71991694D01*
X138938633Y-71819294D01*
X138920975Y-71640000D01*
X138938633Y-71460706D01*
X138990931Y-71288306D01*
X139075860Y-71129416D01*
X139190151Y-70990151D01*
X139329416Y-70875860D01*
X139329415Y-70875860D01*
X139329417Y-70875859D01*
X139488304Y-70790932D01*
X139488306Y-70790931D01*
X139660706Y-70738633D01*
X139795069Y-70725400D01*
X139884931Y-70725400D01*
X140019294Y-70738633D01*
X140019294Y-70738633D01*
G37*
G36*
X142559294Y-70738633D02*
X142731694Y-70790931D01*
X142731696Y-70790932D01*
X142890583Y-70875859D01*
X142890585Y-70875860D01*
X142890584Y-70875860D01*
X143029849Y-70990151D01*
X143144140Y-71129416D01*
X143229069Y-71288306D01*
X143281367Y-71460706D01*
X143299025Y-71640000D01*
X143281367Y-71819294D01*
X143229069Y-71991694D01*
X143229068Y-71991696D01*
X143144141Y-72150583D01*
X143029849Y-72289849D01*
X142890583Y-72404141D01*
X142731696Y-72489068D01*
X142731694Y-72489069D01*
X142559294Y-72541367D01*
X142424931Y-72554600D01*
X142335069Y-72554600D01*
X142200706Y-72541367D01*
X142028306Y-72489069D01*
X142028304Y-72489068D01*
X141869417Y-72404141D01*
X141730151Y-72289849D01*
X141615859Y-72150583D01*
X141530932Y-71991696D01*
X141530931Y-71991694D01*
X141478633Y-71819294D01*
X141460975Y-71640000D01*
X141478633Y-71460706D01*
X141530931Y-71288306D01*
X141615860Y-71129416D01*
X141730151Y-70990151D01*
X141869416Y-70875860D01*
X141869415Y-70875860D01*
X141869417Y-70875859D01*
X142028304Y-70790932D01*
X142028306Y-70790931D01*
X142200706Y-70738633D01*
X142335069Y-70725400D01*
X142424931Y-70725400D01*
X142559294Y-70738633D01*
X142559294Y-70738633D01*
G37*
G36*
X145099294Y-70738633D02*
X145271694Y-70790931D01*
X145271696Y-70790932D01*
X145430583Y-70875859D01*
X145430585Y-70875860D01*
X145430584Y-70875860D01*
X145569849Y-70990151D01*
X145684140Y-71129416D01*
X145769069Y-71288306D01*
X145821367Y-71460706D01*
X145839025Y-71640000D01*
X145821367Y-71819294D01*
X145769069Y-71991694D01*
X145769068Y-71991696D01*
X145684141Y-72150583D01*
X145569849Y-72289849D01*
X145430583Y-72404141D01*
X145271696Y-72489068D01*
X145271694Y-72489069D01*
X145099294Y-72541367D01*
X144964931Y-72554600D01*
X144875069Y-72554600D01*
X144740706Y-72541367D01*
X144568306Y-72489069D01*
X144568304Y-72489068D01*
X144409417Y-72404141D01*
X144270151Y-72289849D01*
X144155859Y-72150583D01*
X144070932Y-71991696D01*
X144070931Y-71991694D01*
X144018633Y-71819294D01*
X144000975Y-71640000D01*
X144018633Y-71460706D01*
X144070931Y-71288306D01*
X144155860Y-71129416D01*
X144270151Y-70990151D01*
X144409416Y-70875860D01*
X144409415Y-70875860D01*
X144409417Y-70875859D01*
X144568304Y-70790932D01*
X144568306Y-70790931D01*
X144740706Y-70738633D01*
X144875069Y-70725400D01*
X144964931Y-70725400D01*
X145099294Y-70738633D01*
X145099294Y-70738633D01*
G37*
G36*
X147639294Y-70738633D02*
X147811694Y-70790931D01*
X147811696Y-70790932D01*
X147970583Y-70875859D01*
X147970585Y-70875860D01*
X147970584Y-70875860D01*
X148109849Y-70990151D01*
X148224140Y-71129416D01*
X148309069Y-71288306D01*
X148361367Y-71460706D01*
X148379025Y-71640000D01*
X148361367Y-71819294D01*
X148309069Y-71991694D01*
X148309068Y-71991696D01*
X148224141Y-72150583D01*
X148109849Y-72289849D01*
X147970583Y-72404141D01*
X147811696Y-72489068D01*
X147811694Y-72489069D01*
X147639294Y-72541367D01*
X147504931Y-72554600D01*
X147415069Y-72554600D01*
X147280706Y-72541367D01*
X147108306Y-72489069D01*
X147108304Y-72489068D01*
X146949417Y-72404141D01*
X146810151Y-72289849D01*
X146695859Y-72150583D01*
X146610932Y-71991696D01*
X146610931Y-71991694D01*
X146558633Y-71819294D01*
X146540975Y-71640000D01*
X146558633Y-71460706D01*
X146610931Y-71288306D01*
X146695860Y-71129416D01*
X146810151Y-70990151D01*
X146949416Y-70875860D01*
X146949415Y-70875860D01*
X146949417Y-70875859D01*
X147108304Y-70790932D01*
X147108306Y-70790931D01*
X147280706Y-70738633D01*
X147415069Y-70725400D01*
X147504931Y-70725400D01*
X147639294Y-70738633D01*
X147639294Y-70738633D01*
G37*
G36*
X150179294Y-70738633D02*
X150351694Y-70790931D01*
X150351696Y-70790932D01*
X150510583Y-70875859D01*
X150510585Y-70875860D01*
X150510584Y-70875860D01*
X150649849Y-70990151D01*
X150764140Y-71129416D01*
X150849069Y-71288306D01*
X150901367Y-71460706D01*
X150919025Y-71640000D01*
X150901367Y-71819294D01*
X150849069Y-71991694D01*
X150849068Y-71991696D01*
X150764141Y-72150583D01*
X150649849Y-72289849D01*
X150510583Y-72404141D01*
X150351696Y-72489068D01*
X150351694Y-72489069D01*
X150179294Y-72541367D01*
X150044931Y-72554600D01*
X149955069Y-72554600D01*
X149820706Y-72541367D01*
X149648306Y-72489069D01*
X149648304Y-72489068D01*
X149489417Y-72404141D01*
X149350151Y-72289849D01*
X149235859Y-72150583D01*
X149150932Y-71991696D01*
X149150931Y-71991694D01*
X149098633Y-71819294D01*
X149080975Y-71640000D01*
X149098633Y-71460706D01*
X149150931Y-71288306D01*
X149235860Y-71129416D01*
X149350151Y-70990151D01*
X149489416Y-70875860D01*
X149489415Y-70875860D01*
X149489417Y-70875859D01*
X149648304Y-70790932D01*
X149648306Y-70790931D01*
X149820706Y-70738633D01*
X149955069Y-70725400D01*
X150044931Y-70725400D01*
X150179294Y-70738633D01*
X150179294Y-70738633D01*
G37*
G36*
X127319294Y-70738633D02*
X127491694Y-70790931D01*
X127491696Y-70790932D01*
X127650583Y-70875859D01*
X127650585Y-70875860D01*
X127650584Y-70875860D01*
X127789849Y-70990151D01*
X127904140Y-71129416D01*
X127989069Y-71288306D01*
X128041367Y-71460706D01*
X128059025Y-71640000D01*
X128041367Y-71819294D01*
X127989069Y-71991694D01*
X127989068Y-71991696D01*
X127904141Y-72150583D01*
X127789849Y-72289849D01*
X127650583Y-72404141D01*
X127491696Y-72489068D01*
X127491694Y-72489069D01*
X127319294Y-72541367D01*
X127184931Y-72554600D01*
X127095069Y-72554600D01*
X126960706Y-72541367D01*
X126788306Y-72489069D01*
X126788304Y-72489068D01*
X126629417Y-72404141D01*
X126490151Y-72289849D01*
X126375859Y-72150583D01*
X126290932Y-71991696D01*
X126290931Y-71991694D01*
X126238633Y-71819294D01*
X126220975Y-71640000D01*
X126238633Y-71460706D01*
X126290931Y-71288306D01*
X126375860Y-71129416D01*
X126490151Y-70990151D01*
X126629416Y-70875860D01*
X126629415Y-70875860D01*
X126629417Y-70875859D01*
X126788304Y-70790932D01*
X126788306Y-70790931D01*
X126960706Y-70738633D01*
X127095069Y-70725400D01*
X127184931Y-70725400D01*
X127319294Y-70738633D01*
X127319294Y-70738633D01*
G37*
G36*
X145099294Y-68198633D02*
X145271694Y-68250931D01*
X145271696Y-68250932D01*
X145430583Y-68335859D01*
X145430585Y-68335860D01*
X145430584Y-68335860D01*
X145569849Y-68450151D01*
X145684140Y-68589416D01*
X145769069Y-68748306D01*
X145821367Y-68920706D01*
X145839025Y-69100000D01*
X145821367Y-69279294D01*
X145769069Y-69451694D01*
X145769068Y-69451696D01*
X145684141Y-69610583D01*
X145569849Y-69749849D01*
X145430583Y-69864141D01*
X145271696Y-69949068D01*
X145271694Y-69949069D01*
X145099294Y-70001367D01*
X144964931Y-70014600D01*
X144875069Y-70014600D01*
X144740706Y-70001367D01*
X144568306Y-69949069D01*
X144568304Y-69949068D01*
X144409417Y-69864141D01*
X144270151Y-69749849D01*
X144155859Y-69610583D01*
X144070932Y-69451696D01*
X144070931Y-69451694D01*
X144018633Y-69279294D01*
X144000975Y-69100000D01*
X144018633Y-68920706D01*
X144070931Y-68748306D01*
X144155860Y-68589416D01*
X144270151Y-68450151D01*
X144409416Y-68335860D01*
X144409415Y-68335860D01*
X144409417Y-68335859D01*
X144568304Y-68250932D01*
X144568306Y-68250931D01*
X144740706Y-68198633D01*
X144875069Y-68185400D01*
X144964931Y-68185400D01*
X145099294Y-68198633D01*
X145099294Y-68198633D01*
G37*
G36*
X134939294Y-68198633D02*
X135111694Y-68250931D01*
X135111696Y-68250932D01*
X135270583Y-68335859D01*
X135270585Y-68335860D01*
X135270584Y-68335860D01*
X135409849Y-68450151D01*
X135524140Y-68589416D01*
X135609069Y-68748306D01*
X135661367Y-68920706D01*
X135679025Y-69100000D01*
X135661367Y-69279294D01*
X135609069Y-69451694D01*
X135609068Y-69451696D01*
X135524141Y-69610583D01*
X135409849Y-69749849D01*
X135270583Y-69864141D01*
X135111696Y-69949068D01*
X135111694Y-69949069D01*
X134939294Y-70001367D01*
X134804931Y-70014600D01*
X134715069Y-70014600D01*
X134580706Y-70001367D01*
X134408306Y-69949069D01*
X134408304Y-69949068D01*
X134249417Y-69864141D01*
X134110151Y-69749849D01*
X133995859Y-69610583D01*
X133910932Y-69451696D01*
X133910931Y-69451694D01*
X133858633Y-69279294D01*
X133840975Y-69100000D01*
X133858633Y-68920706D01*
X133910931Y-68748306D01*
X133995860Y-68589416D01*
X134110151Y-68450151D01*
X134249416Y-68335860D01*
X134249415Y-68335860D01*
X134249417Y-68335859D01*
X134408304Y-68250932D01*
X134408306Y-68250931D01*
X134580706Y-68198633D01*
X134715069Y-68185400D01*
X134804931Y-68185400D01*
X134939294Y-68198633D01*
X134939294Y-68198633D01*
G37*
G36*
X147639294Y-68198633D02*
X147811694Y-68250931D01*
X147811696Y-68250932D01*
X147970583Y-68335859D01*
X147970585Y-68335860D01*
X147970584Y-68335860D01*
X148109849Y-68450151D01*
X148224140Y-68589416D01*
X148309069Y-68748306D01*
X148361367Y-68920706D01*
X148379025Y-69100000D01*
X148361367Y-69279294D01*
X148309069Y-69451694D01*
X148309068Y-69451696D01*
X148224141Y-69610583D01*
X148109849Y-69749849D01*
X147970583Y-69864141D01*
X147811696Y-69949068D01*
X147811694Y-69949069D01*
X147639294Y-70001367D01*
X147504931Y-70014600D01*
X147415069Y-70014600D01*
X147280706Y-70001367D01*
X147108306Y-69949069D01*
X147108304Y-69949068D01*
X146949417Y-69864141D01*
X146810151Y-69749849D01*
X146695859Y-69610583D01*
X146610932Y-69451696D01*
X146610931Y-69451694D01*
X146558633Y-69279294D01*
X146540975Y-69100000D01*
X146558633Y-68920706D01*
X146610931Y-68748306D01*
X146695860Y-68589416D01*
X146810151Y-68450151D01*
X146949416Y-68335860D01*
X146949415Y-68335860D01*
X146949417Y-68335859D01*
X147108304Y-68250932D01*
X147108306Y-68250931D01*
X147280706Y-68198633D01*
X147415069Y-68185400D01*
X147504931Y-68185400D01*
X147639294Y-68198633D01*
X147639294Y-68198633D01*
G37*
G36*
X142559294Y-68198633D02*
X142731694Y-68250931D01*
X142731696Y-68250932D01*
X142890583Y-68335859D01*
X142890585Y-68335860D01*
X142890584Y-68335860D01*
X143029849Y-68450151D01*
X143144140Y-68589416D01*
X143229069Y-68748306D01*
X143281367Y-68920706D01*
X143299025Y-69100000D01*
X143281367Y-69279294D01*
X143229069Y-69451694D01*
X143229068Y-69451696D01*
X143144141Y-69610583D01*
X143029849Y-69749849D01*
X142890583Y-69864141D01*
X142731696Y-69949068D01*
X142731694Y-69949069D01*
X142559294Y-70001367D01*
X142424931Y-70014600D01*
X142335069Y-70014600D01*
X142200706Y-70001367D01*
X142028306Y-69949069D01*
X142028304Y-69949068D01*
X141869417Y-69864141D01*
X141730151Y-69749849D01*
X141615859Y-69610583D01*
X141530932Y-69451696D01*
X141530931Y-69451694D01*
X141478633Y-69279294D01*
X141460975Y-69100000D01*
X141478633Y-68920706D01*
X141530931Y-68748306D01*
X141615860Y-68589416D01*
X141730151Y-68450151D01*
X141869416Y-68335860D01*
X141869415Y-68335860D01*
X141869417Y-68335859D01*
X142028304Y-68250932D01*
X142028306Y-68250931D01*
X142200706Y-68198633D01*
X142335069Y-68185400D01*
X142424931Y-68185400D01*
X142559294Y-68198633D01*
X142559294Y-68198633D01*
G37*
G36*
X150914600Y-70014600D02*
X149085400Y-70014600D01*
X149085400Y-68185400D01*
X150914600Y-68185400D01*
X150914600Y-70014600D01*
X150914600Y-70014600D01*
G37*
G36*
X137479294Y-68198633D02*
X137651694Y-68250931D01*
X137651696Y-68250932D01*
X137810583Y-68335859D01*
X137810585Y-68335860D01*
X137810584Y-68335860D01*
X137949849Y-68450151D01*
X138064140Y-68589416D01*
X138149069Y-68748306D01*
X138201367Y-68920706D01*
X138219025Y-69100000D01*
X138201367Y-69279294D01*
X138149069Y-69451694D01*
X138149068Y-69451696D01*
X138064141Y-69610583D01*
X137949849Y-69749849D01*
X137810583Y-69864141D01*
X137651696Y-69949068D01*
X137651694Y-69949069D01*
X137479294Y-70001367D01*
X137344931Y-70014600D01*
X137255069Y-70014600D01*
X137120706Y-70001367D01*
X136948306Y-69949069D01*
X136948304Y-69949068D01*
X136789417Y-69864141D01*
X136650151Y-69749849D01*
X136535859Y-69610583D01*
X136450932Y-69451696D01*
X136450931Y-69451694D01*
X136398633Y-69279294D01*
X136380975Y-69100000D01*
X136398633Y-68920706D01*
X136450931Y-68748306D01*
X136535860Y-68589416D01*
X136650151Y-68450151D01*
X136789416Y-68335860D01*
X136789415Y-68335860D01*
X136789417Y-68335859D01*
X136948304Y-68250932D01*
X136948306Y-68250931D01*
X137120706Y-68198633D01*
X137255069Y-68185400D01*
X137344931Y-68185400D01*
X137479294Y-68198633D01*
X137479294Y-68198633D01*
G37*
G36*
X140019294Y-68198633D02*
X140191694Y-68250931D01*
X140191696Y-68250932D01*
X140350583Y-68335859D01*
X140350585Y-68335860D01*
X140350584Y-68335860D01*
X140489849Y-68450151D01*
X140604140Y-68589416D01*
X140689069Y-68748306D01*
X140741367Y-68920706D01*
X140759025Y-69100000D01*
X140741367Y-69279294D01*
X140689069Y-69451694D01*
X140689068Y-69451696D01*
X140604141Y-69610583D01*
X140489849Y-69749849D01*
X140350583Y-69864141D01*
X140191696Y-69949068D01*
X140191694Y-69949069D01*
X140019294Y-70001367D01*
X139884931Y-70014600D01*
X139795069Y-70014600D01*
X139660706Y-70001367D01*
X139488306Y-69949069D01*
X139488304Y-69949068D01*
X139329417Y-69864141D01*
X139190151Y-69749849D01*
X139075859Y-69610583D01*
X138990932Y-69451696D01*
X138990931Y-69451694D01*
X138938633Y-69279294D01*
X138920975Y-69100000D01*
X138938633Y-68920706D01*
X138990931Y-68748306D01*
X139075860Y-68589416D01*
X139190151Y-68450151D01*
X139329416Y-68335860D01*
X139329415Y-68335860D01*
X139329417Y-68335859D01*
X139488304Y-68250932D01*
X139488306Y-68250931D01*
X139660706Y-68198633D01*
X139795069Y-68185400D01*
X139884931Y-68185400D01*
X140019294Y-68198633D01*
X140019294Y-68198633D01*
G37*
G36*
X132399294Y-68198633D02*
X132571694Y-68250931D01*
X132571696Y-68250932D01*
X132730583Y-68335859D01*
X132730585Y-68335860D01*
X132730584Y-68335860D01*
X132869849Y-68450151D01*
X132984140Y-68589416D01*
X133069069Y-68748306D01*
X133121367Y-68920706D01*
X133139025Y-69100000D01*
X133121367Y-69279294D01*
X133069069Y-69451694D01*
X133069068Y-69451696D01*
X132984141Y-69610583D01*
X132869849Y-69749849D01*
X132730583Y-69864141D01*
X132571696Y-69949068D01*
X132571694Y-69949069D01*
X132399294Y-70001367D01*
X132264931Y-70014600D01*
X132175069Y-70014600D01*
X132040706Y-70001367D01*
X131868306Y-69949069D01*
X131868304Y-69949068D01*
X131709417Y-69864141D01*
X131570151Y-69749849D01*
X131455859Y-69610583D01*
X131370932Y-69451696D01*
X131370931Y-69451694D01*
X131318633Y-69279294D01*
X131300975Y-69100000D01*
X131318633Y-68920706D01*
X131370931Y-68748306D01*
X131455860Y-68589416D01*
X131570151Y-68450151D01*
X131709416Y-68335860D01*
X131709415Y-68335860D01*
X131709417Y-68335859D01*
X131868304Y-68250932D01*
X131868306Y-68250931D01*
X132040706Y-68198633D01*
X132175069Y-68185400D01*
X132264931Y-68185400D01*
X132399294Y-68198633D01*
X132399294Y-68198633D01*
G37*
G36*
X129859294Y-68198633D02*
X130031694Y-68250931D01*
X130031696Y-68250932D01*
X130190583Y-68335859D01*
X130190585Y-68335860D01*
X130190584Y-68335860D01*
X130329849Y-68450151D01*
X130444140Y-68589416D01*
X130529069Y-68748306D01*
X130581367Y-68920706D01*
X130599025Y-69100000D01*
X130581367Y-69279294D01*
X130529069Y-69451694D01*
X130529068Y-69451696D01*
X130444141Y-69610583D01*
X130329849Y-69749849D01*
X130190583Y-69864141D01*
X130031696Y-69949068D01*
X130031694Y-69949069D01*
X129859294Y-70001367D01*
X129724931Y-70014600D01*
X129635069Y-70014600D01*
X129500706Y-70001367D01*
X129328306Y-69949069D01*
X129328304Y-69949068D01*
X129169417Y-69864141D01*
X129030151Y-69749849D01*
X128915859Y-69610583D01*
X128830932Y-69451696D01*
X128830931Y-69451694D01*
X128778633Y-69279294D01*
X128760975Y-69100000D01*
X128778633Y-68920706D01*
X128830931Y-68748306D01*
X128915860Y-68589416D01*
X129030151Y-68450151D01*
X129169416Y-68335860D01*
X129169415Y-68335860D01*
X129169417Y-68335859D01*
X129328304Y-68250932D01*
X129328306Y-68250931D01*
X129500706Y-68198633D01*
X129635069Y-68185400D01*
X129724931Y-68185400D01*
X129859294Y-68198633D01*
X129859294Y-68198633D01*
G37*
G36*
X127319294Y-68198633D02*
X127491694Y-68250931D01*
X127491696Y-68250932D01*
X127650583Y-68335859D01*
X127650585Y-68335860D01*
X127650584Y-68335860D01*
X127789849Y-68450151D01*
X127904140Y-68589416D01*
X127989069Y-68748306D01*
X128041367Y-68920706D01*
X128059025Y-69100000D01*
X128041367Y-69279294D01*
X127989069Y-69451694D01*
X127989068Y-69451696D01*
X127904141Y-69610583D01*
X127789849Y-69749849D01*
X127650583Y-69864141D01*
X127491696Y-69949068D01*
X127491694Y-69949069D01*
X127319294Y-70001367D01*
X127184931Y-70014600D01*
X127095069Y-70014600D01*
X126960706Y-70001367D01*
X126788306Y-69949069D01*
X126788304Y-69949068D01*
X126629417Y-69864141D01*
X126490151Y-69749849D01*
X126375859Y-69610583D01*
X126290932Y-69451696D01*
X126290931Y-69451694D01*
X126238633Y-69279294D01*
X126220975Y-69100000D01*
X126238633Y-68920706D01*
X126290931Y-68748306D01*
X126375860Y-68589416D01*
X126490151Y-68450151D01*
X126629416Y-68335860D01*
X126629415Y-68335860D01*
X126629417Y-68335859D01*
X126788304Y-68250932D01*
X126788306Y-68250931D01*
X126960706Y-68198633D01*
X127095069Y-68185400D01*
X127184931Y-68185400D01*
X127319294Y-68198633D01*
X127319294Y-68198633D01*
G37*
M02*
