M48
;DRILL file {KiCad (6.0.0-rc1-dev-557-ge985f797c)} date 12/31/18 20:35:25
;FORMAT={-:-/ absolute / metric / decimal}
FMAT,2
METRIC,TZ
T1C0.400
T2C0.762
T3C1.016
%
G90
G05
M71
T1
X111.05Y-85.
X113.7Y-77.3
X114.8Y-75.1
X115.4Y-84.6
X117.Y-86.2
X117.2Y-84.6
X122.9Y-81.7
X122.9Y-83.
X125.4Y-84.3
X125.6Y-92.1
X126.7Y-84.3
T2
X99.9Y-89.38
X99.9Y-97.
X102.44Y-89.38
X102.44Y-97.
X104.98Y-89.38
X104.98Y-97.
X107.52Y-89.38
X107.52Y-97.
X110.06Y-89.38
X110.06Y-97.
X112.6Y-89.38
X112.6Y-97.
X115.14Y-89.38
X115.14Y-97.
X117.68Y-89.38
X117.68Y-97.
T3
X96.7Y-75.5
X96.7Y-78.04
X99.24Y-75.5
X99.24Y-78.04
X101.78Y-75.5
X101.78Y-78.04
X104.32Y-75.5
X104.32Y-78.04
X106.86Y-75.5
X106.86Y-78.04
X127.14Y-69.1
X127.14Y-71.64
X129.68Y-69.1
X129.68Y-71.64
X132.22Y-69.1
X132.22Y-71.64
X134.76Y-69.1
X134.76Y-71.64
X137.3Y-69.1
X137.3Y-71.64
X139.84Y-69.1
X139.84Y-71.64
X142.38Y-69.1
X142.38Y-71.64
X144.92Y-69.1
X144.92Y-71.64
X147.46Y-69.1
X147.46Y-71.64
X150.Y-69.1
X150.Y-71.64
T0
M30
