G04 #@! TF.GenerationSoftware,KiCad,Pcbnew,(6.0.0-rc1-dev-557-ge985f797c)*
G04 #@! TF.CreationDate,2018-12-31T20:35:23+01:00*
G04 #@! TF.ProjectId,MAN Adapterplatine,4D414E2041646170746572706C617469,1.0*
G04 #@! TF.SameCoordinates,Original*
G04 #@! TF.FileFunction,Copper,L2,Bot,Signal*
G04 #@! TF.FilePolarity,Positive*
%FSLAX46Y46*%
G04 Gerber Fmt 4.6, Leading zero omitted, Abs format (unit mm)*
G04 Created by KiCad (PCBNEW (6.0.0-rc1-dev-557-ge985f797c)) date 12/31/18 20:35:23*
%MOMM*%
%LPD*%
G01*
G04 APERTURE LIST*
G04 #@! TA.AperFunction,ComponentPad*
%ADD10O,1.727200X1.727200*%
G04 #@! TD*
G04 #@! TA.AperFunction,ComponentPad*
%ADD11R,1.727200X1.727200*%
G04 #@! TD*
G04 #@! TA.AperFunction,ComponentPad*
%ADD12O,1.524000X1.824000*%
G04 #@! TD*
G04 #@! TA.AperFunction,ComponentPad*
%ADD13R,1.524000X1.824000*%
G04 #@! TD*
G04 #@! TA.AperFunction,ViaPad*
%ADD14C,0.800000*%
G04 #@! TD*
G04 #@! TA.AperFunction,Conductor*
%ADD15C,0.250000*%
G04 #@! TD*
G04 #@! TA.AperFunction,Conductor*
%ADD16C,2.000000*%
G04 #@! TD*
G04 #@! TA.AperFunction,Conductor*
%ADD17C,0.254000*%
G04 #@! TD*
G04 APERTURE END LIST*
D10*
G04 #@! TO.P,J2,10*
G04 #@! TO.N,/SR_Latch*
X96700000Y-78040000D03*
G04 #@! TO.P,J2,9*
G04 #@! TO.N,/Rx*
X96700000Y-75500000D03*
G04 #@! TO.P,J2,8*
G04 #@! TO.N,/Tx*
X99240000Y-78040000D03*
G04 #@! TO.P,J2,7*
G04 #@! TO.N,/SR_Clock*
X99240000Y-75500000D03*
G04 #@! TO.P,J2,6*
G04 #@! TO.N,/SR_Data*
X101780000Y-78040000D03*
G04 #@! TO.P,J2,5*
G04 #@! TO.N,+5V*
X101780000Y-75500000D03*
G04 #@! TO.P,J2,4*
G04 #@! TO.N,GNDPWR*
X104320000Y-78040000D03*
G04 #@! TO.P,J2,3*
G04 #@! TO.N,+10V*
X104320000Y-75500000D03*
G04 #@! TO.P,J2,2*
G04 #@! TO.N,AC*
X106860000Y-78040000D03*
D11*
G04 #@! TO.P,J2,1*
G04 #@! TO.N,GND*
X106860000Y-75500000D03*
G04 #@! TD*
D12*
G04 #@! TO.P,SW1,9*
G04 #@! TO.N,Net-(RN2-Pad1)*
X117680000Y-89380000D03*
G04 #@! TO.P,SW1,8*
G04 #@! TO.N,+5V*
X117680000Y-97000000D03*
G04 #@! TO.P,SW1,10*
G04 #@! TO.N,Net-(RN2-Pad2)*
X115140000Y-89380000D03*
G04 #@! TO.P,SW1,7*
G04 #@! TO.N,+5V*
X115140000Y-97000000D03*
G04 #@! TO.P,SW1,11*
G04 #@! TO.N,Net-(RN2-Pad3)*
X112600000Y-89380000D03*
G04 #@! TO.P,SW1,6*
G04 #@! TO.N,+5V*
X112600000Y-97000000D03*
G04 #@! TO.P,SW1,12*
G04 #@! TO.N,Net-(RN2-Pad4)*
X110060000Y-89380000D03*
G04 #@! TO.P,SW1,5*
G04 #@! TO.N,+5V*
X110060000Y-97000000D03*
G04 #@! TO.P,SW1,13*
G04 #@! TO.N,Net-(RN1-Pad1)*
X107520000Y-89380000D03*
G04 #@! TO.P,SW1,4*
G04 #@! TO.N,+5V*
X107520000Y-97000000D03*
G04 #@! TO.P,SW1,14*
G04 #@! TO.N,Net-(RN1-Pad2)*
X104980000Y-89380000D03*
G04 #@! TO.P,SW1,3*
G04 #@! TO.N,+5V*
X104980000Y-97000000D03*
G04 #@! TO.P,SW1,15*
G04 #@! TO.N,Net-(RN1-Pad3)*
X102440000Y-89380000D03*
G04 #@! TO.P,SW1,2*
G04 #@! TO.N,+5V*
X102440000Y-97000000D03*
G04 #@! TO.P,SW1,16*
G04 #@! TO.N,Net-(RN1-Pad4)*
X99900000Y-89380000D03*
D13*
G04 #@! TO.P,SW1,1*
G04 #@! TO.N,+5V*
X99900000Y-97000000D03*
G04 #@! TD*
D10*
G04 #@! TO.P,J1,20*
G04 #@! TO.N,GND*
X127140000Y-71640000D03*
G04 #@! TO.P,J1,19*
G04 #@! TO.N,/Tx*
X127140000Y-69100000D03*
G04 #@! TO.P,J1,18*
G04 #@! TO.N,GND*
X129680000Y-71640000D03*
G04 #@! TO.P,J1,17*
G04 #@! TO.N,/Rx*
X129680000Y-69100000D03*
G04 #@! TO.P,J1,16*
G04 #@! TO.N,GND*
X132220000Y-71640000D03*
G04 #@! TO.P,J1,15*
G04 #@! TO.N,+10V*
X132220000Y-69100000D03*
G04 #@! TO.P,J1,14*
X134760000Y-71640000D03*
G04 #@! TO.P,J1,13*
X134760000Y-69100000D03*
G04 #@! TO.P,J1,12*
G04 #@! TO.N,GNDPWR*
X137300000Y-71640000D03*
G04 #@! TO.P,J1,11*
X137300000Y-69100000D03*
G04 #@! TO.P,J1,10*
X139840000Y-71640000D03*
G04 #@! TO.P,J1,9*
X139840000Y-69100000D03*
G04 #@! TO.P,J1,8*
X142380000Y-71640000D03*
G04 #@! TO.P,J1,7*
X142380000Y-69100000D03*
G04 #@! TO.P,J1,6*
G04 #@! TO.N,AC*
X144920000Y-71640000D03*
G04 #@! TO.P,J1,5*
X144920000Y-69100000D03*
G04 #@! TO.P,J1,4*
X147460000Y-71640000D03*
G04 #@! TO.P,J1,3*
X147460000Y-69100000D03*
G04 #@! TO.P,J1,2*
X150000000Y-71640000D03*
D11*
G04 #@! TO.P,J1,1*
X150000000Y-69100000D03*
G04 #@! TD*
D14*
G04 #@! TO.N,GND*
X125600000Y-92100000D03*
X117000000Y-86200000D03*
X114800000Y-75100000D03*
X113700000Y-77300000D03*
G04 #@! TO.N,+5V*
X111050000Y-85000000D03*
G04 #@! TO.N,AC*
X122900000Y-81700000D03*
X122900000Y-83000000D03*
G04 #@! TO.N,GNDPWR*
X125400000Y-84300000D03*
X126700000Y-84300000D03*
G04 #@! TO.N,/SR_Latch*
X117200000Y-84600000D03*
G04 #@! TO.N,/SR_Clock*
X115400000Y-84600000D03*
G04 #@! TD*
D15*
G04 #@! TO.N,+5V*
X99900000Y-97000000D02*
X102440000Y-97000000D01*
X103452000Y-97000000D02*
X104980000Y-97000000D01*
X102440000Y-97000000D02*
X103452000Y-97000000D01*
X106508000Y-97000000D02*
X104980000Y-97000000D01*
X107520000Y-97000000D02*
X106508000Y-97000000D01*
X108532000Y-97000000D02*
X110060000Y-97000000D01*
X107520000Y-97000000D02*
X108532000Y-97000000D01*
X110060000Y-97000000D02*
X112600000Y-97000000D01*
X113612000Y-97000000D02*
X115140000Y-97000000D01*
X112600000Y-97000000D02*
X113612000Y-97000000D01*
X116668000Y-97000000D02*
X115140000Y-97000000D01*
X117680000Y-97000000D02*
X116668000Y-97000000D01*
X102200000Y-85000000D02*
X111050000Y-85000000D01*
X100591399Y-83391399D02*
X102200000Y-85000000D01*
X101780000Y-75500000D02*
X100591399Y-76688601D01*
X100591399Y-76688601D02*
X100591399Y-83391399D01*
D16*
G04 #@! TO.N,+10V*
X132220000Y-69100000D02*
X134760000Y-69100000D01*
X134760000Y-69100000D02*
X134760000Y-70460000D01*
X134760000Y-70460000D02*
X134760000Y-71640000D01*
G04 #@! TO.N,GNDPWR*
X137300000Y-69100000D02*
X139840000Y-69100000D01*
X139840000Y-69100000D02*
X139840000Y-71640000D01*
X139840000Y-69100000D02*
X142380000Y-69100000D01*
X137300000Y-71640000D02*
X139840000Y-71640000D01*
X139840000Y-71640000D02*
X142380000Y-71640000D01*
X137300000Y-69100000D02*
X137300000Y-71640000D01*
X142380000Y-69100000D02*
X142380000Y-71640000D01*
G04 #@! TO.N,AC*
X144920000Y-69100000D02*
X150000000Y-69100000D01*
X144920000Y-71640000D02*
X150000000Y-71640000D01*
X147460000Y-69100000D02*
X147460000Y-71640000D01*
X144920000Y-69100000D02*
X144920000Y-71640000D01*
X150000000Y-69100000D02*
X150000000Y-71640000D01*
X122900000Y-83000000D02*
X122900000Y-81700000D01*
X122900000Y-83000000D02*
X122900000Y-81900000D01*
X121400000Y-80200000D02*
X122900000Y-81700000D01*
X106860000Y-78040000D02*
X109020000Y-80200000D01*
X109020000Y-80200000D02*
X121400000Y-80200000D01*
G04 #@! TO.N,GNDPWR*
X125400000Y-84300000D02*
X124000000Y-85700000D01*
X124000000Y-85700000D02*
X121600000Y-85700000D01*
X121600000Y-85700000D02*
X118500000Y-82600000D01*
X118500000Y-82600000D02*
X105400000Y-82600000D01*
X104320000Y-81520000D02*
X104320000Y-78040000D01*
X105400000Y-82600000D02*
X104320000Y-81520000D01*
X125400000Y-84300000D02*
X126700000Y-84300000D01*
D15*
G04 #@! TO.N,/Tx*
X100103599Y-77176401D02*
X99240000Y-78040000D01*
X100103599Y-76496401D02*
X100103599Y-77176401D01*
X100591399Y-76008601D02*
X100103599Y-76496401D01*
X100591399Y-74108601D02*
X100591399Y-76008601D01*
X101100000Y-73600000D02*
X100591399Y-74108601D01*
X108400000Y-73600000D02*
X101100000Y-73600000D01*
X125918686Y-69100000D02*
X125200000Y-69818686D01*
X127140000Y-69100000D02*
X125918686Y-69100000D01*
X125200000Y-69818686D02*
X125200000Y-74700000D01*
X125200000Y-74700000D02*
X123500000Y-76400000D01*
X123500000Y-76400000D02*
X111200000Y-76400000D01*
X111200000Y-76400000D02*
X108400000Y-73600000D01*
G04 #@! TO.N,/Rx*
X108900000Y-73000000D02*
X99200000Y-73000000D01*
X128080000Y-67500000D02*
X125600000Y-67500000D01*
X99200000Y-73000000D02*
X96700000Y-75500000D01*
X129680000Y-69100000D02*
X128080000Y-67500000D01*
X125600000Y-67500000D02*
X124300000Y-68800000D01*
X111800000Y-75900000D02*
X108900000Y-73000000D01*
X124300000Y-68800000D02*
X124300000Y-74600000D01*
X124300000Y-74600000D02*
X123000000Y-75900000D01*
X123000000Y-75900000D02*
X111800000Y-75900000D01*
G04 #@! TO.N,/SR_Latch*
X116634315Y-84600000D02*
X116100000Y-85134315D01*
X117200000Y-84600000D02*
X116634315Y-84600000D01*
X116100000Y-85134315D02*
X116100000Y-85700000D01*
X116100000Y-85700000D02*
X114300000Y-87500000D01*
X114300000Y-87500000D02*
X99600000Y-87500000D01*
X96700000Y-84600000D02*
X96700000Y-78040000D01*
X99600000Y-87500000D02*
X96700000Y-84600000D01*
G04 #@! TO.N,/SR_Clock*
X115400000Y-85165685D02*
X114165685Y-86400000D01*
X115400000Y-84600000D02*
X115400000Y-85165685D01*
X114165685Y-86400000D02*
X100000000Y-86400000D01*
X100000000Y-86400000D02*
X98000000Y-84400000D01*
X98000000Y-76740000D02*
X99240000Y-75500000D01*
X98000000Y-84400000D02*
X98000000Y-76740000D01*
G04 #@! TD*
D17*
G04 #@! TO.N,GND*
G36*
X155228752Y-83244600D02*
X153470719Y-83244600D01*
X153452019Y-83248320D01*
X153442244Y-83247107D01*
X153254847Y-83260796D01*
X153218106Y-83270935D01*
X153180001Y-83270144D01*
X153005505Y-83301102D01*
X152969400Y-83315186D01*
X152930782Y-83318424D01*
X152774328Y-83363412D01*
X152739964Y-83381143D01*
X152701972Y-83388364D01*
X152559119Y-83446114D01*
X152526706Y-83467374D01*
X152489587Y-83478542D01*
X152358410Y-83548275D01*
X152328461Y-83572740D01*
X152292791Y-83587671D01*
X152173235Y-83668203D01*
X152145346Y-83696301D01*
X152110664Y-83715388D01*
X151995038Y-83812671D01*
X151970117Y-83843807D01*
X151937439Y-83866674D01*
X151836457Y-83972101D01*
X151815595Y-84004827D01*
X151786292Y-84030277D01*
X151696883Y-84145646D01*
X151679877Y-84179718D01*
X151653832Y-84207503D01*
X151577026Y-84330908D01*
X151563647Y-84366413D01*
X151540655Y-84396603D01*
X151474385Y-84532226D01*
X151464541Y-84569505D01*
X151444488Y-84602434D01*
X151390652Y-84749623D01*
X151384536Y-84788944D01*
X151367594Y-84824954D01*
X151327517Y-84986339D01*
X151325534Y-85028445D01*
X151312030Y-85068376D01*
X151288802Y-85246374D01*
X151291883Y-85292579D01*
X151282631Y-85337953D01*
X151281671Y-85537905D01*
X151290680Y-85584363D01*
X151287209Y-85631557D01*
X151309482Y-85811834D01*
X151323376Y-85853862D01*
X151325410Y-85898078D01*
X151365049Y-86058445D01*
X151383104Y-86096928D01*
X151389901Y-86138892D01*
X151444733Y-86285930D01*
X151466712Y-86321515D01*
X151478002Y-86361785D01*
X151545720Y-86495201D01*
X151571539Y-86528057D01*
X151587270Y-86566767D01*
X151668728Y-86690466D01*
X151697984Y-86720117D01*
X151717889Y-86756703D01*
X151809434Y-86866582D01*
X151841516Y-86892516D01*
X151865133Y-86926344D01*
X151968623Y-87025689D01*
X152003090Y-87047714D01*
X152030052Y-87078472D01*
X152143561Y-87165610D01*
X152179640Y-87183412D01*
X152209278Y-87210618D01*
X152334418Y-87286705D01*
X152371655Y-87300295D01*
X152403547Y-87323834D01*
X152541234Y-87388567D01*
X152579253Y-87397997D01*
X152613046Y-87417810D01*
X152767052Y-87471239D01*
X152804463Y-87476419D01*
X152808108Y-87478084D01*
X152808107Y-96624245D01*
X152802932Y-96625592D01*
X152768650Y-96642196D01*
X152731054Y-96648299D01*
X152584811Y-96702892D01*
X152551610Y-96723414D01*
X152513953Y-96733678D01*
X152379890Y-96800508D01*
X152348388Y-96824896D01*
X152311292Y-96839432D01*
X152188458Y-96918132D01*
X152159360Y-96946131D01*
X152123585Y-96964860D01*
X152011810Y-97054996D01*
X151985516Y-97086479D01*
X151951497Y-97109398D01*
X151849036Y-97212641D01*
X151826405Y-97246791D01*
X151795157Y-97273286D01*
X151706056Y-97385481D01*
X151687388Y-97421796D01*
X151659335Y-97451462D01*
X151580476Y-97576932D01*
X151565756Y-97615482D01*
X151540904Y-97648429D01*
X151474087Y-97786794D01*
X151463652Y-97827069D01*
X151442472Y-97862882D01*
X151389428Y-98013930D01*
X151383468Y-98055810D01*
X151366218Y-98094435D01*
X151328622Y-98259713D01*
X151327424Y-98303569D01*
X151314388Y-98345459D01*
X151295166Y-98527261D01*
X151299376Y-98573394D01*
X151291234Y-98618999D01*
X151295115Y-98816277D01*
X151304837Y-98860580D01*
X151302375Y-98905871D01*
X151327521Y-99081712D01*
X151341389Y-99121119D01*
X151343824Y-99162823D01*
X151385450Y-99322729D01*
X151402820Y-99358595D01*
X151409393Y-99397898D01*
X151464665Y-99543833D01*
X151485261Y-99576802D01*
X151495647Y-99614265D01*
X151563230Y-99748378D01*
X151586939Y-99778729D01*
X151601016Y-99814578D01*
X151679670Y-99937145D01*
X151706461Y-99964946D01*
X151724227Y-99999223D01*
X151814246Y-100111791D01*
X151844146Y-100136970D01*
X151865681Y-100169589D01*
X151967116Y-100272153D01*
X152000177Y-100294509D01*
X152025614Y-100325263D01*
X152140261Y-100418617D01*
X152175448Y-100437251D01*
X152203965Y-100465039D01*
X152325572Y-100544034D01*
X152362775Y-100558882D01*
X152394307Y-100583582D01*
X152533283Y-100653853D01*
X152571992Y-100664641D01*
X152606120Y-100685857D01*
X152753908Y-100741459D01*
X152792705Y-100747859D01*
X152828108Y-100764972D01*
X152990186Y-100807031D01*
X153028749Y-100809253D01*
X153065087Y-100822360D01*
X153241274Y-100848958D01*
X153278771Y-100847212D01*
X153315189Y-100856321D01*
X153453028Y-100863043D01*
X153470719Y-100866562D01*
X155101163Y-100866562D01*
X155101162Y-101398576D01*
X92131636Y-101398576D01*
X92131636Y-97533585D01*
X94498837Y-97228697D01*
X94501310Y-97227865D01*
X94501916Y-97227900D01*
X94679535Y-97203031D01*
X94692262Y-97198594D01*
X94705736Y-97198879D01*
X94875724Y-97168788D01*
X94896705Y-97160612D01*
X94919205Y-97159728D01*
X95081044Y-97120870D01*
X95110566Y-97107259D01*
X95142813Y-97103150D01*
X95295904Y-97051890D01*
X95333697Y-97030279D01*
X95375939Y-97019755D01*
X95512048Y-96955593D01*
X95556821Y-96922476D01*
X95608234Y-96901057D01*
X95728612Y-96820267D01*
X95776814Y-96771868D01*
X95833961Y-96734437D01*
X95935059Y-96635176D01*
X95979745Y-96569607D01*
X96035287Y-96512949D01*
X96117016Y-96387957D01*
X96147870Y-96311320D01*
X96191117Y-96240936D01*
X96245240Y-96094768D01*
X96246320Y-96088000D01*
X98490560Y-96088000D01*
X98490560Y-97912000D01*
X98539843Y-98159765D01*
X98680191Y-98369809D01*
X98890235Y-98510157D01*
X99138000Y-98559440D01*
X100662000Y-98559440D01*
X100909765Y-98510157D01*
X101119809Y-98369809D01*
X101260157Y-98159765D01*
X101300162Y-97958643D01*
X101432821Y-98157180D01*
X101894919Y-98465944D01*
X102440000Y-98574368D01*
X102985082Y-98465944D01*
X103447180Y-98157180D01*
X103710000Y-97763842D01*
X103972821Y-98157180D01*
X104434919Y-98465944D01*
X104980000Y-98574368D01*
X105525082Y-98465944D01*
X105987180Y-98157180D01*
X106250000Y-97763842D01*
X106512821Y-98157180D01*
X106974919Y-98465944D01*
X107520000Y-98574368D01*
X108065082Y-98465944D01*
X108527180Y-98157180D01*
X108790000Y-97763842D01*
X109052821Y-98157180D01*
X109514919Y-98465944D01*
X110060000Y-98574368D01*
X110605082Y-98465944D01*
X111067180Y-98157180D01*
X111330000Y-97763842D01*
X111592821Y-98157180D01*
X112054919Y-98465944D01*
X112600000Y-98574368D01*
X113145082Y-98465944D01*
X113607180Y-98157180D01*
X113870000Y-97763842D01*
X114132821Y-98157180D01*
X114594919Y-98465944D01*
X115140000Y-98574368D01*
X115685082Y-98465944D01*
X116147180Y-98157180D01*
X116410000Y-97763842D01*
X116672821Y-98157180D01*
X117134919Y-98465944D01*
X117680000Y-98574368D01*
X118225082Y-98465944D01*
X118687180Y-98157180D01*
X118995944Y-97695081D01*
X119077000Y-97287587D01*
X119077000Y-96712412D01*
X118995944Y-96304918D01*
X118687179Y-95842820D01*
X118225081Y-95534056D01*
X117680000Y-95425632D01*
X117134918Y-95534056D01*
X116672820Y-95842821D01*
X116410000Y-96236159D01*
X116147179Y-95842820D01*
X115685081Y-95534056D01*
X115140000Y-95425632D01*
X114594918Y-95534056D01*
X114132820Y-95842821D01*
X113870000Y-96236159D01*
X113607179Y-95842820D01*
X113145081Y-95534056D01*
X112600000Y-95425632D01*
X112054918Y-95534056D01*
X111592820Y-95842821D01*
X111330000Y-96236159D01*
X111067179Y-95842820D01*
X110605081Y-95534056D01*
X110060000Y-95425632D01*
X109514918Y-95534056D01*
X109052820Y-95842821D01*
X108790000Y-96236159D01*
X108527179Y-95842820D01*
X108065081Y-95534056D01*
X107520000Y-95425632D01*
X106974918Y-95534056D01*
X106512820Y-95842821D01*
X106250000Y-96236159D01*
X105987179Y-95842820D01*
X105525081Y-95534056D01*
X104980000Y-95425632D01*
X104434918Y-95534056D01*
X103972820Y-95842821D01*
X103710000Y-96236159D01*
X103447179Y-95842820D01*
X102985081Y-95534056D01*
X102440000Y-95425632D01*
X101894918Y-95534056D01*
X101432820Y-95842821D01*
X101300162Y-96041357D01*
X101260157Y-95840235D01*
X101119809Y-95630191D01*
X100909765Y-95489843D01*
X100662000Y-95440560D01*
X99138000Y-95440560D01*
X98890235Y-95489843D01*
X98680191Y-95630191D01*
X98539843Y-95840235D01*
X98490560Y-96088000D01*
X96246320Y-96088000D01*
X96257307Y-96019163D01*
X96283068Y-95947064D01*
X96308870Y-95772574D01*
X96306986Y-95734581D01*
X96318371Y-95677345D01*
X96318371Y-93955431D01*
X127465000Y-93955431D01*
X127465000Y-94844569D01*
X127805259Y-95666026D01*
X128433974Y-96294741D01*
X129255431Y-96635000D01*
X130144569Y-96635000D01*
X130966026Y-96294741D01*
X131594741Y-95666026D01*
X131935000Y-94844569D01*
X131935000Y-93955431D01*
X131594741Y-93133974D01*
X130966026Y-92505259D01*
X130144569Y-92165000D01*
X129255431Y-92165000D01*
X128433974Y-92505259D01*
X127805259Y-93133974D01*
X127465000Y-93955431D01*
X96318371Y-93955431D01*
X96318371Y-87025446D01*
X96307570Y-86971145D01*
X96309397Y-86936404D01*
X96283763Y-86759384D01*
X96258119Y-86686926D01*
X96246170Y-86611001D01*
X96192385Y-86464768D01*
X96150000Y-86395449D01*
X96120106Y-86319906D01*
X96041627Y-86198315D01*
X95987175Y-86142104D01*
X95943679Y-86077043D01*
X95843575Y-85976989D01*
X95786268Y-85938719D01*
X95737997Y-85889540D01*
X95617998Y-85807733D01*
X95565629Y-85785468D01*
X95520012Y-85751446D01*
X95380948Y-85685218D01*
X95338269Y-85674406D01*
X95300103Y-85652449D01*
X95150259Y-85601841D01*
X95117870Y-85597628D01*
X95088242Y-85583889D01*
X94924573Y-85544211D01*
X94901627Y-85543258D01*
X94880236Y-85534899D01*
X94709643Y-85504527D01*
X94695882Y-85504804D01*
X94682888Y-85500271D01*
X94570051Y-85484447D01*
X94560380Y-85481194D01*
X92193179Y-85176305D01*
X92193179Y-75500000D01*
X95172041Y-75500000D01*
X95288350Y-76084725D01*
X95619570Y-76580430D01*
X95903281Y-76770000D01*
X95619570Y-76959570D01*
X95288350Y-77455275D01*
X95172041Y-78040000D01*
X95288350Y-78624725D01*
X95619570Y-79120430D01*
X95940001Y-79334535D01*
X95940000Y-84525153D01*
X95925112Y-84600000D01*
X95940000Y-84674847D01*
X95940000Y-84674851D01*
X95984096Y-84896536D01*
X96152071Y-85147929D01*
X96215530Y-85190331D01*
X99009673Y-87984476D01*
X99052071Y-88047929D01*
X99103317Y-88082171D01*
X98892820Y-88222821D01*
X98584056Y-88684919D01*
X98503000Y-89092413D01*
X98503000Y-89667588D01*
X98584056Y-90075082D01*
X98892821Y-90537180D01*
X99354919Y-90845944D01*
X99900000Y-90954368D01*
X100445082Y-90845944D01*
X100907180Y-90537180D01*
X101170000Y-90143842D01*
X101432821Y-90537180D01*
X101894919Y-90845944D01*
X102440000Y-90954368D01*
X102985082Y-90845944D01*
X103447180Y-90537180D01*
X103710000Y-90143842D01*
X103972821Y-90537180D01*
X104434919Y-90845944D01*
X104980000Y-90954368D01*
X105525082Y-90845944D01*
X105987180Y-90537180D01*
X106250000Y-90143842D01*
X106512821Y-90537180D01*
X106974919Y-90845944D01*
X107520000Y-90954368D01*
X108065082Y-90845944D01*
X108527180Y-90537180D01*
X108790000Y-90143842D01*
X109052821Y-90537180D01*
X109514919Y-90845944D01*
X110060000Y-90954368D01*
X110605082Y-90845944D01*
X111067180Y-90537180D01*
X111330000Y-90143842D01*
X111592821Y-90537180D01*
X112054919Y-90845944D01*
X112600000Y-90954368D01*
X113145082Y-90845944D01*
X113607180Y-90537180D01*
X113870000Y-90143842D01*
X114132821Y-90537180D01*
X114594919Y-90845944D01*
X115140000Y-90954368D01*
X115685082Y-90845944D01*
X116147180Y-90537180D01*
X116410000Y-90143842D01*
X116672821Y-90537180D01*
X117134919Y-90845944D01*
X117680000Y-90954368D01*
X118225082Y-90845944D01*
X118687180Y-90537180D01*
X118995944Y-90075081D01*
X119077000Y-89667587D01*
X119077000Y-89092412D01*
X118995944Y-88684918D01*
X118687179Y-88222820D01*
X118225081Y-87914056D01*
X117680000Y-87805632D01*
X117134918Y-87914056D01*
X116672820Y-88222821D01*
X116410000Y-88616159D01*
X116147179Y-88222820D01*
X115685081Y-87914056D01*
X115140000Y-87805632D01*
X115051582Y-87823220D01*
X116584476Y-86290327D01*
X116647929Y-86247929D01*
X116690327Y-86184476D01*
X116690329Y-86184474D01*
X116790204Y-86035000D01*
X116815904Y-85996537D01*
X116860000Y-85774852D01*
X116860000Y-85774848D01*
X116874888Y-85700001D01*
X116860000Y-85625154D01*
X116860000Y-85579443D01*
X116994126Y-85635000D01*
X117405874Y-85635000D01*
X117786280Y-85477431D01*
X118077431Y-85186280D01*
X118235000Y-84805874D01*
X118235000Y-84647238D01*
X120330014Y-86742253D01*
X120421231Y-86878769D01*
X120962055Y-87240136D01*
X121438969Y-87335000D01*
X121599999Y-87367031D01*
X121761029Y-87335000D01*
X123838970Y-87335000D01*
X124000000Y-87367031D01*
X124161030Y-87335000D01*
X124161031Y-87335000D01*
X124637945Y-87240136D01*
X125178769Y-86878769D01*
X125269988Y-86742250D01*
X126077239Y-85935000D01*
X126861031Y-85935000D01*
X127337945Y-85840136D01*
X127878769Y-85478769D01*
X128240136Y-84937945D01*
X128367031Y-84300000D01*
X128240136Y-83662055D01*
X127878769Y-83121231D01*
X127337945Y-82759864D01*
X126861031Y-82665000D01*
X125561030Y-82665000D01*
X125400000Y-82632969D01*
X125238970Y-82665000D01*
X125238969Y-82665000D01*
X124762055Y-82759864D01*
X124535000Y-82911577D01*
X124535000Y-81861025D01*
X124567030Y-81699999D01*
X124535000Y-81538973D01*
X124535000Y-81538969D01*
X124440136Y-81062055D01*
X124078769Y-80521231D01*
X123942252Y-80430014D01*
X122767669Y-79255431D01*
X148565000Y-79255431D01*
X148565000Y-80144569D01*
X148905259Y-80966026D01*
X149533974Y-81594741D01*
X150355431Y-81935000D01*
X151244569Y-81935000D01*
X152066026Y-81594741D01*
X152694741Y-80966026D01*
X153035000Y-80144569D01*
X153035000Y-79255431D01*
X152694741Y-78433974D01*
X152066026Y-77805259D01*
X151244569Y-77465000D01*
X150355431Y-77465000D01*
X149533974Y-77805259D01*
X148905259Y-78433974D01*
X148565000Y-79255431D01*
X122767669Y-79255431D01*
X122669988Y-79157750D01*
X122578769Y-79021231D01*
X122037945Y-78659864D01*
X121561031Y-78565000D01*
X121561030Y-78565000D01*
X121400000Y-78532969D01*
X121238970Y-78565000D01*
X109697239Y-78565000D01*
X108048556Y-76916318D01*
X108083299Y-76901927D01*
X108261927Y-76723298D01*
X108358600Y-76489909D01*
X108358600Y-75785750D01*
X108199850Y-75627000D01*
X106987000Y-75627000D01*
X106987000Y-75647000D01*
X106733000Y-75647000D01*
X106733000Y-75627000D01*
X106713000Y-75627000D01*
X106713000Y-75373000D01*
X106733000Y-75373000D01*
X106733000Y-75353000D01*
X106987000Y-75353000D01*
X106987000Y-75373000D01*
X108199850Y-75373000D01*
X108358600Y-75214250D01*
X108358600Y-74633401D01*
X110609671Y-76884473D01*
X110652071Y-76947929D01*
X110903463Y-77115904D01*
X111125148Y-77160000D01*
X111125153Y-77160000D01*
X111200000Y-77174888D01*
X111274847Y-77160000D01*
X123425153Y-77160000D01*
X123500000Y-77174888D01*
X123574847Y-77160000D01*
X123574852Y-77160000D01*
X123796537Y-77115904D01*
X124047929Y-76947929D01*
X124090331Y-76884470D01*
X125684473Y-75290329D01*
X125747929Y-75247929D01*
X125915904Y-74996537D01*
X125960000Y-74774852D01*
X125960000Y-74774848D01*
X125974888Y-74700001D01*
X125960000Y-74625154D01*
X125960000Y-72527450D01*
X126251510Y-72846821D01*
X126780973Y-73094968D01*
X127013000Y-72974469D01*
X127013000Y-71767000D01*
X127267000Y-71767000D01*
X127267000Y-72974469D01*
X127499027Y-73094968D01*
X128028490Y-72846821D01*
X128410000Y-72428848D01*
X128791510Y-72846821D01*
X129320973Y-73094968D01*
X129553000Y-72974469D01*
X129553000Y-71767000D01*
X129807000Y-71767000D01*
X129807000Y-72974469D01*
X130039027Y-73094968D01*
X130568490Y-72846821D01*
X130950000Y-72428848D01*
X131331510Y-72846821D01*
X131860973Y-73094968D01*
X132093000Y-72974469D01*
X132093000Y-71767000D01*
X129807000Y-71767000D01*
X129553000Y-71767000D01*
X127267000Y-71767000D01*
X127013000Y-71767000D01*
X126993000Y-71767000D01*
X126993000Y-71513000D01*
X127013000Y-71513000D01*
X127013000Y-71493000D01*
X127267000Y-71493000D01*
X127267000Y-71513000D01*
X129553000Y-71513000D01*
X129553000Y-71493000D01*
X129807000Y-71493000D01*
X129807000Y-71513000D01*
X132093000Y-71513000D01*
X132093000Y-71493000D01*
X132347000Y-71493000D01*
X132347000Y-71513000D01*
X132367000Y-71513000D01*
X132367000Y-71767000D01*
X132347000Y-71767000D01*
X132347000Y-72974469D01*
X132579027Y-73094968D01*
X133108490Y-72846821D01*
X133392251Y-72535939D01*
X133581232Y-72818769D01*
X134122056Y-73180136D01*
X134760000Y-73307031D01*
X135397945Y-73180136D01*
X135938769Y-72818769D01*
X136030000Y-72682232D01*
X136121231Y-72818769D01*
X136662055Y-73180136D01*
X137138969Y-73275000D01*
X137300000Y-73307031D01*
X137461031Y-73275000D01*
X139678969Y-73275000D01*
X139840000Y-73307031D01*
X140001031Y-73275000D01*
X142218969Y-73275000D01*
X142380000Y-73307031D01*
X143017945Y-73180136D01*
X143558769Y-72818769D01*
X143650000Y-72682232D01*
X143741231Y-72818769D01*
X144282055Y-73180136D01*
X144758969Y-73275000D01*
X144920000Y-73307031D01*
X145081031Y-73275000D01*
X147298969Y-73275000D01*
X147460000Y-73307031D01*
X147621031Y-73275000D01*
X149838969Y-73275000D01*
X150000000Y-73307031D01*
X150637945Y-73180136D01*
X151178769Y-72818769D01*
X151540136Y-72277945D01*
X151635000Y-71801031D01*
X151667031Y-71640000D01*
X151635000Y-71478969D01*
X151635000Y-69261031D01*
X151667031Y-69100000D01*
X151540136Y-68462055D01*
X151511040Y-68418510D01*
X151511040Y-68236400D01*
X151461757Y-67988635D01*
X151321409Y-67778591D01*
X151111365Y-67638243D01*
X150863600Y-67588960D01*
X150681490Y-67588960D01*
X150637945Y-67559864D01*
X150161031Y-67465000D01*
X150000000Y-67432969D01*
X149838969Y-67465000D01*
X147621031Y-67465000D01*
X147460000Y-67432969D01*
X147298969Y-67465000D01*
X145081031Y-67465000D01*
X144920000Y-67432969D01*
X144758969Y-67465000D01*
X144282055Y-67559864D01*
X143741231Y-67921231D01*
X143650000Y-68057768D01*
X143558769Y-67921231D01*
X143017945Y-67559864D01*
X142541031Y-67465000D01*
X142380000Y-67432969D01*
X142218969Y-67465000D01*
X140001031Y-67465000D01*
X139840000Y-67432969D01*
X139678969Y-67465000D01*
X137461031Y-67465000D01*
X137300000Y-67432969D01*
X137138969Y-67465000D01*
X136662055Y-67559864D01*
X136121231Y-67921231D01*
X136030000Y-68057768D01*
X135938769Y-67921231D01*
X135397945Y-67559864D01*
X134921031Y-67465000D01*
X134760000Y-67432969D01*
X134598969Y-67465000D01*
X132058969Y-67465000D01*
X131582055Y-67559864D01*
X131041231Y-67921231D01*
X130867977Y-68180525D01*
X130760430Y-68019570D01*
X130264725Y-67688350D01*
X129827598Y-67601400D01*
X129532402Y-67601400D01*
X129302026Y-67647225D01*
X128670331Y-67015530D01*
X128627929Y-66952071D01*
X128376537Y-66784096D01*
X128154852Y-66740000D01*
X128154847Y-66740000D01*
X128080000Y-66725112D01*
X128005153Y-66740000D01*
X125674848Y-66740000D01*
X125600000Y-66725112D01*
X125525152Y-66740000D01*
X125525148Y-66740000D01*
X125303463Y-66784096D01*
X125052071Y-66952071D01*
X125009671Y-67015527D01*
X123815530Y-68209669D01*
X123752071Y-68252071D01*
X123584096Y-68503464D01*
X123540000Y-68725149D01*
X123540000Y-68725153D01*
X123525112Y-68800000D01*
X123540000Y-68874847D01*
X123540001Y-74285197D01*
X122685199Y-75140000D01*
X112114803Y-75140000D01*
X109490331Y-72515530D01*
X109447929Y-72452071D01*
X109196537Y-72284096D01*
X108974852Y-72240000D01*
X108974847Y-72240000D01*
X108900000Y-72225112D01*
X108825153Y-72240000D01*
X99274847Y-72240000D01*
X99200000Y-72225112D01*
X99125153Y-72240000D01*
X99125148Y-72240000D01*
X98903463Y-72284096D01*
X98652071Y-72452071D01*
X98609671Y-72515527D01*
X97077974Y-74047225D01*
X96847598Y-74001400D01*
X96552402Y-74001400D01*
X96115275Y-74088350D01*
X95619570Y-74419570D01*
X95288350Y-74915275D01*
X95172041Y-75500000D01*
X92193179Y-75500000D01*
X92193179Y-71999224D01*
X117812510Y-71991345D01*
X117854274Y-72134982D01*
X117870005Y-72165249D01*
X117876058Y-72198815D01*
X117932922Y-72343378D01*
X117951903Y-72372918D01*
X117961368Y-72406733D01*
X118028900Y-72539915D01*
X118051114Y-72568207D01*
X118064115Y-72601748D01*
X118142189Y-72724597D01*
X118167661Y-72751264D01*
X118184331Y-72784155D01*
X118273506Y-72897774D01*
X118302103Y-72922305D01*
X118322455Y-72954016D01*
X118422387Y-73057710D01*
X118453649Y-73079445D01*
X118477385Y-73109212D01*
X118587165Y-73201925D01*
X118620575Y-73220393D01*
X118647313Y-73247640D01*
X118766781Y-73329106D01*
X118802107Y-73344130D01*
X118831678Y-73368607D01*
X118962201Y-73439079D01*
X118999422Y-73450540D01*
X119031858Y-73472094D01*
X119174474Y-73530741D01*
X119213582Y-73538416D01*
X119248949Y-73556788D01*
X119405194Y-73602182D01*
X119446233Y-73605736D01*
X119484664Y-73620557D01*
X119655345Y-73650158D01*
X119699192Y-73649077D01*
X119741691Y-73659919D01*
X119934431Y-73670224D01*
X119978957Y-73663816D01*
X120023571Y-73669577D01*
X120212074Y-73656751D01*
X120253049Y-73645663D01*
X120295498Y-73646255D01*
X120466323Y-73614747D01*
X120502887Y-73600196D01*
X120542070Y-73596578D01*
X120696708Y-73550697D01*
X120729829Y-73533252D01*
X120766568Y-73526076D01*
X120909096Y-73467615D01*
X120939620Y-73447372D01*
X120974703Y-73436844D01*
X121107530Y-73366357D01*
X121135482Y-73343557D01*
X121168861Y-73329889D01*
X121289919Y-73249708D01*
X121315416Y-73224416D01*
X121347183Y-73207662D01*
X121460202Y-73115952D01*
X121483024Y-73088455D01*
X121512883Y-73068826D01*
X121613771Y-72969440D01*
X121633670Y-72940137D01*
X121661279Y-72917952D01*
X121753037Y-72808469D01*
X121770073Y-72777373D01*
X121795472Y-72752628D01*
X121877422Y-72633377D01*
X121891470Y-72600676D01*
X121914468Y-72573516D01*
X121987100Y-72442524D01*
X121997904Y-72408788D01*
X122018118Y-72379696D01*
X122079327Y-72239215D01*
X122086806Y-72204895D01*
X122104036Y-72174286D01*
X122154323Y-72020664D01*
X122158451Y-71986429D01*
X122172510Y-71954938D01*
X122209568Y-71791930D01*
X122210481Y-71758370D01*
X122221344Y-71726608D01*
X122245006Y-71550019D01*
X122242910Y-71516868D01*
X122250812Y-71484600D01*
X122256956Y-71344465D01*
X122260121Y-71328554D01*
X122260121Y-66080130D01*
X155228753Y-66080130D01*
X155228752Y-83244600D01*
X155228752Y-83244600D01*
G37*
X155228752Y-83244600D02*
X153470719Y-83244600D01*
X153452019Y-83248320D01*
X153442244Y-83247107D01*
X153254847Y-83260796D01*
X153218106Y-83270935D01*
X153180001Y-83270144D01*
X153005505Y-83301102D01*
X152969400Y-83315186D01*
X152930782Y-83318424D01*
X152774328Y-83363412D01*
X152739964Y-83381143D01*
X152701972Y-83388364D01*
X152559119Y-83446114D01*
X152526706Y-83467374D01*
X152489587Y-83478542D01*
X152358410Y-83548275D01*
X152328461Y-83572740D01*
X152292791Y-83587671D01*
X152173235Y-83668203D01*
X152145346Y-83696301D01*
X152110664Y-83715388D01*
X151995038Y-83812671D01*
X151970117Y-83843807D01*
X151937439Y-83866674D01*
X151836457Y-83972101D01*
X151815595Y-84004827D01*
X151786292Y-84030277D01*
X151696883Y-84145646D01*
X151679877Y-84179718D01*
X151653832Y-84207503D01*
X151577026Y-84330908D01*
X151563647Y-84366413D01*
X151540655Y-84396603D01*
X151474385Y-84532226D01*
X151464541Y-84569505D01*
X151444488Y-84602434D01*
X151390652Y-84749623D01*
X151384536Y-84788944D01*
X151367594Y-84824954D01*
X151327517Y-84986339D01*
X151325534Y-85028445D01*
X151312030Y-85068376D01*
X151288802Y-85246374D01*
X151291883Y-85292579D01*
X151282631Y-85337953D01*
X151281671Y-85537905D01*
X151290680Y-85584363D01*
X151287209Y-85631557D01*
X151309482Y-85811834D01*
X151323376Y-85853862D01*
X151325410Y-85898078D01*
X151365049Y-86058445D01*
X151383104Y-86096928D01*
X151389901Y-86138892D01*
X151444733Y-86285930D01*
X151466712Y-86321515D01*
X151478002Y-86361785D01*
X151545720Y-86495201D01*
X151571539Y-86528057D01*
X151587270Y-86566767D01*
X151668728Y-86690466D01*
X151697984Y-86720117D01*
X151717889Y-86756703D01*
X151809434Y-86866582D01*
X151841516Y-86892516D01*
X151865133Y-86926344D01*
X151968623Y-87025689D01*
X152003090Y-87047714D01*
X152030052Y-87078472D01*
X152143561Y-87165610D01*
X152179640Y-87183412D01*
X152209278Y-87210618D01*
X152334418Y-87286705D01*
X152371655Y-87300295D01*
X152403547Y-87323834D01*
X152541234Y-87388567D01*
X152579253Y-87397997D01*
X152613046Y-87417810D01*
X152767052Y-87471239D01*
X152804463Y-87476419D01*
X152808108Y-87478084D01*
X152808107Y-96624245D01*
X152802932Y-96625592D01*
X152768650Y-96642196D01*
X152731054Y-96648299D01*
X152584811Y-96702892D01*
X152551610Y-96723414D01*
X152513953Y-96733678D01*
X152379890Y-96800508D01*
X152348388Y-96824896D01*
X152311292Y-96839432D01*
X152188458Y-96918132D01*
X152159360Y-96946131D01*
X152123585Y-96964860D01*
X152011810Y-97054996D01*
X151985516Y-97086479D01*
X151951497Y-97109398D01*
X151849036Y-97212641D01*
X151826405Y-97246791D01*
X151795157Y-97273286D01*
X151706056Y-97385481D01*
X151687388Y-97421796D01*
X151659335Y-97451462D01*
X151580476Y-97576932D01*
X151565756Y-97615482D01*
X151540904Y-97648429D01*
X151474087Y-97786794D01*
X151463652Y-97827069D01*
X151442472Y-97862882D01*
X151389428Y-98013930D01*
X151383468Y-98055810D01*
X151366218Y-98094435D01*
X151328622Y-98259713D01*
X151327424Y-98303569D01*
X151314388Y-98345459D01*
X151295166Y-98527261D01*
X151299376Y-98573394D01*
X151291234Y-98618999D01*
X151295115Y-98816277D01*
X151304837Y-98860580D01*
X151302375Y-98905871D01*
X151327521Y-99081712D01*
X151341389Y-99121119D01*
X151343824Y-99162823D01*
X151385450Y-99322729D01*
X151402820Y-99358595D01*
X151409393Y-99397898D01*
X151464665Y-99543833D01*
X151485261Y-99576802D01*
X151495647Y-99614265D01*
X151563230Y-99748378D01*
X151586939Y-99778729D01*
X151601016Y-99814578D01*
X151679670Y-99937145D01*
X151706461Y-99964946D01*
X151724227Y-99999223D01*
X151814246Y-100111791D01*
X151844146Y-100136970D01*
X151865681Y-100169589D01*
X151967116Y-100272153D01*
X152000177Y-100294509D01*
X152025614Y-100325263D01*
X152140261Y-100418617D01*
X152175448Y-100437251D01*
X152203965Y-100465039D01*
X152325572Y-100544034D01*
X152362775Y-100558882D01*
X152394307Y-100583582D01*
X152533283Y-100653853D01*
X152571992Y-100664641D01*
X152606120Y-100685857D01*
X152753908Y-100741459D01*
X152792705Y-100747859D01*
X152828108Y-100764972D01*
X152990186Y-100807031D01*
X153028749Y-100809253D01*
X153065087Y-100822360D01*
X153241274Y-100848958D01*
X153278771Y-100847212D01*
X153315189Y-100856321D01*
X153453028Y-100863043D01*
X153470719Y-100866562D01*
X155101163Y-100866562D01*
X155101162Y-101398576D01*
X92131636Y-101398576D01*
X92131636Y-97533585D01*
X94498837Y-97228697D01*
X94501310Y-97227865D01*
X94501916Y-97227900D01*
X94679535Y-97203031D01*
X94692262Y-97198594D01*
X94705736Y-97198879D01*
X94875724Y-97168788D01*
X94896705Y-97160612D01*
X94919205Y-97159728D01*
X95081044Y-97120870D01*
X95110566Y-97107259D01*
X95142813Y-97103150D01*
X95295904Y-97051890D01*
X95333697Y-97030279D01*
X95375939Y-97019755D01*
X95512048Y-96955593D01*
X95556821Y-96922476D01*
X95608234Y-96901057D01*
X95728612Y-96820267D01*
X95776814Y-96771868D01*
X95833961Y-96734437D01*
X95935059Y-96635176D01*
X95979745Y-96569607D01*
X96035287Y-96512949D01*
X96117016Y-96387957D01*
X96147870Y-96311320D01*
X96191117Y-96240936D01*
X96245240Y-96094768D01*
X96246320Y-96088000D01*
X98490560Y-96088000D01*
X98490560Y-97912000D01*
X98539843Y-98159765D01*
X98680191Y-98369809D01*
X98890235Y-98510157D01*
X99138000Y-98559440D01*
X100662000Y-98559440D01*
X100909765Y-98510157D01*
X101119809Y-98369809D01*
X101260157Y-98159765D01*
X101300162Y-97958643D01*
X101432821Y-98157180D01*
X101894919Y-98465944D01*
X102440000Y-98574368D01*
X102985082Y-98465944D01*
X103447180Y-98157180D01*
X103710000Y-97763842D01*
X103972821Y-98157180D01*
X104434919Y-98465944D01*
X104980000Y-98574368D01*
X105525082Y-98465944D01*
X105987180Y-98157180D01*
X106250000Y-97763842D01*
X106512821Y-98157180D01*
X106974919Y-98465944D01*
X107520000Y-98574368D01*
X108065082Y-98465944D01*
X108527180Y-98157180D01*
X108790000Y-97763842D01*
X109052821Y-98157180D01*
X109514919Y-98465944D01*
X110060000Y-98574368D01*
X110605082Y-98465944D01*
X111067180Y-98157180D01*
X111330000Y-97763842D01*
X111592821Y-98157180D01*
X112054919Y-98465944D01*
X112600000Y-98574368D01*
X113145082Y-98465944D01*
X113607180Y-98157180D01*
X113870000Y-97763842D01*
X114132821Y-98157180D01*
X114594919Y-98465944D01*
X115140000Y-98574368D01*
X115685082Y-98465944D01*
X116147180Y-98157180D01*
X116410000Y-97763842D01*
X116672821Y-98157180D01*
X117134919Y-98465944D01*
X117680000Y-98574368D01*
X118225082Y-98465944D01*
X118687180Y-98157180D01*
X118995944Y-97695081D01*
X119077000Y-97287587D01*
X119077000Y-96712412D01*
X118995944Y-96304918D01*
X118687179Y-95842820D01*
X118225081Y-95534056D01*
X117680000Y-95425632D01*
X117134918Y-95534056D01*
X116672820Y-95842821D01*
X116410000Y-96236159D01*
X116147179Y-95842820D01*
X115685081Y-95534056D01*
X115140000Y-95425632D01*
X114594918Y-95534056D01*
X114132820Y-95842821D01*
X113870000Y-96236159D01*
X113607179Y-95842820D01*
X113145081Y-95534056D01*
X112600000Y-95425632D01*
X112054918Y-95534056D01*
X111592820Y-95842821D01*
X111330000Y-96236159D01*
X111067179Y-95842820D01*
X110605081Y-95534056D01*
X110060000Y-95425632D01*
X109514918Y-95534056D01*
X109052820Y-95842821D01*
X108790000Y-96236159D01*
X108527179Y-95842820D01*
X108065081Y-95534056D01*
X107520000Y-95425632D01*
X106974918Y-95534056D01*
X106512820Y-95842821D01*
X106250000Y-96236159D01*
X105987179Y-95842820D01*
X105525081Y-95534056D01*
X104980000Y-95425632D01*
X104434918Y-95534056D01*
X103972820Y-95842821D01*
X103710000Y-96236159D01*
X103447179Y-95842820D01*
X102985081Y-95534056D01*
X102440000Y-95425632D01*
X101894918Y-95534056D01*
X101432820Y-95842821D01*
X101300162Y-96041357D01*
X101260157Y-95840235D01*
X101119809Y-95630191D01*
X100909765Y-95489843D01*
X100662000Y-95440560D01*
X99138000Y-95440560D01*
X98890235Y-95489843D01*
X98680191Y-95630191D01*
X98539843Y-95840235D01*
X98490560Y-96088000D01*
X96246320Y-96088000D01*
X96257307Y-96019163D01*
X96283068Y-95947064D01*
X96308870Y-95772574D01*
X96306986Y-95734581D01*
X96318371Y-95677345D01*
X96318371Y-93955431D01*
X127465000Y-93955431D01*
X127465000Y-94844569D01*
X127805259Y-95666026D01*
X128433974Y-96294741D01*
X129255431Y-96635000D01*
X130144569Y-96635000D01*
X130966026Y-96294741D01*
X131594741Y-95666026D01*
X131935000Y-94844569D01*
X131935000Y-93955431D01*
X131594741Y-93133974D01*
X130966026Y-92505259D01*
X130144569Y-92165000D01*
X129255431Y-92165000D01*
X128433974Y-92505259D01*
X127805259Y-93133974D01*
X127465000Y-93955431D01*
X96318371Y-93955431D01*
X96318371Y-87025446D01*
X96307570Y-86971145D01*
X96309397Y-86936404D01*
X96283763Y-86759384D01*
X96258119Y-86686926D01*
X96246170Y-86611001D01*
X96192385Y-86464768D01*
X96150000Y-86395449D01*
X96120106Y-86319906D01*
X96041627Y-86198315D01*
X95987175Y-86142104D01*
X95943679Y-86077043D01*
X95843575Y-85976989D01*
X95786268Y-85938719D01*
X95737997Y-85889540D01*
X95617998Y-85807733D01*
X95565629Y-85785468D01*
X95520012Y-85751446D01*
X95380948Y-85685218D01*
X95338269Y-85674406D01*
X95300103Y-85652449D01*
X95150259Y-85601841D01*
X95117870Y-85597628D01*
X95088242Y-85583889D01*
X94924573Y-85544211D01*
X94901627Y-85543258D01*
X94880236Y-85534899D01*
X94709643Y-85504527D01*
X94695882Y-85504804D01*
X94682888Y-85500271D01*
X94570051Y-85484447D01*
X94560380Y-85481194D01*
X92193179Y-85176305D01*
X92193179Y-75500000D01*
X95172041Y-75500000D01*
X95288350Y-76084725D01*
X95619570Y-76580430D01*
X95903281Y-76770000D01*
X95619570Y-76959570D01*
X95288350Y-77455275D01*
X95172041Y-78040000D01*
X95288350Y-78624725D01*
X95619570Y-79120430D01*
X95940001Y-79334535D01*
X95940000Y-84525153D01*
X95925112Y-84600000D01*
X95940000Y-84674847D01*
X95940000Y-84674851D01*
X95984096Y-84896536D01*
X96152071Y-85147929D01*
X96215530Y-85190331D01*
X99009673Y-87984476D01*
X99052071Y-88047929D01*
X99103317Y-88082171D01*
X98892820Y-88222821D01*
X98584056Y-88684919D01*
X98503000Y-89092413D01*
X98503000Y-89667588D01*
X98584056Y-90075082D01*
X98892821Y-90537180D01*
X99354919Y-90845944D01*
X99900000Y-90954368D01*
X100445082Y-90845944D01*
X100907180Y-90537180D01*
X101170000Y-90143842D01*
X101432821Y-90537180D01*
X101894919Y-90845944D01*
X102440000Y-90954368D01*
X102985082Y-90845944D01*
X103447180Y-90537180D01*
X103710000Y-90143842D01*
X103972821Y-90537180D01*
X104434919Y-90845944D01*
X104980000Y-90954368D01*
X105525082Y-90845944D01*
X105987180Y-90537180D01*
X106250000Y-90143842D01*
X106512821Y-90537180D01*
X106974919Y-90845944D01*
X107520000Y-90954368D01*
X108065082Y-90845944D01*
X108527180Y-90537180D01*
X108790000Y-90143842D01*
X109052821Y-90537180D01*
X109514919Y-90845944D01*
X110060000Y-90954368D01*
X110605082Y-90845944D01*
X111067180Y-90537180D01*
X111330000Y-90143842D01*
X111592821Y-90537180D01*
X112054919Y-90845944D01*
X112600000Y-90954368D01*
X113145082Y-90845944D01*
X113607180Y-90537180D01*
X113870000Y-90143842D01*
X114132821Y-90537180D01*
X114594919Y-90845944D01*
X115140000Y-90954368D01*
X115685082Y-90845944D01*
X116147180Y-90537180D01*
X116410000Y-90143842D01*
X116672821Y-90537180D01*
X117134919Y-90845944D01*
X117680000Y-90954368D01*
X118225082Y-90845944D01*
X118687180Y-90537180D01*
X118995944Y-90075081D01*
X119077000Y-89667587D01*
X119077000Y-89092412D01*
X118995944Y-88684918D01*
X118687179Y-88222820D01*
X118225081Y-87914056D01*
X117680000Y-87805632D01*
X117134918Y-87914056D01*
X116672820Y-88222821D01*
X116410000Y-88616159D01*
X116147179Y-88222820D01*
X115685081Y-87914056D01*
X115140000Y-87805632D01*
X115051582Y-87823220D01*
X116584476Y-86290327D01*
X116647929Y-86247929D01*
X116690327Y-86184476D01*
X116690329Y-86184474D01*
X116790204Y-86035000D01*
X116815904Y-85996537D01*
X116860000Y-85774852D01*
X116860000Y-85774848D01*
X116874888Y-85700001D01*
X116860000Y-85625154D01*
X116860000Y-85579443D01*
X116994126Y-85635000D01*
X117405874Y-85635000D01*
X117786280Y-85477431D01*
X118077431Y-85186280D01*
X118235000Y-84805874D01*
X118235000Y-84647238D01*
X120330014Y-86742253D01*
X120421231Y-86878769D01*
X120962055Y-87240136D01*
X121438969Y-87335000D01*
X121599999Y-87367031D01*
X121761029Y-87335000D01*
X123838970Y-87335000D01*
X124000000Y-87367031D01*
X124161030Y-87335000D01*
X124161031Y-87335000D01*
X124637945Y-87240136D01*
X125178769Y-86878769D01*
X125269988Y-86742250D01*
X126077239Y-85935000D01*
X126861031Y-85935000D01*
X127337945Y-85840136D01*
X127878769Y-85478769D01*
X128240136Y-84937945D01*
X128367031Y-84300000D01*
X128240136Y-83662055D01*
X127878769Y-83121231D01*
X127337945Y-82759864D01*
X126861031Y-82665000D01*
X125561030Y-82665000D01*
X125400000Y-82632969D01*
X125238970Y-82665000D01*
X125238969Y-82665000D01*
X124762055Y-82759864D01*
X124535000Y-82911577D01*
X124535000Y-81861025D01*
X124567030Y-81699999D01*
X124535000Y-81538973D01*
X124535000Y-81538969D01*
X124440136Y-81062055D01*
X124078769Y-80521231D01*
X123942252Y-80430014D01*
X122767669Y-79255431D01*
X148565000Y-79255431D01*
X148565000Y-80144569D01*
X148905259Y-80966026D01*
X149533974Y-81594741D01*
X150355431Y-81935000D01*
X151244569Y-81935000D01*
X152066026Y-81594741D01*
X152694741Y-80966026D01*
X153035000Y-80144569D01*
X153035000Y-79255431D01*
X152694741Y-78433974D01*
X152066026Y-77805259D01*
X151244569Y-77465000D01*
X150355431Y-77465000D01*
X149533974Y-77805259D01*
X148905259Y-78433974D01*
X148565000Y-79255431D01*
X122767669Y-79255431D01*
X122669988Y-79157750D01*
X122578769Y-79021231D01*
X122037945Y-78659864D01*
X121561031Y-78565000D01*
X121561030Y-78565000D01*
X121400000Y-78532969D01*
X121238970Y-78565000D01*
X109697239Y-78565000D01*
X108048556Y-76916318D01*
X108083299Y-76901927D01*
X108261927Y-76723298D01*
X108358600Y-76489909D01*
X108358600Y-75785750D01*
X108199850Y-75627000D01*
X106987000Y-75627000D01*
X106987000Y-75647000D01*
X106733000Y-75647000D01*
X106733000Y-75627000D01*
X106713000Y-75627000D01*
X106713000Y-75373000D01*
X106733000Y-75373000D01*
X106733000Y-75353000D01*
X106987000Y-75353000D01*
X106987000Y-75373000D01*
X108199850Y-75373000D01*
X108358600Y-75214250D01*
X108358600Y-74633401D01*
X110609671Y-76884473D01*
X110652071Y-76947929D01*
X110903463Y-77115904D01*
X111125148Y-77160000D01*
X111125153Y-77160000D01*
X111200000Y-77174888D01*
X111274847Y-77160000D01*
X123425153Y-77160000D01*
X123500000Y-77174888D01*
X123574847Y-77160000D01*
X123574852Y-77160000D01*
X123796537Y-77115904D01*
X124047929Y-76947929D01*
X124090331Y-76884470D01*
X125684473Y-75290329D01*
X125747929Y-75247929D01*
X125915904Y-74996537D01*
X125960000Y-74774852D01*
X125960000Y-74774848D01*
X125974888Y-74700001D01*
X125960000Y-74625154D01*
X125960000Y-72527450D01*
X126251510Y-72846821D01*
X126780973Y-73094968D01*
X127013000Y-72974469D01*
X127013000Y-71767000D01*
X127267000Y-71767000D01*
X127267000Y-72974469D01*
X127499027Y-73094968D01*
X128028490Y-72846821D01*
X128410000Y-72428848D01*
X128791510Y-72846821D01*
X129320973Y-73094968D01*
X129553000Y-72974469D01*
X129553000Y-71767000D01*
X129807000Y-71767000D01*
X129807000Y-72974469D01*
X130039027Y-73094968D01*
X130568490Y-72846821D01*
X130950000Y-72428848D01*
X131331510Y-72846821D01*
X131860973Y-73094968D01*
X132093000Y-72974469D01*
X132093000Y-71767000D01*
X129807000Y-71767000D01*
X129553000Y-71767000D01*
X127267000Y-71767000D01*
X127013000Y-71767000D01*
X126993000Y-71767000D01*
X126993000Y-71513000D01*
X127013000Y-71513000D01*
X127013000Y-71493000D01*
X127267000Y-71493000D01*
X127267000Y-71513000D01*
X129553000Y-71513000D01*
X129553000Y-71493000D01*
X129807000Y-71493000D01*
X129807000Y-71513000D01*
X132093000Y-71513000D01*
X132093000Y-71493000D01*
X132347000Y-71493000D01*
X132347000Y-71513000D01*
X132367000Y-71513000D01*
X132367000Y-71767000D01*
X132347000Y-71767000D01*
X132347000Y-72974469D01*
X132579027Y-73094968D01*
X133108490Y-72846821D01*
X133392251Y-72535939D01*
X133581232Y-72818769D01*
X134122056Y-73180136D01*
X134760000Y-73307031D01*
X135397945Y-73180136D01*
X135938769Y-72818769D01*
X136030000Y-72682232D01*
X136121231Y-72818769D01*
X136662055Y-73180136D01*
X137138969Y-73275000D01*
X137300000Y-73307031D01*
X137461031Y-73275000D01*
X139678969Y-73275000D01*
X139840000Y-73307031D01*
X140001031Y-73275000D01*
X142218969Y-73275000D01*
X142380000Y-73307031D01*
X143017945Y-73180136D01*
X143558769Y-72818769D01*
X143650000Y-72682232D01*
X143741231Y-72818769D01*
X144282055Y-73180136D01*
X144758969Y-73275000D01*
X144920000Y-73307031D01*
X145081031Y-73275000D01*
X147298969Y-73275000D01*
X147460000Y-73307031D01*
X147621031Y-73275000D01*
X149838969Y-73275000D01*
X150000000Y-73307031D01*
X150637945Y-73180136D01*
X151178769Y-72818769D01*
X151540136Y-72277945D01*
X151635000Y-71801031D01*
X151667031Y-71640000D01*
X151635000Y-71478969D01*
X151635000Y-69261031D01*
X151667031Y-69100000D01*
X151540136Y-68462055D01*
X151511040Y-68418510D01*
X151511040Y-68236400D01*
X151461757Y-67988635D01*
X151321409Y-67778591D01*
X151111365Y-67638243D01*
X150863600Y-67588960D01*
X150681490Y-67588960D01*
X150637945Y-67559864D01*
X150161031Y-67465000D01*
X150000000Y-67432969D01*
X149838969Y-67465000D01*
X147621031Y-67465000D01*
X147460000Y-67432969D01*
X147298969Y-67465000D01*
X145081031Y-67465000D01*
X144920000Y-67432969D01*
X144758969Y-67465000D01*
X144282055Y-67559864D01*
X143741231Y-67921231D01*
X143650000Y-68057768D01*
X143558769Y-67921231D01*
X143017945Y-67559864D01*
X142541031Y-67465000D01*
X142380000Y-67432969D01*
X142218969Y-67465000D01*
X140001031Y-67465000D01*
X139840000Y-67432969D01*
X139678969Y-67465000D01*
X137461031Y-67465000D01*
X137300000Y-67432969D01*
X137138969Y-67465000D01*
X136662055Y-67559864D01*
X136121231Y-67921231D01*
X136030000Y-68057768D01*
X135938769Y-67921231D01*
X135397945Y-67559864D01*
X134921031Y-67465000D01*
X134760000Y-67432969D01*
X134598969Y-67465000D01*
X132058969Y-67465000D01*
X131582055Y-67559864D01*
X131041231Y-67921231D01*
X130867977Y-68180525D01*
X130760430Y-68019570D01*
X130264725Y-67688350D01*
X129827598Y-67601400D01*
X129532402Y-67601400D01*
X129302026Y-67647225D01*
X128670331Y-67015530D01*
X128627929Y-66952071D01*
X128376537Y-66784096D01*
X128154852Y-66740000D01*
X128154847Y-66740000D01*
X128080000Y-66725112D01*
X128005153Y-66740000D01*
X125674848Y-66740000D01*
X125600000Y-66725112D01*
X125525152Y-66740000D01*
X125525148Y-66740000D01*
X125303463Y-66784096D01*
X125052071Y-66952071D01*
X125009671Y-67015527D01*
X123815530Y-68209669D01*
X123752071Y-68252071D01*
X123584096Y-68503464D01*
X123540000Y-68725149D01*
X123540000Y-68725153D01*
X123525112Y-68800000D01*
X123540000Y-68874847D01*
X123540001Y-74285197D01*
X122685199Y-75140000D01*
X112114803Y-75140000D01*
X109490331Y-72515530D01*
X109447929Y-72452071D01*
X109196537Y-72284096D01*
X108974852Y-72240000D01*
X108974847Y-72240000D01*
X108900000Y-72225112D01*
X108825153Y-72240000D01*
X99274847Y-72240000D01*
X99200000Y-72225112D01*
X99125153Y-72240000D01*
X99125148Y-72240000D01*
X98903463Y-72284096D01*
X98652071Y-72452071D01*
X98609671Y-72515527D01*
X97077974Y-74047225D01*
X96847598Y-74001400D01*
X96552402Y-74001400D01*
X96115275Y-74088350D01*
X95619570Y-74419570D01*
X95288350Y-74915275D01*
X95172041Y-75500000D01*
X92193179Y-75500000D01*
X92193179Y-71999224D01*
X117812510Y-71991345D01*
X117854274Y-72134982D01*
X117870005Y-72165249D01*
X117876058Y-72198815D01*
X117932922Y-72343378D01*
X117951903Y-72372918D01*
X117961368Y-72406733D01*
X118028900Y-72539915D01*
X118051114Y-72568207D01*
X118064115Y-72601748D01*
X118142189Y-72724597D01*
X118167661Y-72751264D01*
X118184331Y-72784155D01*
X118273506Y-72897774D01*
X118302103Y-72922305D01*
X118322455Y-72954016D01*
X118422387Y-73057710D01*
X118453649Y-73079445D01*
X118477385Y-73109212D01*
X118587165Y-73201925D01*
X118620575Y-73220393D01*
X118647313Y-73247640D01*
X118766781Y-73329106D01*
X118802107Y-73344130D01*
X118831678Y-73368607D01*
X118962201Y-73439079D01*
X118999422Y-73450540D01*
X119031858Y-73472094D01*
X119174474Y-73530741D01*
X119213582Y-73538416D01*
X119248949Y-73556788D01*
X119405194Y-73602182D01*
X119446233Y-73605736D01*
X119484664Y-73620557D01*
X119655345Y-73650158D01*
X119699192Y-73649077D01*
X119741691Y-73659919D01*
X119934431Y-73670224D01*
X119978957Y-73663816D01*
X120023571Y-73669577D01*
X120212074Y-73656751D01*
X120253049Y-73645663D01*
X120295498Y-73646255D01*
X120466323Y-73614747D01*
X120502887Y-73600196D01*
X120542070Y-73596578D01*
X120696708Y-73550697D01*
X120729829Y-73533252D01*
X120766568Y-73526076D01*
X120909096Y-73467615D01*
X120939620Y-73447372D01*
X120974703Y-73436844D01*
X121107530Y-73366357D01*
X121135482Y-73343557D01*
X121168861Y-73329889D01*
X121289919Y-73249708D01*
X121315416Y-73224416D01*
X121347183Y-73207662D01*
X121460202Y-73115952D01*
X121483024Y-73088455D01*
X121512883Y-73068826D01*
X121613771Y-72969440D01*
X121633670Y-72940137D01*
X121661279Y-72917952D01*
X121753037Y-72808469D01*
X121770073Y-72777373D01*
X121795472Y-72752628D01*
X121877422Y-72633377D01*
X121891470Y-72600676D01*
X121914468Y-72573516D01*
X121987100Y-72442524D01*
X121997904Y-72408788D01*
X122018118Y-72379696D01*
X122079327Y-72239215D01*
X122086806Y-72204895D01*
X122104036Y-72174286D01*
X122154323Y-72020664D01*
X122158451Y-71986429D01*
X122172510Y-71954938D01*
X122209568Y-71791930D01*
X122210481Y-71758370D01*
X122221344Y-71726608D01*
X122245006Y-71550019D01*
X122242910Y-71516868D01*
X122250812Y-71484600D01*
X122256956Y-71344465D01*
X122260121Y-71328554D01*
X122260121Y-66080130D01*
X155228753Y-66080130D01*
X155228752Y-83244600D01*
G04 #@! TD*
M02*
