G04 #@! TF.GenerationSoftware,KiCad,Pcbnew,(6.0.0-rc1-dev-557-ge985f797c)*
G04 #@! TF.CreationDate,2018-12-31T20:35:23+01:00*
G04 #@! TF.ProjectId,MAN Adapterplatine,4D414E2041646170746572706C617469,1.0*
G04 #@! TF.SameCoordinates,Original*
G04 #@! TF.FileFunction,Profile,NP*
%FSLAX46Y46*%
G04 Gerber Fmt 4.6, Leading zero omitted, Abs format (unit mm)*
G04 Created by KiCad (PCBNEW (6.0.0-rc1-dev-557-ge985f797c)) date 12/31/18 20:35:23*
%MOMM*%
%LPD*%
G01*
G04 APERTURE LIST*
%ADD10C,0.200000*%
G04 APERTURE END LIST*
D10*
X153543107Y-83979600D02*
X155963752Y-83979600D01*
X121525121Y-65345130D02*
X121525121Y-71256166D01*
X155963752Y-83979600D02*
X155963752Y-65345130D01*
X121525121Y-71256166D02*
X121516517Y-71452405D01*
X121516517Y-71452405D02*
X121492855Y-71628994D01*
X121492855Y-71628994D02*
X121455797Y-71792003D01*
X121455797Y-71792003D02*
X121405509Y-71945626D01*
X121405509Y-71945626D02*
X121344300Y-72086107D01*
X121344300Y-72086107D02*
X121271668Y-72217099D01*
X121271668Y-72217099D02*
X121189718Y-72336350D01*
X121189718Y-72336350D02*
X121097960Y-72445833D01*
X121097960Y-72445833D02*
X120997072Y-72545219D01*
X120997072Y-72545219D02*
X120884054Y-72636929D01*
X120884054Y-72636929D02*
X120762996Y-72717110D01*
X120762996Y-72717110D02*
X120630169Y-72787597D01*
X120630169Y-72787597D02*
X120487642Y-72846058D01*
X120487642Y-72846058D02*
X120333004Y-72891939D01*
X120333004Y-72891939D02*
X120162179Y-72923447D01*
X120162179Y-72923447D02*
X119973676Y-72936273D01*
X119973676Y-72936273D02*
X119780936Y-72925967D01*
X119780936Y-72925967D02*
X119610255Y-72896367D01*
X119610255Y-72896367D02*
X119454010Y-72850973D01*
X119454010Y-72850973D02*
X119311394Y-72792326D01*
X119311394Y-72792326D02*
X119180870Y-72721854D01*
X119180870Y-72721854D02*
X119061402Y-72640388D01*
X119061402Y-72640388D02*
X118951622Y-72547675D01*
X118951622Y-72547675D02*
X118851690Y-72443981D01*
X118851690Y-72443981D02*
X118762515Y-72330362D01*
X118762515Y-72330362D02*
X118684441Y-72207513D01*
X118684441Y-72207513D02*
X118616909Y-72074331D01*
X118616909Y-72074331D02*
X118560045Y-71929768D01*
X118560045Y-71929768D02*
X118514688Y-71773777D01*
X118514688Y-71773777D02*
X118481675Y-71606308D01*
X118481675Y-71606308D02*
X118461510Y-71422533D01*
X118461510Y-71422533D02*
X118455954Y-71256166D01*
X91396636Y-96887180D02*
X91396636Y-102133576D01*
X91458179Y-71264450D02*
X91458179Y-85822710D01*
X155963752Y-65345130D02*
X121525121Y-65345130D01*
X91458179Y-71264450D02*
X118397694Y-71256166D01*
X95583371Y-87097834D02*
X95583371Y-95604957D01*
X153543107Y-97256423D02*
X153543107Y-86848293D01*
X153543107Y-86848293D02*
X153350171Y-86839869D01*
X153350171Y-86839869D02*
X153171248Y-86815454D01*
X153171248Y-86815454D02*
X153007959Y-86776841D01*
X153007959Y-86776841D02*
X152853954Y-86723412D01*
X152853954Y-86723412D02*
X152716267Y-86658679D01*
X152716267Y-86658679D02*
X152591127Y-86582592D01*
X152591127Y-86582592D02*
X152477619Y-86495455D01*
X152477619Y-86495455D02*
X152374129Y-86396110D01*
X152374129Y-86396110D02*
X152282584Y-86286231D01*
X152282584Y-86286231D02*
X152201126Y-86162532D01*
X152201126Y-86162532D02*
X152133407Y-86029116D01*
X152133407Y-86029116D02*
X152078575Y-85882078D01*
X152078575Y-85882078D02*
X152038936Y-85721711D01*
X152038936Y-85721711D02*
X152016663Y-85541434D01*
X152016663Y-85541434D02*
X152017623Y-85341482D01*
X152017623Y-85341482D02*
X152040851Y-85163483D01*
X152040851Y-85163483D02*
X152080928Y-85002099D01*
X152080928Y-85002099D02*
X152134764Y-84854910D01*
X152134764Y-84854910D02*
X152201034Y-84719287D01*
X152201034Y-84719287D02*
X152277840Y-84595883D01*
X152277840Y-84595883D02*
X152367250Y-84480514D01*
X152367250Y-84480514D02*
X152468232Y-84375087D01*
X152468232Y-84375087D02*
X152583858Y-84277804D01*
X152583858Y-84277804D02*
X152703414Y-84197272D01*
X152703414Y-84197272D02*
X152834591Y-84127539D01*
X152834591Y-84127539D02*
X152977445Y-84069789D01*
X152977445Y-84069789D02*
X153133899Y-84024801D01*
X153133899Y-84024801D02*
X153308395Y-83993843D01*
X153308395Y-83993843D02*
X153495792Y-83980154D01*
X153495792Y-83980154D02*
X153543107Y-83979600D01*
X94400000Y-86202791D02*
X94580811Y-86228148D01*
X94580811Y-86228148D02*
X94751404Y-86258520D01*
X94751404Y-86258520D02*
X94915073Y-86298198D01*
X94915073Y-86298198D02*
X95064917Y-86348806D01*
X95064917Y-86348806D02*
X95203982Y-86415035D01*
X95203982Y-86415035D02*
X95323981Y-86496842D01*
X95323981Y-86496842D02*
X95424086Y-86596897D01*
X95424086Y-86596897D02*
X95502565Y-86718488D01*
X95502565Y-86718488D02*
X95556350Y-86864720D01*
X95556350Y-86864720D02*
X95581984Y-87041740D01*
X95581984Y-87041740D02*
X95583371Y-87097834D01*
X155836162Y-100131562D02*
X153543107Y-100131562D01*
X91396636Y-96887180D02*
X94333153Y-96508966D01*
X91396636Y-102133576D02*
X155836162Y-102133576D01*
X153543107Y-100131562D02*
X153350990Y-100122193D01*
X153350990Y-100122193D02*
X153174803Y-100095595D01*
X153174803Y-100095595D02*
X153012725Y-100053536D01*
X153012725Y-100053536D02*
X152864938Y-99997934D01*
X152864938Y-99997934D02*
X152725962Y-99927663D01*
X152725962Y-99927663D02*
X152604355Y-99848668D01*
X152604355Y-99848668D02*
X152489708Y-99755314D01*
X152489708Y-99755314D02*
X152388273Y-99652750D01*
X152388273Y-99652750D02*
X152298254Y-99540182D01*
X152298254Y-99540182D02*
X152219600Y-99417616D01*
X152219600Y-99417616D02*
X152152017Y-99283503D01*
X152152017Y-99283503D02*
X152096745Y-99137568D01*
X152096745Y-99137568D02*
X152055119Y-98977662D01*
X152055119Y-98977662D02*
X152029973Y-98801821D01*
X152029973Y-98801821D02*
X152026092Y-98604542D01*
X152026092Y-98604542D02*
X152045314Y-98422740D01*
X152045314Y-98422740D02*
X152082910Y-98257462D01*
X152082910Y-98257462D02*
X152135954Y-98106414D01*
X152135954Y-98106414D02*
X152202771Y-97968050D01*
X152202771Y-97968050D02*
X152281630Y-97842580D01*
X152281630Y-97842580D02*
X152370731Y-97730385D01*
X152370731Y-97730385D02*
X152473192Y-97627142D01*
X152473192Y-97627142D02*
X152584967Y-97537006D01*
X152584967Y-97537006D02*
X152707801Y-97458307D01*
X152707801Y-97458307D02*
X152841864Y-97391477D01*
X152841864Y-97391477D02*
X152988106Y-97336884D01*
X152988106Y-97336884D02*
X153147866Y-97295293D01*
X153147866Y-97295293D02*
X153321480Y-97268080D01*
X153321480Y-97268080D02*
X153512277Y-97256635D01*
X153512277Y-97256635D02*
X153543107Y-97256423D01*
X91458179Y-85822710D02*
X94394695Y-86200925D01*
X155836162Y-102133576D02*
X155836162Y-100131562D01*
X94400000Y-96500000D02*
X94577619Y-96475131D01*
X94577619Y-96475131D02*
X94747606Y-96445040D01*
X94747606Y-96445040D02*
X94909445Y-96406182D01*
X94909445Y-96406182D02*
X95062536Y-96354922D01*
X95062536Y-96354922D02*
X95198645Y-96290760D01*
X95198645Y-96290760D02*
X95319024Y-96209970D01*
X95319024Y-96209970D02*
X95420122Y-96110709D01*
X95420122Y-96110709D02*
X95501851Y-95985717D01*
X95501851Y-95985717D02*
X95555974Y-95839548D01*
X95555974Y-95839548D02*
X95581776Y-95665058D01*
X95581776Y-95665058D02*
X95583371Y-95604957D01*
M02*
