G04 #@! TF.GenerationSoftware,KiCad,Pcbnew,(5.99.0-10628-ga06f965ffa)*
G04 #@! TF.CreationDate,2021-12-09T18:38:08+01:00*
G04 #@! TF.ProjectId,MAN Adapterplatine,4d414e20-4164-4617-9074-6572706c6174,1.1*
G04 #@! TF.SameCoordinates,Original*
G04 #@! TF.FileFunction,Copper,L2,Bot*
G04 #@! TF.FilePolarity,Positive*
%FSLAX46Y46*%
G04 Gerber Fmt 4.6, Leading zero omitted, Abs format (unit mm)*
G04 Created by KiCad (PCBNEW (5.99.0-10628-ga06f965ffa)) date 2021-12-09 18:38:08*
%MOMM*%
%LPD*%
G01*
G04 APERTURE LIST*
G04 #@! TA.AperFunction,ComponentPad*
%ADD10R,1.727200X1.727200*%
G04 #@! TD*
G04 #@! TA.AperFunction,ComponentPad*
%ADD11O,1.727200X1.727200*%
G04 #@! TD*
G04 #@! TA.AperFunction,ComponentPad*
%ADD12R,1.524000X1.824000*%
G04 #@! TD*
G04 #@! TA.AperFunction,ComponentPad*
%ADD13O,1.524000X1.824000*%
G04 #@! TD*
G04 #@! TA.AperFunction,ViaPad*
%ADD14C,0.800000*%
G04 #@! TD*
G04 #@! TA.AperFunction,ViaPad*
%ADD15C,0.600000*%
G04 #@! TD*
G04 #@! TA.AperFunction,Conductor*
%ADD16C,0.250000*%
G04 #@! TD*
G04 #@! TA.AperFunction,Conductor*
%ADD17C,2.000000*%
G04 #@! TD*
G04 APERTURE END LIST*
D10*
X150000000Y-69100000D03*
D11*
X150000000Y-71640000D03*
X147460000Y-69100000D03*
X147460000Y-71640000D03*
X144920000Y-69100000D03*
X144920000Y-71640000D03*
X142380000Y-69100000D03*
X142380000Y-71640000D03*
X139840000Y-69100000D03*
X139840000Y-71640000D03*
X137300000Y-69100000D03*
X137300000Y-71640000D03*
X134760000Y-69100000D03*
X134760000Y-71640000D03*
X132220000Y-69100000D03*
X132220000Y-71640000D03*
X129680000Y-69100000D03*
X129680000Y-71640000D03*
X127140000Y-69100000D03*
X127140000Y-71640000D03*
D10*
X106860000Y-75500000D03*
D11*
X106860000Y-78040000D03*
X104320000Y-75500000D03*
X104320000Y-78040000D03*
X101780000Y-75500000D03*
X101780000Y-78040000D03*
X99240000Y-75500000D03*
X99240000Y-78040000D03*
X96700000Y-75500000D03*
X96700000Y-78040000D03*
D12*
X99900000Y-97000000D03*
D13*
X102440000Y-97000000D03*
X104980000Y-97000000D03*
X107520000Y-97000000D03*
X110060000Y-97000000D03*
X112600000Y-97000000D03*
X115140000Y-97000000D03*
X117680000Y-97000000D03*
X117680000Y-89380000D03*
X115140000Y-89380000D03*
X112600000Y-89380000D03*
X110060000Y-89380000D03*
X107520000Y-89380000D03*
X104980000Y-89380000D03*
X102440000Y-89380000D03*
X99900000Y-89380000D03*
D14*
X117000000Y-86200000D03*
X125600000Y-92100000D03*
X114800000Y-75100000D03*
X113700000Y-77300000D03*
X111050000Y-85000000D03*
X122900000Y-81700000D03*
X122900000Y-83000000D03*
X125400000Y-84300000D03*
X126700000Y-84300000D03*
X117200000Y-84600000D03*
X115400000Y-84600000D03*
D15*
X121100000Y-94800000D03*
X121100000Y-96400000D03*
X121100000Y-95600000D03*
X121100000Y-97200000D03*
X121100000Y-89700000D03*
X121100000Y-91300000D03*
X121100000Y-90500000D03*
X121100000Y-92100000D03*
D16*
X107520000Y-97000000D02*
X108532000Y-97000000D01*
X103452000Y-97000000D02*
X104980000Y-97000000D01*
X102200000Y-85000000D02*
X111050000Y-85000000D01*
X100591399Y-76688601D02*
X100591399Y-83391399D01*
X99900000Y-97000000D02*
X102440000Y-97000000D01*
X117680000Y-97000000D02*
X116668000Y-97000000D01*
X102440000Y-97000000D02*
X103452000Y-97000000D01*
X110060000Y-97000000D02*
X112600000Y-97000000D01*
X108532000Y-97000000D02*
X110060000Y-97000000D01*
X101780000Y-75500000D02*
X100591399Y-76688601D01*
X100591399Y-83391399D02*
X102200000Y-85000000D01*
X106508000Y-97000000D02*
X104980000Y-97000000D01*
X112600000Y-97000000D02*
X113612000Y-97000000D01*
X113612000Y-97000000D02*
X115140000Y-97000000D01*
X107520000Y-97000000D02*
X106508000Y-97000000D01*
X116668000Y-97000000D02*
X115140000Y-97000000D01*
D17*
X121400000Y-80200000D02*
X122900000Y-81700000D01*
X147460000Y-69100000D02*
X147460000Y-71640000D01*
X144920000Y-69100000D02*
X144920000Y-71640000D01*
X150000000Y-69100000D02*
X150000000Y-71640000D01*
X122900000Y-83000000D02*
X122900000Y-81700000D01*
X106860000Y-78040000D02*
X109020000Y-80200000D01*
X144920000Y-69100000D02*
X150000000Y-69100000D01*
X144920000Y-71640000D02*
X150000000Y-71640000D01*
X122900000Y-83000000D02*
X122900000Y-81900000D01*
X109020000Y-80200000D02*
X121400000Y-80200000D01*
X104320000Y-81520000D02*
X104320000Y-78040000D01*
X137300000Y-71640000D02*
X139840000Y-71640000D01*
X137300000Y-69100000D02*
X139840000Y-69100000D01*
X125400000Y-84300000D02*
X126700000Y-84300000D01*
X121600000Y-85700000D02*
X118500000Y-82600000D01*
X139840000Y-69100000D02*
X139840000Y-71640000D01*
X142380000Y-69100000D02*
X142380000Y-71640000D01*
X124000000Y-85700000D02*
X121600000Y-85700000D01*
X139840000Y-69100000D02*
X142380000Y-69100000D01*
X139840000Y-71640000D02*
X142380000Y-71640000D01*
X118500000Y-82600000D02*
X105400000Y-82600000D01*
X105400000Y-82600000D02*
X104320000Y-81520000D01*
X137300000Y-69100000D02*
X137300000Y-71640000D01*
X125400000Y-84300000D02*
X124000000Y-85700000D01*
X134760000Y-70460000D02*
X134760000Y-71640000D01*
X134760000Y-69100000D02*
X134760000Y-70460000D01*
X132220000Y-69100000D02*
X134760000Y-69100000D01*
D16*
X100103599Y-76496401D02*
X100103599Y-77176401D01*
X127140000Y-69100000D02*
X125918686Y-69100000D01*
X101100000Y-73600000D02*
X100591399Y-74108601D01*
X100103599Y-77176401D02*
X99240000Y-78040000D01*
X100591399Y-76008601D02*
X100103599Y-76496401D01*
X111200000Y-76400000D02*
X108400000Y-73600000D01*
X125200000Y-69818686D02*
X125200000Y-74700000D01*
X108400000Y-73600000D02*
X101100000Y-73600000D01*
X125918686Y-69100000D02*
X125200000Y-69818686D01*
X123500000Y-76400000D02*
X111200000Y-76400000D01*
X100591399Y-74108601D02*
X100591399Y-76008601D01*
X125200000Y-74700000D02*
X123500000Y-76400000D01*
X128080000Y-67500000D02*
X125600000Y-67500000D01*
X123000000Y-75900000D02*
X111800000Y-75900000D01*
X129680000Y-69100000D02*
X128080000Y-67500000D01*
X108900000Y-73000000D02*
X99200000Y-73000000D01*
X125600000Y-67500000D02*
X124300000Y-68800000D01*
X99200000Y-73000000D02*
X96700000Y-75500000D01*
X111800000Y-75900000D02*
X108900000Y-73000000D01*
X124300000Y-68800000D02*
X124300000Y-74600000D01*
X124300000Y-74600000D02*
X123000000Y-75900000D01*
X116100000Y-85700000D02*
X114300000Y-87500000D01*
X117200000Y-84600000D02*
X116634315Y-84600000D01*
X114300000Y-87500000D02*
X99600000Y-87500000D01*
X116634315Y-84600000D02*
X116100000Y-85134315D01*
X116100000Y-85134315D02*
X116100000Y-85700000D01*
X99600000Y-87500000D02*
X96700000Y-84600000D01*
X96700000Y-84600000D02*
X96700000Y-78040000D01*
X100000000Y-86400000D02*
X98000000Y-84400000D01*
X98000000Y-76740000D02*
X99240000Y-75500000D01*
X115400000Y-84600000D02*
X115400000Y-85165685D01*
X115400000Y-85165685D02*
X114165685Y-86400000D01*
X98000000Y-84400000D02*
X98000000Y-76740000D01*
X114165685Y-86400000D02*
X100000000Y-86400000D01*
X121100000Y-94800000D02*
X121100000Y-93600000D01*
X110940000Y-92800000D02*
X107520000Y-89380000D01*
X121100000Y-93600000D02*
X120300000Y-92800000D01*
X120300000Y-92800000D02*
X110940000Y-92800000D01*
X107060000Y-94000000D02*
X102440000Y-89380000D01*
X119200000Y-94000000D02*
X107060000Y-94000000D01*
X120600000Y-96400000D02*
X119800000Y-95600000D01*
X121100000Y-96400000D02*
X120600000Y-96400000D01*
X119800000Y-94600000D02*
X119200000Y-94000000D01*
X119800000Y-95600000D02*
X119800000Y-94600000D01*
X121100000Y-95600000D02*
X120800000Y-95600000D01*
X120800000Y-95600000D02*
X120400000Y-95200000D01*
X109000000Y-93400000D02*
X104980000Y-89380000D01*
X120400000Y-95200000D02*
X120400000Y-94100000D01*
X119700000Y-93400000D02*
X109000000Y-93400000D01*
X120400000Y-94100000D02*
X119700000Y-93400000D01*
X119000000Y-95000000D02*
X118600000Y-94600000D01*
X121100000Y-97200000D02*
X120300000Y-97200000D01*
X105120000Y-94600000D02*
X99900000Y-89380000D01*
X120300000Y-97200000D02*
X119000000Y-95900000D01*
X119000000Y-95900000D02*
X119000000Y-95000000D01*
X118600000Y-94600000D02*
X105120000Y-94600000D01*
X121100000Y-89700000D02*
X119900000Y-89700000D01*
X119580000Y-89380000D02*
X117680000Y-89380000D01*
X119900000Y-89700000D02*
X119580000Y-89380000D01*
X121100000Y-91300000D02*
X114520000Y-91300000D01*
X114520000Y-91300000D02*
X112600000Y-89380000D01*
X118900000Y-90500000D02*
X118600000Y-90800000D01*
X118600000Y-90800000D02*
X116560000Y-90800000D01*
X121100000Y-90500000D02*
X118900000Y-90500000D01*
X116560000Y-90800000D02*
X115140000Y-89380000D01*
X112780000Y-92100000D02*
X110060000Y-89380000D01*
X121100000Y-92100000D02*
X112780000Y-92100000D01*
G04 #@! TA.AperFunction,Conductor*
G36*
X155397873Y-65873132D02*
G01*
X155444366Y-65926788D01*
X155455752Y-65979130D01*
X155455752Y-83345600D01*
X155435750Y-83413721D01*
X155382094Y-83460214D01*
X155329752Y-83471600D01*
X153559912Y-83471600D01*
X153552080Y-83471356D01*
X153539137Y-83470550D01*
X153534272Y-83470247D01*
X153526096Y-83471004D01*
X153525443Y-83471064D01*
X153513833Y-83471600D01*
X153508194Y-83471600D01*
X153490392Y-83474150D01*
X153484147Y-83474885D01*
X153217013Y-83499604D01*
X153206371Y-83500063D01*
X153198090Y-83498826D01*
X153189198Y-83500044D01*
X153189196Y-83500044D01*
X153171883Y-83502416D01*
X153143897Y-83506249D01*
X153138432Y-83506876D01*
X153113383Y-83509194D01*
X153107299Y-83510648D01*
X153095130Y-83512929D01*
X153085938Y-83514188D01*
X153081284Y-83515580D01*
X153081274Y-83515582D01*
X153063335Y-83520947D01*
X153056518Y-83522779D01*
X153006217Y-83534797D01*
X152998423Y-83539249D01*
X152991966Y-83541804D01*
X152981715Y-83545357D01*
X152958101Y-83552419D01*
X152812150Y-83596067D01*
X152801250Y-83598804D01*
X152796867Y-83599699D01*
X152787908Y-83600229D01*
X152738454Y-83617924D01*
X152732122Y-83620001D01*
X152711506Y-83626166D01*
X152707438Y-83628046D01*
X152707432Y-83628048D01*
X152703188Y-83630009D01*
X152692783Y-83634264D01*
X152681325Y-83638364D01*
X152663535Y-83648039D01*
X152656223Y-83651711D01*
X152611486Y-83672382D01*
X152604722Y-83678282D01*
X152597185Y-83683168D01*
X152596936Y-83682784D01*
X152587247Y-83689524D01*
X152531843Y-83719652D01*
X152449317Y-83764528D01*
X152439251Y-83769436D01*
X152434934Y-83771308D01*
X152426273Y-83773676D01*
X152381604Y-83801148D01*
X152375812Y-83804500D01*
X152360928Y-83812594D01*
X152356993Y-83814734D01*
X152353400Y-83817411D01*
X152349566Y-83820267D01*
X152340299Y-83826550D01*
X152329849Y-83832977D01*
X152326149Y-83836131D01*
X152314531Y-83846033D01*
X152308080Y-83851175D01*
X152268637Y-83880561D01*
X152263231Y-83887732D01*
X152256868Y-83894059D01*
X152256555Y-83893745D01*
X152248423Y-83902377D01*
X152138334Y-83996208D01*
X152129004Y-84003419D01*
X152121069Y-84007430D01*
X152114516Y-84013566D01*
X152114514Y-84013567D01*
X152081612Y-84044373D01*
X152077239Y-84048281D01*
X152058963Y-84063857D01*
X152054224Y-84069230D01*
X152045855Y-84077851D01*
X152038436Y-84084798D01*
X152035438Y-84088631D01*
X152035432Y-84088637D01*
X152024548Y-84102550D01*
X152019811Y-84108252D01*
X152005229Y-84124788D01*
X151986086Y-84146495D01*
X151982276Y-84154625D01*
X151977354Y-84162130D01*
X151976733Y-84161723D01*
X151971185Y-84170767D01*
X151887538Y-84277697D01*
X151882189Y-84283840D01*
X151876592Y-84288179D01*
X151871326Y-84295450D01*
X151871325Y-84295451D01*
X151843666Y-84333641D01*
X151840863Y-84337364D01*
X151823589Y-84359447D01*
X151821354Y-84363336D01*
X151820703Y-84364303D01*
X151814355Y-84374115D01*
X151810194Y-84379860D01*
X151798263Y-84403213D01*
X151795323Y-84408631D01*
X151773163Y-84447192D01*
X151773161Y-84447197D01*
X151768690Y-84454977D01*
X151766582Y-84463700D01*
X151765999Y-84465163D01*
X151761160Y-84475833D01*
X151700397Y-84594762D01*
X151697659Y-84599442D01*
X151694065Y-84603471D01*
X151672049Y-84649756D01*
X151669429Y-84655264D01*
X151667873Y-84658420D01*
X151653151Y-84687236D01*
X151651699Y-84691472D01*
X151649947Y-84695602D01*
X151649840Y-84695556D01*
X151648058Y-84699928D01*
X151647530Y-84701303D01*
X151645441Y-84705695D01*
X151644053Y-84710355D01*
X151644051Y-84710360D01*
X151636948Y-84734207D01*
X151635397Y-84739053D01*
X151617437Y-84791469D01*
X151617083Y-84799215D01*
X151614859Y-84808356D01*
X151577105Y-84935098D01*
X151575712Y-84938929D01*
X151573403Y-84942689D01*
X151558242Y-84998304D01*
X151557462Y-85001039D01*
X151548673Y-85030542D01*
X151548671Y-85030551D01*
X151547394Y-85034838D01*
X151546736Y-85039272D01*
X151545903Y-85043027D01*
X151545055Y-85046457D01*
X151544910Y-85047215D01*
X151543632Y-85051904D01*
X151543090Y-85056738D01*
X151543089Y-85056743D01*
X151540074Y-85083637D01*
X151539498Y-85088064D01*
X151531226Y-85143827D01*
X151532157Y-85150572D01*
X151531710Y-85158226D01*
X151517749Y-85282746D01*
X151517089Y-85288628D01*
X151516389Y-85292682D01*
X151514771Y-85296822D01*
X151513981Y-85305768D01*
X151509706Y-85354157D01*
X151509410Y-85357108D01*
X151507149Y-85377277D01*
X151505494Y-85392036D01*
X151505632Y-85396529D01*
X151505471Y-85400489D01*
X151505247Y-85403956D01*
X151505239Y-85404733D01*
X151504810Y-85409583D01*
X151505133Y-85414443D01*
X151505133Y-85414446D01*
X151506924Y-85441395D01*
X151507142Y-85445896D01*
X151508136Y-85478363D01*
X151508864Y-85502167D01*
X151510984Y-85508672D01*
X151511904Y-85516328D01*
X151519690Y-85633465D01*
X151520550Y-85646408D01*
X151520605Y-85652041D01*
X151519564Y-85657479D01*
X151525025Y-85714526D01*
X151525316Y-85718123D01*
X151527435Y-85750009D01*
X151528364Y-85754397D01*
X151528977Y-85758830D01*
X151528877Y-85758844D01*
X151529748Y-85764528D01*
X151529886Y-85765320D01*
X151530350Y-85770164D01*
X151534558Y-85786651D01*
X151537632Y-85798694D01*
X151538814Y-85803761D01*
X151550254Y-85857802D01*
X151553989Y-85864752D01*
X151556846Y-85873976D01*
X151586174Y-85988881D01*
X151588877Y-85999472D01*
X151590616Y-86008127D01*
X151590649Y-86015588D01*
X151593208Y-86024198D01*
X151606518Y-86068981D01*
X151607825Y-86073714D01*
X151614554Y-86100078D01*
X151616354Y-86104430D01*
X151620695Y-86116680D01*
X151622899Y-86124096D01*
X151624987Y-86128492D01*
X151633812Y-86147076D01*
X151636429Y-86152973D01*
X151650168Y-86186193D01*
X151656662Y-86201896D01*
X151662282Y-86208895D01*
X151663852Y-86211547D01*
X151669234Y-86221665D01*
X151724385Y-86337793D01*
X151728840Y-86348401D01*
X151729806Y-86351033D01*
X151731675Y-86359811D01*
X151735930Y-86367708D01*
X151735932Y-86367713D01*
X151756840Y-86406516D01*
X151759732Y-86412227D01*
X151761977Y-86416953D01*
X151769317Y-86432407D01*
X151771786Y-86436130D01*
X151771789Y-86436135D01*
X151774002Y-86439471D01*
X151779923Y-86449351D01*
X151783062Y-86455178D01*
X151783065Y-86455183D01*
X151785372Y-86459464D01*
X151798075Y-86476220D01*
X151802639Y-86482651D01*
X151830215Y-86524230D01*
X151837078Y-86530018D01*
X151843051Y-86536721D01*
X151842641Y-86537086D01*
X151850489Y-86545352D01*
X151924342Y-86642766D01*
X151930423Y-86650787D01*
X151936004Y-86660160D01*
X151936559Y-86659806D01*
X151941382Y-86667381D01*
X151945079Y-86675557D01*
X151966381Y-86700382D01*
X151978001Y-86713924D01*
X151982785Y-86719852D01*
X151994107Y-86734787D01*
X151997287Y-86737932D01*
X151997293Y-86737939D01*
X152002311Y-86742902D01*
X152009320Y-86750425D01*
X152015621Y-86757768D01*
X152015625Y-86757772D01*
X152018794Y-86761465D01*
X152025065Y-86766824D01*
X152032160Y-86772888D01*
X152038898Y-86779084D01*
X152072448Y-86812264D01*
X152080345Y-86816531D01*
X152087558Y-86821875D01*
X152087470Y-86821994D01*
X152098360Y-86829465D01*
X152209521Y-86924466D01*
X152217297Y-86932767D01*
X152217690Y-86932375D01*
X152224031Y-86938729D01*
X152229406Y-86945917D01*
X152269292Y-86975877D01*
X152275471Y-86980830D01*
X152285618Y-86989502D01*
X152285629Y-86989510D01*
X152289034Y-86992420D01*
X152292817Y-86994818D01*
X152292828Y-86994826D01*
X152299448Y-86999022D01*
X152307653Y-87004690D01*
X152319917Y-87013901D01*
X152324212Y-87016191D01*
X152324216Y-87016193D01*
X152334651Y-87021755D01*
X152342835Y-87026520D01*
X152382097Y-87051406D01*
X152390722Y-87053890D01*
X152398907Y-87057572D01*
X152398887Y-87057617D01*
X152411562Y-87062754D01*
X152452398Y-87084522D01*
X152556749Y-87140148D01*
X152566180Y-87145715D01*
X152571468Y-87149155D01*
X152578221Y-87155065D01*
X152586359Y-87158841D01*
X152586362Y-87158843D01*
X152625307Y-87176913D01*
X152631544Y-87180020D01*
X152645811Y-87187625D01*
X152645817Y-87187628D01*
X152649774Y-87189737D01*
X152658297Y-87192824D01*
X152659081Y-87193108D01*
X152669195Y-87197277D01*
X152670810Y-87198026D01*
X152680905Y-87202710D01*
X152699558Y-87208073D01*
X152707627Y-87210691D01*
X152753370Y-87227259D01*
X152762330Y-87227824D01*
X152771119Y-87229654D01*
X152771046Y-87230006D01*
X152783105Y-87232095D01*
X152943925Y-87278335D01*
X153003866Y-87316382D01*
X153033722Y-87380796D01*
X153035107Y-87399429D01*
X153035107Y-96707723D01*
X153015105Y-96775844D01*
X152961449Y-96822337D01*
X152944471Y-96828658D01*
X152794380Y-96872548D01*
X152783863Y-96875139D01*
X152776930Y-96876533D01*
X152767968Y-96877038D01*
X152759508Y-96880038D01*
X152759506Y-96880038D01*
X152719269Y-96894305D01*
X152712552Y-96896476D01*
X152693040Y-96902182D01*
X152688956Y-96904039D01*
X152688953Y-96904040D01*
X152683770Y-96906397D01*
X152673724Y-96910454D01*
X152661276Y-96914867D01*
X152656993Y-96917180D01*
X152656987Y-96917183D01*
X152644493Y-96923931D01*
X152636773Y-96927766D01*
X152592739Y-96947787D01*
X152585940Y-96953645D01*
X152578376Y-96958483D01*
X152578203Y-96958213D01*
X152567982Y-96965255D01*
X152553283Y-96973193D01*
X152426851Y-97041478D01*
X152416515Y-97045651D01*
X152416760Y-97046208D01*
X152408546Y-97049824D01*
X152399899Y-97052240D01*
X152357274Y-97078784D01*
X152350556Y-97082684D01*
X152334472Y-97091371D01*
X152330873Y-97094037D01*
X152330863Y-97094043D01*
X152324881Y-97098474D01*
X152316494Y-97104178D01*
X152303807Y-97112078D01*
X152300126Y-97115251D01*
X152300115Y-97115259D01*
X152290830Y-97123263D01*
X152283555Y-97129080D01*
X152253141Y-97151604D01*
X152253138Y-97151607D01*
X152245929Y-97156946D01*
X152240504Y-97164098D01*
X152234125Y-97170406D01*
X152234057Y-97170337D01*
X152224848Y-97180140D01*
X152115278Y-97274589D01*
X152106924Y-97281194D01*
X152100324Y-97285973D01*
X152092378Y-97290155D01*
X152055474Y-97325865D01*
X152050157Y-97330722D01*
X152035126Y-97343679D01*
X152032183Y-97347054D01*
X152032178Y-97347059D01*
X152028161Y-97351666D01*
X152020813Y-97359406D01*
X152011029Y-97368873D01*
X151999790Y-97383738D01*
X151994274Y-97390526D01*
X151962711Y-97426722D01*
X151958946Y-97434873D01*
X151954065Y-97442407D01*
X151953841Y-97442262D01*
X151947333Y-97453118D01*
X151865379Y-97561514D01*
X151857713Y-97570711D01*
X151857673Y-97570755D01*
X151850725Y-97576444D01*
X151845654Y-97583854D01*
X151820264Y-97620953D01*
X151816789Y-97625781D01*
X151802453Y-97644742D01*
X151800280Y-97648671D01*
X151800279Y-97648673D01*
X151798914Y-97651141D01*
X151792628Y-97661333D01*
X151789542Y-97665841D01*
X151789536Y-97665852D01*
X151786792Y-97669861D01*
X151780886Y-97682224D01*
X151777163Y-97690016D01*
X151773736Y-97696672D01*
X151753477Y-97733308D01*
X151753475Y-97733312D01*
X151749134Y-97741163D01*
X151747171Y-97749917D01*
X151743982Y-97758315D01*
X151743315Y-97758062D01*
X151739817Y-97768185D01*
X151699972Y-97851585D01*
X151684000Y-97885015D01*
X151680341Y-97891729D01*
X151675990Y-97896950D01*
X151672413Y-97905177D01*
X151672411Y-97905180D01*
X151664985Y-97922259D01*
X151656172Y-97942530D01*
X151653518Y-97948633D01*
X151651677Y-97952670D01*
X151639268Y-97978643D01*
X151637926Y-97982929D01*
X151636970Y-97985360D01*
X151633501Y-97994667D01*
X151632790Y-97996302D01*
X151632788Y-97996309D01*
X151630852Y-98000761D01*
X151624078Y-98026675D01*
X151622417Y-98032458D01*
X151617628Y-98047754D01*
X151606344Y-98083791D01*
X151606174Y-98092771D01*
X151606100Y-98093226D01*
X151603638Y-98104866D01*
X151593310Y-98144377D01*
X151570769Y-98230605D01*
X151569262Y-98235252D01*
X151566798Y-98239618D01*
X151564759Y-98248354D01*
X151564758Y-98248357D01*
X151553725Y-98295632D01*
X151552926Y-98298859D01*
X151545620Y-98326808D01*
X151545618Y-98326818D01*
X151544485Y-98331153D01*
X151543978Y-98335607D01*
X151543155Y-98340013D01*
X151543000Y-98339984D01*
X151542689Y-98341782D01*
X151542180Y-98345103D01*
X151541071Y-98349856D01*
X151539273Y-98373843D01*
X151538785Y-98380349D01*
X151538328Y-98385190D01*
X151533736Y-98425500D01*
X151532013Y-98440626D01*
X151533270Y-98447905D01*
X151533070Y-98456596D01*
X151523297Y-98586994D01*
X151522798Y-98590668D01*
X151521431Y-98594566D01*
X151520957Y-98603527D01*
X151520957Y-98603529D01*
X151518399Y-98651926D01*
X151518223Y-98654692D01*
X151515514Y-98690839D01*
X151515816Y-98695311D01*
X151515806Y-98698099D01*
X151515696Y-98702006D01*
X151515714Y-98702735D01*
X151515456Y-98707607D01*
X151515950Y-98712450D01*
X151515950Y-98712452D01*
X151518760Y-98739998D01*
X151519123Y-98744282D01*
X151522939Y-98800771D01*
X151525194Y-98806911D01*
X151526313Y-98814039D01*
X151539659Y-98944874D01*
X151539827Y-98948856D01*
X151539135Y-98953149D01*
X151546300Y-99010288D01*
X151546621Y-99013113D01*
X151548446Y-99031003D01*
X151549044Y-99036866D01*
X151550222Y-99048419D01*
X151551304Y-99052768D01*
X151551927Y-99056339D01*
X151552460Y-99059893D01*
X151552611Y-99060630D01*
X151553218Y-99065470D01*
X151554560Y-99070152D01*
X151554561Y-99070156D01*
X151562053Y-99096290D01*
X151563203Y-99100583D01*
X151576830Y-99155340D01*
X151580232Y-99161169D01*
X151582703Y-99168319D01*
X151619192Y-99295597D01*
X151620451Y-99301155D01*
X151620584Y-99306730D01*
X151623307Y-99315275D01*
X151623308Y-99315282D01*
X151637976Y-99361314D01*
X151639044Y-99364843D01*
X151647806Y-99395407D01*
X151649642Y-99399503D01*
X151651181Y-99403714D01*
X151651090Y-99403747D01*
X151653230Y-99409350D01*
X151653474Y-99409951D01*
X151654951Y-99414587D01*
X151657124Y-99418940D01*
X151668065Y-99440863D01*
X151670295Y-99445573D01*
X151692878Y-99495948D01*
X151698022Y-99501983D01*
X151702799Y-99510455D01*
X151746532Y-99598079D01*
X151762419Y-99629910D01*
X151765952Y-99638011D01*
X151767561Y-99645291D01*
X151787666Y-99681924D01*
X151794366Y-99694133D01*
X151796645Y-99698485D01*
X151806790Y-99718812D01*
X151806793Y-99718818D01*
X151808789Y-99722816D01*
X151811464Y-99726682D01*
X151818301Y-99737744D01*
X151822024Y-99744528D01*
X151837046Y-99764028D01*
X151837544Y-99764675D01*
X151841348Y-99769884D01*
X151848027Y-99779539D01*
X151871472Y-99813430D01*
X151878443Y-99819080D01*
X151880543Y-99821346D01*
X151887940Y-99830093D01*
X151970440Y-99937186D01*
X151977134Y-99946766D01*
X151977997Y-99948131D01*
X151981669Y-99956328D01*
X152016334Y-99997009D01*
X152020214Y-100001798D01*
X152034234Y-100019997D01*
X152039678Y-100025298D01*
X152039959Y-100025572D01*
X152047951Y-100034114D01*
X152055088Y-100042490D01*
X152058781Y-100045668D01*
X152058787Y-100045674D01*
X152071444Y-100056566D01*
X152077162Y-100061801D01*
X152113170Y-100096868D01*
X152121102Y-100101075D01*
X152128353Y-100106361D01*
X152127991Y-100106858D01*
X152137159Y-100113120D01*
X152244168Y-100205211D01*
X152252083Y-100212641D01*
X152256861Y-100217530D01*
X152262161Y-100224775D01*
X152269282Y-100230241D01*
X152269283Y-100230242D01*
X152303228Y-100256298D01*
X152308700Y-100260747D01*
X152320757Y-100271124D01*
X152320761Y-100271127D01*
X152324154Y-100274047D01*
X152332649Y-100279472D01*
X152341556Y-100285718D01*
X152348092Y-100290736D01*
X152348100Y-100290741D01*
X152351957Y-100293702D01*
X152356230Y-100296037D01*
X152356237Y-100296042D01*
X152368800Y-100302909D01*
X152376189Y-100307280D01*
X152417013Y-100333353D01*
X152425628Y-100335867D01*
X152433803Y-100339578D01*
X152433665Y-100339882D01*
X152445080Y-100344601D01*
X152560449Y-100407657D01*
X152583049Y-100420009D01*
X152592470Y-100425706D01*
X152597400Y-100428990D01*
X152604091Y-100434976D01*
X152612192Y-100438843D01*
X152651051Y-100457392D01*
X152657203Y-100460539D01*
X152671541Y-100468376D01*
X152671544Y-100468377D01*
X152675477Y-100470527D01*
X152684606Y-100473942D01*
X152694716Y-100478235D01*
X152706248Y-100483740D01*
X152710914Y-100485137D01*
X152710922Y-100485140D01*
X152724988Y-100489351D01*
X152732996Y-100492044D01*
X152770266Y-100505986D01*
X152770270Y-100505987D01*
X152778675Y-100509131D01*
X152787627Y-100509790D01*
X152796397Y-100511711D01*
X152796316Y-100512081D01*
X152808271Y-100514284D01*
X152981283Y-100566082D01*
X152991527Y-100569703D01*
X152998835Y-100573994D01*
X153051775Y-100587315D01*
X153057130Y-100588789D01*
X153081025Y-100595943D01*
X153087366Y-100596892D01*
X153099450Y-100599311D01*
X153108612Y-100601617D01*
X153113454Y-100602064D01*
X153113460Y-100602065D01*
X153128391Y-100603443D01*
X153131919Y-100603768D01*
X153138996Y-100604625D01*
X153181114Y-100610932D01*
X153181117Y-100610932D01*
X153189992Y-100612261D01*
X153198881Y-100611046D01*
X153206239Y-100611093D01*
X153217015Y-100611623D01*
X153479609Y-100635861D01*
X153487413Y-100636828D01*
X153504972Y-100639562D01*
X153513901Y-100639562D01*
X153525481Y-100640095D01*
X153526712Y-100640209D01*
X153526719Y-100640209D01*
X153531181Y-100640621D01*
X153535661Y-100640396D01*
X153535666Y-100640396D01*
X153549090Y-100639721D01*
X153555414Y-100639562D01*
X155202162Y-100639562D01*
X155270283Y-100659564D01*
X155316776Y-100713220D01*
X155328162Y-100765562D01*
X155328162Y-101499576D01*
X155308160Y-101567697D01*
X155254504Y-101614190D01*
X155202162Y-101625576D01*
X92030636Y-101625576D01*
X91962515Y-101605574D01*
X91916022Y-101551918D01*
X91904636Y-101499576D01*
X91904636Y-97444761D01*
X91924638Y-97376640D01*
X91978294Y-97330147D01*
X92014540Y-97319793D01*
X94091858Y-97052240D01*
X94432672Y-97008344D01*
X94432703Y-97008586D01*
X94433694Y-97008455D01*
X94433674Y-97008315D01*
X94641001Y-96978871D01*
X94654109Y-96977722D01*
X94654355Y-96977695D01*
X94659216Y-96977530D01*
X94664000Y-96976618D01*
X94664003Y-96976618D01*
X94681976Y-96973193D01*
X94687849Y-96972217D01*
X94696040Y-96971054D01*
X94703150Y-96970044D01*
X94703151Y-96970044D01*
X94707586Y-96969414D01*
X94712774Y-96967904D01*
X94724405Y-96965109D01*
X94815310Y-96947787D01*
X94883078Y-96934874D01*
X94891489Y-96933564D01*
X94902900Y-96932180D01*
X94902902Y-96932180D01*
X94907738Y-96931593D01*
X94917917Y-96928719D01*
X94928568Y-96926206D01*
X94935784Y-96924831D01*
X94951547Y-96919423D01*
X94958164Y-96917356D01*
X95146785Y-96864097D01*
X95148957Y-96863506D01*
X95173074Y-96857184D01*
X95176398Y-96855736D01*
X95176791Y-96855625D01*
X95184223Y-96852329D01*
X95184788Y-96852081D01*
X95330464Y-96788621D01*
X95343069Y-96784654D01*
X95343020Y-96784515D01*
X95351482Y-96781510D01*
X95360280Y-96779735D01*
X95368226Y-96775562D01*
X95368230Y-96775561D01*
X95402046Y-96757803D01*
X95410307Y-96753841D01*
X95419354Y-96749900D01*
X95419360Y-96749897D01*
X95423464Y-96748109D01*
X95427277Y-96745755D01*
X95427281Y-96745753D01*
X95436582Y-96740011D01*
X95444176Y-96735679D01*
X95460502Y-96727106D01*
X95471210Y-96719166D01*
X95480060Y-96713170D01*
X95509577Y-96694947D01*
X95509578Y-96694946D01*
X95517219Y-96690229D01*
X95523229Y-96683557D01*
X95524352Y-96682620D01*
X95541388Y-96667134D01*
X95661492Y-96578084D01*
X95671632Y-96571301D01*
X95705999Y-96550655D01*
X95733280Y-96521096D01*
X95745600Y-96507749D01*
X95749553Y-96503655D01*
X95784689Y-96468878D01*
X95784690Y-96468877D01*
X95791068Y-96462564D01*
X95812243Y-96424355D01*
X95817809Y-96415245D01*
X95923454Y-96257761D01*
X95931376Y-96247196D01*
X95949797Y-96225138D01*
X95955550Y-96218249D01*
X95963197Y-96200718D01*
X95979891Y-96162442D01*
X95981839Y-96158192D01*
X96008263Y-96103300D01*
X96015023Y-96062489D01*
X96017461Y-96051075D01*
X96018174Y-96048362D01*
X96049625Y-95928601D01*
X96052798Y-95918565D01*
X96056768Y-95911260D01*
X96068363Y-95857724D01*
X96069640Y-95852391D01*
X96074918Y-95832293D01*
X96074918Y-95832292D01*
X96076055Y-95827963D01*
X96076758Y-95821853D01*
X96078784Y-95809612D01*
X96079699Y-95805387D01*
X96079701Y-95805372D01*
X96080729Y-95800625D01*
X96082123Y-95776947D01*
X96082731Y-95769951D01*
X96084529Y-95754334D01*
X96088652Y-95718504D01*
X96087134Y-95709657D01*
X96086950Y-95702991D01*
X96087120Y-95692103D01*
X96088820Y-95663222D01*
X96090103Y-95651236D01*
X96090621Y-95647909D01*
X96090621Y-95647908D01*
X96091371Y-95643092D01*
X96091371Y-95623610D01*
X96091589Y-95616203D01*
X96092282Y-95604436D01*
X96092282Y-95604435D01*
X96092545Y-95599968D01*
X96091809Y-95591166D01*
X96091371Y-95580667D01*
X96091371Y-87126276D01*
X96091947Y-87114244D01*
X96092268Y-87110893D01*
X96092734Y-87106040D01*
X96091589Y-87086596D01*
X96091371Y-87079189D01*
X96091371Y-87062921D01*
X96090736Y-87058483D01*
X96090735Y-87058475D01*
X96090119Y-87054174D01*
X96089065Y-87043726D01*
X96087035Y-87009261D01*
X96086935Y-86998729D01*
X96088441Y-86990551D01*
X96087524Y-86981623D01*
X96087524Y-86981619D01*
X96082845Y-86936073D01*
X96082403Y-86930604D01*
X96081182Y-86909863D01*
X96081182Y-86909860D01*
X96080918Y-86905382D01*
X96079690Y-86899359D01*
X96077811Y-86887067D01*
X96077371Y-86882785D01*
X96076874Y-86877943D01*
X96074808Y-86870076D01*
X96070853Y-86855014D01*
X96069259Y-86848175D01*
X96060707Y-86806216D01*
X96060707Y-86806215D01*
X96058914Y-86797420D01*
X96054724Y-86789480D01*
X96052477Y-86783193D01*
X96049258Y-86772787D01*
X96018508Y-86655701D01*
X96015827Y-86642766D01*
X96011476Y-86614354D01*
X96010117Y-86605476D01*
X95984368Y-86550271D01*
X95982481Y-86546020D01*
X95958813Y-86489893D01*
X95932672Y-86457801D01*
X95925736Y-86448430D01*
X95846375Y-86330130D01*
X95820126Y-86291001D01*
X95813818Y-86280534D01*
X95799078Y-86253152D01*
X95794822Y-86245246D01*
X95788519Y-86238853D01*
X95788516Y-86238849D01*
X95753821Y-86203659D01*
X95749917Y-86199517D01*
X95716842Y-86162791D01*
X95716841Y-86162791D01*
X95710835Y-86156121D01*
X95703197Y-86151404D01*
X95703195Y-86151403D01*
X95673657Y-86133163D01*
X95664821Y-86127176D01*
X95544569Y-86038016D01*
X95534852Y-86029074D01*
X95534756Y-86029186D01*
X95527935Y-86023352D01*
X95522008Y-86016608D01*
X95482170Y-85991336D01*
X95474639Y-85986167D01*
X95463090Y-85977604D01*
X95459156Y-85975476D01*
X95459149Y-85975472D01*
X95449529Y-85970270D01*
X95441996Y-85965851D01*
X95426419Y-85955970D01*
X95414195Y-85950645D01*
X95404585Y-85945964D01*
X95374070Y-85929460D01*
X95374068Y-85929459D01*
X95366174Y-85925190D01*
X95357397Y-85923308D01*
X95356040Y-85922807D01*
X95334100Y-85915753D01*
X95221120Y-85866535D01*
X95204672Y-85859370D01*
X95202524Y-85858410D01*
X95184305Y-85850062D01*
X95184302Y-85850061D01*
X95179889Y-85848039D01*
X95176398Y-85847053D01*
X95176030Y-85846893D01*
X95174674Y-85846520D01*
X95174661Y-85846515D01*
X95168476Y-85844813D01*
X95167676Y-85844590D01*
X94962467Y-85786651D01*
X94954356Y-85784062D01*
X94943534Y-85780200D01*
X94943532Y-85780199D01*
X94938949Y-85778564D01*
X94928556Y-85776584D01*
X94917914Y-85774072D01*
X94915147Y-85773291D01*
X94910837Y-85772074D01*
X94906409Y-85771482D01*
X94906395Y-85771479D01*
X94894339Y-85769867D01*
X94887456Y-85768752D01*
X94728439Y-85738451D01*
X94715699Y-85735308D01*
X94715447Y-85735252D01*
X94710776Y-85733830D01*
X94705951Y-85733145D01*
X94705948Y-85733144D01*
X94687838Y-85730572D01*
X94681996Y-85729601D01*
X94662381Y-85725864D01*
X94656959Y-85725614D01*
X94645065Y-85724498D01*
X94516832Y-85706286D01*
X94506884Y-85704147D01*
X94506850Y-85704308D01*
X94502087Y-85703316D01*
X94497410Y-85701958D01*
X94318097Y-85678863D01*
X92076084Y-85390098D01*
X92011076Y-85361558D01*
X91971818Y-85302402D01*
X91966179Y-85265130D01*
X91966179Y-75603253D01*
X95326776Y-75603253D01*
X95363806Y-75833151D01*
X95365529Y-75838197D01*
X95365529Y-75838198D01*
X95429448Y-76025422D01*
X95439041Y-76053522D01*
X95550331Y-76258067D01*
X95553635Y-76262258D01*
X95691191Y-76436747D01*
X95691195Y-76436751D01*
X95694494Y-76440936D01*
X95698454Y-76444507D01*
X95698455Y-76444509D01*
X95853428Y-76584292D01*
X95867407Y-76596901D01*
X95871914Y-76599756D01*
X95871917Y-76599758D01*
X95881466Y-76605806D01*
X95959594Y-76655292D01*
X95972527Y-76663484D01*
X96019372Y-76716832D01*
X96029938Y-76787038D01*
X96000870Y-76851812D01*
X95970471Y-76877647D01*
X95961569Y-76883049D01*
X95888618Y-76927317D01*
X95884588Y-76930814D01*
X95760855Y-77038184D01*
X95712742Y-77079934D01*
X95709359Y-77084060D01*
X95709355Y-77084064D01*
X95636232Y-77173245D01*
X95565096Y-77260002D01*
X95449900Y-77462373D01*
X95403330Y-77590671D01*
X95388080Y-77632685D01*
X95370448Y-77681259D01*
X95369499Y-77686508D01*
X95369498Y-77686511D01*
X95344092Y-77827009D01*
X95329012Y-77910403D01*
X95326776Y-78143253D01*
X95327625Y-78148524D01*
X95360529Y-78352804D01*
X95363806Y-78373151D01*
X95365529Y-78378197D01*
X95365529Y-78378198D01*
X95435377Y-78582789D01*
X95439041Y-78593522D01*
X95550331Y-78798067D01*
X95553635Y-78802258D01*
X95691191Y-78976747D01*
X95691195Y-78976751D01*
X95694494Y-78980936D01*
X95698454Y-78984507D01*
X95698455Y-78984509D01*
X95854306Y-79125084D01*
X95867407Y-79136901D01*
X95871914Y-79139756D01*
X95871917Y-79139758D01*
X95942690Y-79184585D01*
X96007923Y-79225904D01*
X96054767Y-79279251D01*
X96066500Y-79332347D01*
X96066500Y-84521616D01*
X96065986Y-84532520D01*
X96064334Y-84539911D01*
X96064583Y-84547837D01*
X96064583Y-84547838D01*
X96066438Y-84606866D01*
X96066500Y-84610823D01*
X96066500Y-84639578D01*
X96066996Y-84643503D01*
X96066996Y-84643504D01*
X96067039Y-84643843D01*
X96067972Y-84655687D01*
X96069361Y-84699883D01*
X96071573Y-84707495D01*
X96075012Y-84719333D01*
X96079022Y-84738695D01*
X96081560Y-84758788D01*
X96084476Y-84766153D01*
X96084477Y-84766157D01*
X96097837Y-84799901D01*
X96101681Y-84811128D01*
X96114014Y-84853578D01*
X96118052Y-84860406D01*
X96124323Y-84871011D01*
X96133019Y-84888762D01*
X96137558Y-84900226D01*
X96140478Y-84907600D01*
X96145139Y-84914015D01*
X96166465Y-84943367D01*
X96172983Y-84953290D01*
X96195486Y-84991341D01*
X96195855Y-84991759D01*
X96209938Y-85005842D01*
X96222772Y-85020867D01*
X96234554Y-85037083D01*
X96258319Y-85056743D01*
X96268335Y-85065029D01*
X96277115Y-85073019D01*
X99096618Y-87892523D01*
X99103969Y-87900601D01*
X99108027Y-87906995D01*
X99113806Y-87912422D01*
X99113807Y-87912423D01*
X99156862Y-87952854D01*
X99159704Y-87955609D01*
X99180033Y-87975938D01*
X99183453Y-87978590D01*
X99192462Y-87986284D01*
X99192911Y-87986705D01*
X99228880Y-88047914D01*
X99226048Y-88118854D01*
X99183368Y-88178523D01*
X99036645Y-88291108D01*
X99032872Y-88295254D01*
X99032867Y-88295259D01*
X98944244Y-88392655D01*
X98884026Y-88458834D01*
X98881043Y-88463590D01*
X98881041Y-88463592D01*
X98804393Y-88585780D01*
X98763521Y-88650935D01*
X98678939Y-88861340D01*
X98632953Y-89083398D01*
X98629500Y-89143284D01*
X98629500Y-89586023D01*
X98644659Y-89755872D01*
X98704497Y-89974604D01*
X98802124Y-90179282D01*
X98934453Y-90363438D01*
X98938485Y-90367345D01*
X99075374Y-90500000D01*
X99097302Y-90521250D01*
X99162963Y-90565372D01*
X99280870Y-90644603D01*
X99280876Y-90644606D01*
X99285523Y-90647729D01*
X99290655Y-90649982D01*
X99290659Y-90649984D01*
X99424855Y-90708892D01*
X99493167Y-90738879D01*
X99498625Y-90740189D01*
X99498624Y-90740189D01*
X99657377Y-90778302D01*
X99713671Y-90791817D01*
X99812611Y-90797522D01*
X99934458Y-90804548D01*
X99934461Y-90804548D01*
X99940064Y-90804871D01*
X100165191Y-90777627D01*
X100170553Y-90775977D01*
X100170555Y-90775977D01*
X100273572Y-90744285D01*
X100344563Y-90743373D01*
X100399716Y-90775620D01*
X104616609Y-94992513D01*
X104623969Y-95000601D01*
X104628027Y-95006995D01*
X104633804Y-95012420D01*
X104676878Y-95052869D01*
X104679720Y-95055624D01*
X104700034Y-95075938D01*
X104703445Y-95078583D01*
X104712465Y-95086287D01*
X104744699Y-95116557D01*
X104751643Y-95120374D01*
X104751645Y-95120376D01*
X104762453Y-95126318D01*
X104778977Y-95137172D01*
X104794977Y-95149583D01*
X104802248Y-95152730D01*
X104802249Y-95152730D01*
X104835551Y-95167141D01*
X104846207Y-95172362D01*
X104884952Y-95193662D01*
X104892635Y-95195634D01*
X104892636Y-95195635D01*
X104904568Y-95198699D01*
X104923272Y-95205103D01*
X104934583Y-95209998D01*
X104934590Y-95210000D01*
X104941864Y-95213148D01*
X104969663Y-95217551D01*
X104985538Y-95220065D01*
X104997163Y-95222473D01*
X105034218Y-95231987D01*
X105034220Y-95231987D01*
X105039975Y-95233465D01*
X105040531Y-95233500D01*
X105060446Y-95233500D01*
X105080156Y-95235051D01*
X105099944Y-95238185D01*
X105107835Y-95237439D01*
X105143590Y-95234059D01*
X105155448Y-95233500D01*
X118240500Y-95233500D01*
X118308621Y-95253502D01*
X118355114Y-95307158D01*
X118366500Y-95359500D01*
X118366500Y-95570971D01*
X118346498Y-95639092D01*
X118292842Y-95685585D01*
X118222568Y-95695689D01*
X118189855Y-95686345D01*
X118156320Y-95671624D01*
X118086833Y-95641121D01*
X117915551Y-95600000D01*
X117871786Y-95589493D01*
X117871785Y-95589493D01*
X117866329Y-95588183D01*
X117752699Y-95581631D01*
X117645542Y-95575452D01*
X117645539Y-95575452D01*
X117639936Y-95575129D01*
X117414809Y-95602373D01*
X117409447Y-95604023D01*
X117409445Y-95604023D01*
X117338739Y-95625775D01*
X117198064Y-95669052D01*
X117193080Y-95671624D01*
X117193081Y-95671624D01*
X117002577Y-95769951D01*
X116996553Y-95773060D01*
X116816645Y-95911108D01*
X116812872Y-95915254D01*
X116812867Y-95915259D01*
X116735497Y-96000288D01*
X116664026Y-96078834D01*
X116661043Y-96083589D01*
X116661041Y-96083592D01*
X116547620Y-96264401D01*
X116543521Y-96270935D01*
X116541427Y-96276144D01*
X116541426Y-96276146D01*
X116536863Y-96287497D01*
X116492896Y-96343241D01*
X116419956Y-96366500D01*
X116396450Y-96366500D01*
X116328329Y-96346498D01*
X116282724Y-96294744D01*
X116260045Y-96247196D01*
X116237876Y-96200718D01*
X116105547Y-96016562D01*
X116021522Y-95935136D01*
X115946726Y-95862653D01*
X115946723Y-95862651D01*
X115942698Y-95858750D01*
X115848325Y-95795334D01*
X115759130Y-95735397D01*
X115759124Y-95735394D01*
X115754477Y-95732271D01*
X115749345Y-95730018D01*
X115749341Y-95730016D01*
X115551975Y-95643378D01*
X115551973Y-95643377D01*
X115546833Y-95641121D01*
X115375551Y-95600000D01*
X115331786Y-95589493D01*
X115331785Y-95589493D01*
X115326329Y-95588183D01*
X115212699Y-95581631D01*
X115105542Y-95575452D01*
X115105539Y-95575452D01*
X115099936Y-95575129D01*
X114874809Y-95602373D01*
X114869447Y-95604023D01*
X114869445Y-95604023D01*
X114798739Y-95625775D01*
X114658064Y-95669052D01*
X114653080Y-95671624D01*
X114653081Y-95671624D01*
X114462577Y-95769951D01*
X114456553Y-95773060D01*
X114276645Y-95911108D01*
X114272872Y-95915254D01*
X114272867Y-95915259D01*
X114195497Y-96000288D01*
X114124026Y-96078834D01*
X114121043Y-96083589D01*
X114121041Y-96083592D01*
X114007620Y-96264401D01*
X114003521Y-96270935D01*
X114001427Y-96276144D01*
X114001426Y-96276146D01*
X113996863Y-96287497D01*
X113952896Y-96343241D01*
X113879956Y-96366500D01*
X113856450Y-96366500D01*
X113788329Y-96346498D01*
X113742724Y-96294744D01*
X113720045Y-96247196D01*
X113697876Y-96200718D01*
X113565547Y-96016562D01*
X113481522Y-95935136D01*
X113406726Y-95862653D01*
X113406723Y-95862651D01*
X113402698Y-95858750D01*
X113308325Y-95795334D01*
X113219130Y-95735397D01*
X113219124Y-95735394D01*
X113214477Y-95732271D01*
X113209345Y-95730018D01*
X113209341Y-95730016D01*
X113011975Y-95643378D01*
X113011973Y-95643377D01*
X113006833Y-95641121D01*
X112835551Y-95600000D01*
X112791786Y-95589493D01*
X112791785Y-95589493D01*
X112786329Y-95588183D01*
X112672699Y-95581631D01*
X112565542Y-95575452D01*
X112565539Y-95575452D01*
X112559936Y-95575129D01*
X112334809Y-95602373D01*
X112329447Y-95604023D01*
X112329445Y-95604023D01*
X112258739Y-95625775D01*
X112118064Y-95669052D01*
X112113080Y-95671624D01*
X112113081Y-95671624D01*
X111922577Y-95769951D01*
X111916553Y-95773060D01*
X111736645Y-95911108D01*
X111732872Y-95915254D01*
X111732867Y-95915259D01*
X111655497Y-96000288D01*
X111584026Y-96078834D01*
X111581043Y-96083589D01*
X111581041Y-96083592D01*
X111467620Y-96264401D01*
X111463521Y-96270935D01*
X111461427Y-96276144D01*
X111461426Y-96276146D01*
X111456863Y-96287497D01*
X111412896Y-96343241D01*
X111339956Y-96366500D01*
X111316450Y-96366500D01*
X111248329Y-96346498D01*
X111202724Y-96294744D01*
X111180045Y-96247196D01*
X111157876Y-96200718D01*
X111025547Y-96016562D01*
X110941522Y-95935136D01*
X110866726Y-95862653D01*
X110866723Y-95862651D01*
X110862698Y-95858750D01*
X110768325Y-95795334D01*
X110679130Y-95735397D01*
X110679124Y-95735394D01*
X110674477Y-95732271D01*
X110669345Y-95730018D01*
X110669341Y-95730016D01*
X110471975Y-95643378D01*
X110471973Y-95643377D01*
X110466833Y-95641121D01*
X110295551Y-95600000D01*
X110251786Y-95589493D01*
X110251785Y-95589493D01*
X110246329Y-95588183D01*
X110132699Y-95581631D01*
X110025542Y-95575452D01*
X110025539Y-95575452D01*
X110019936Y-95575129D01*
X109794809Y-95602373D01*
X109789447Y-95604023D01*
X109789445Y-95604023D01*
X109718739Y-95625775D01*
X109578064Y-95669052D01*
X109573080Y-95671624D01*
X109573081Y-95671624D01*
X109382577Y-95769951D01*
X109376553Y-95773060D01*
X109196645Y-95911108D01*
X109192872Y-95915254D01*
X109192867Y-95915259D01*
X109115497Y-96000288D01*
X109044026Y-96078834D01*
X109041043Y-96083589D01*
X109041041Y-96083592D01*
X108927620Y-96264401D01*
X108923521Y-96270935D01*
X108921427Y-96276144D01*
X108921426Y-96276146D01*
X108916863Y-96287497D01*
X108872896Y-96343241D01*
X108799956Y-96366500D01*
X108776450Y-96366500D01*
X108708329Y-96346498D01*
X108662724Y-96294744D01*
X108640045Y-96247196D01*
X108617876Y-96200718D01*
X108485547Y-96016562D01*
X108401522Y-95935136D01*
X108326726Y-95862653D01*
X108326723Y-95862651D01*
X108322698Y-95858750D01*
X108228325Y-95795334D01*
X108139130Y-95735397D01*
X108139124Y-95735394D01*
X108134477Y-95732271D01*
X108129345Y-95730018D01*
X108129341Y-95730016D01*
X107931975Y-95643378D01*
X107931973Y-95643377D01*
X107926833Y-95641121D01*
X107755551Y-95600000D01*
X107711786Y-95589493D01*
X107711785Y-95589493D01*
X107706329Y-95588183D01*
X107592699Y-95581631D01*
X107485542Y-95575452D01*
X107485539Y-95575452D01*
X107479936Y-95575129D01*
X107254809Y-95602373D01*
X107249447Y-95604023D01*
X107249445Y-95604023D01*
X107178739Y-95625775D01*
X107038064Y-95669052D01*
X107033080Y-95671624D01*
X107033081Y-95671624D01*
X106842577Y-95769951D01*
X106836553Y-95773060D01*
X106656645Y-95911108D01*
X106652872Y-95915254D01*
X106652867Y-95915259D01*
X106575497Y-96000288D01*
X106504026Y-96078834D01*
X106501043Y-96083589D01*
X106501041Y-96083592D01*
X106387620Y-96264401D01*
X106383521Y-96270935D01*
X106381427Y-96276144D01*
X106381426Y-96276146D01*
X106376863Y-96287497D01*
X106332896Y-96343241D01*
X106259956Y-96366500D01*
X106236450Y-96366500D01*
X106168329Y-96346498D01*
X106122724Y-96294744D01*
X106100045Y-96247196D01*
X106077876Y-96200718D01*
X105945547Y-96016562D01*
X105861522Y-95935136D01*
X105786726Y-95862653D01*
X105786723Y-95862651D01*
X105782698Y-95858750D01*
X105688325Y-95795334D01*
X105599130Y-95735397D01*
X105599124Y-95735394D01*
X105594477Y-95732271D01*
X105589345Y-95730018D01*
X105589341Y-95730016D01*
X105391975Y-95643378D01*
X105391973Y-95643377D01*
X105386833Y-95641121D01*
X105215551Y-95600000D01*
X105171786Y-95589493D01*
X105171785Y-95589493D01*
X105166329Y-95588183D01*
X105052699Y-95581631D01*
X104945542Y-95575452D01*
X104945539Y-95575452D01*
X104939936Y-95575129D01*
X104714809Y-95602373D01*
X104709447Y-95604023D01*
X104709445Y-95604023D01*
X104638739Y-95625775D01*
X104498064Y-95669052D01*
X104493080Y-95671624D01*
X104493081Y-95671624D01*
X104302577Y-95769951D01*
X104296553Y-95773060D01*
X104116645Y-95911108D01*
X104112872Y-95915254D01*
X104112867Y-95915259D01*
X104035497Y-96000288D01*
X103964026Y-96078834D01*
X103961043Y-96083589D01*
X103961041Y-96083592D01*
X103847620Y-96264401D01*
X103843521Y-96270935D01*
X103841427Y-96276144D01*
X103841426Y-96276146D01*
X103836863Y-96287497D01*
X103792896Y-96343241D01*
X103719956Y-96366500D01*
X103696450Y-96366500D01*
X103628329Y-96346498D01*
X103582724Y-96294744D01*
X103560045Y-96247196D01*
X103537876Y-96200718D01*
X103405547Y-96016562D01*
X103321522Y-95935136D01*
X103246726Y-95862653D01*
X103246723Y-95862651D01*
X103242698Y-95858750D01*
X103148325Y-95795334D01*
X103059130Y-95735397D01*
X103059124Y-95735394D01*
X103054477Y-95732271D01*
X103049345Y-95730018D01*
X103049341Y-95730016D01*
X102851975Y-95643378D01*
X102851973Y-95643377D01*
X102846833Y-95641121D01*
X102675551Y-95600000D01*
X102631786Y-95589493D01*
X102631785Y-95589493D01*
X102626329Y-95588183D01*
X102512699Y-95581631D01*
X102405542Y-95575452D01*
X102405539Y-95575452D01*
X102399936Y-95575129D01*
X102174809Y-95602373D01*
X102169447Y-95604023D01*
X102169445Y-95604023D01*
X102098739Y-95625775D01*
X101958064Y-95669052D01*
X101953080Y-95671624D01*
X101953081Y-95671624D01*
X101762577Y-95769951D01*
X101756553Y-95773060D01*
X101576645Y-95911108D01*
X101572872Y-95915254D01*
X101572867Y-95915259D01*
X101495497Y-96000288D01*
X101424026Y-96078834D01*
X101405254Y-96108758D01*
X101352113Y-96155835D01*
X101281954Y-96166708D01*
X101217054Y-96137925D01*
X101178018Y-96078623D01*
X101172839Y-96050793D01*
X101170755Y-96021659D01*
X101170755Y-96021658D01*
X101170273Y-96014921D01*
X101129096Y-95874684D01*
X101096213Y-95823518D01*
X101054949Y-95759309D01*
X101054947Y-95759306D01*
X101050077Y-95751729D01*
X101043267Y-95745828D01*
X100946431Y-95661918D01*
X100946428Y-95661916D01*
X100939619Y-95656016D01*
X100911946Y-95643378D01*
X100814864Y-95599042D01*
X100814863Y-95599042D01*
X100806670Y-95595300D01*
X100797755Y-95594018D01*
X100797754Y-95594018D01*
X100666448Y-95575139D01*
X100666441Y-95575138D01*
X100662000Y-95574500D01*
X99138000Y-95574500D01*
X99064921Y-95579727D01*
X99011884Y-95595300D01*
X98933330Y-95618365D01*
X98933328Y-95618366D01*
X98924684Y-95620904D01*
X98917105Y-95625775D01*
X98809309Y-95695051D01*
X98809306Y-95695053D01*
X98801729Y-95699923D01*
X98795828Y-95706733D01*
X98711918Y-95803569D01*
X98711916Y-95803572D01*
X98706016Y-95810381D01*
X98702272Y-95818579D01*
X98652027Y-95928601D01*
X98645300Y-95943330D01*
X98644018Y-95952245D01*
X98644018Y-95952246D01*
X98625139Y-96083552D01*
X98625138Y-96083559D01*
X98624500Y-96088000D01*
X98624500Y-97912000D01*
X98629727Y-97985079D01*
X98637746Y-98012390D01*
X98661482Y-98093226D01*
X98670904Y-98125316D01*
X98675775Y-98132895D01*
X98745051Y-98240691D01*
X98745053Y-98240694D01*
X98749923Y-98248271D01*
X98756733Y-98254172D01*
X98853569Y-98338082D01*
X98853572Y-98338084D01*
X98860381Y-98343984D01*
X98993330Y-98404700D01*
X99002245Y-98405982D01*
X99002246Y-98405982D01*
X99133552Y-98424861D01*
X99133559Y-98424862D01*
X99138000Y-98425500D01*
X100662000Y-98425500D01*
X100735079Y-98420273D01*
X100854562Y-98385190D01*
X100866670Y-98381635D01*
X100866672Y-98381634D01*
X100875316Y-98379096D01*
X100936175Y-98339984D01*
X100990691Y-98304949D01*
X100990694Y-98304947D01*
X100998271Y-98300077D01*
X101043087Y-98248357D01*
X101088082Y-98196431D01*
X101088084Y-98196428D01*
X101093984Y-98189619D01*
X101114645Y-98144377D01*
X101150958Y-98064864D01*
X101150958Y-98064863D01*
X101154700Y-98056670D01*
X101172271Y-97934460D01*
X101201763Y-97869881D01*
X101261489Y-97831497D01*
X101332485Y-97831497D01*
X101392212Y-97869880D01*
X101399310Y-97878867D01*
X101471171Y-97978872D01*
X101471177Y-97978879D01*
X101474453Y-97983438D01*
X101637302Y-98141250D01*
X101692681Y-98178463D01*
X101820870Y-98264603D01*
X101820876Y-98264606D01*
X101825523Y-98267729D01*
X101830655Y-98269982D01*
X101830659Y-98269984D01*
X102023688Y-98354718D01*
X102033167Y-98358879D01*
X102038625Y-98360189D01*
X102038624Y-98360189D01*
X102208440Y-98400958D01*
X102253671Y-98411817D01*
X102352611Y-98417522D01*
X102474458Y-98424548D01*
X102474461Y-98424548D01*
X102480064Y-98424871D01*
X102705191Y-98397627D01*
X102710553Y-98395977D01*
X102710555Y-98395977D01*
X102831144Y-98358879D01*
X102921936Y-98330948D01*
X103070686Y-98254172D01*
X103118464Y-98229512D01*
X103118465Y-98229512D01*
X103123447Y-98226940D01*
X103303355Y-98088892D01*
X103307128Y-98084746D01*
X103307133Y-98084741D01*
X103452195Y-97925319D01*
X103455974Y-97921166D01*
X103458959Y-97916408D01*
X103573494Y-97733824D01*
X103573495Y-97733821D01*
X103576479Y-97729065D01*
X103580157Y-97719917D01*
X103583137Y-97712503D01*
X103627104Y-97656759D01*
X103700044Y-97633500D01*
X103723550Y-97633500D01*
X103791671Y-97653502D01*
X103837276Y-97705256D01*
X103882124Y-97799282D01*
X104014453Y-97983438D01*
X104177302Y-98141250D01*
X104232681Y-98178463D01*
X104360870Y-98264603D01*
X104360876Y-98264606D01*
X104365523Y-98267729D01*
X104370655Y-98269982D01*
X104370659Y-98269984D01*
X104563688Y-98354718D01*
X104573167Y-98358879D01*
X104578625Y-98360189D01*
X104578624Y-98360189D01*
X104748440Y-98400958D01*
X104793671Y-98411817D01*
X104892611Y-98417522D01*
X105014458Y-98424548D01*
X105014461Y-98424548D01*
X105020064Y-98424871D01*
X105245191Y-98397627D01*
X105250553Y-98395977D01*
X105250555Y-98395977D01*
X105371144Y-98358879D01*
X105461936Y-98330948D01*
X105610686Y-98254172D01*
X105658464Y-98229512D01*
X105658465Y-98229512D01*
X105663447Y-98226940D01*
X105843355Y-98088892D01*
X105847128Y-98084746D01*
X105847133Y-98084741D01*
X105992195Y-97925319D01*
X105995974Y-97921166D01*
X105998959Y-97916408D01*
X106113494Y-97733824D01*
X106113495Y-97733821D01*
X106116479Y-97729065D01*
X106120157Y-97719917D01*
X106123137Y-97712503D01*
X106167104Y-97656759D01*
X106240044Y-97633500D01*
X106263550Y-97633500D01*
X106331671Y-97653502D01*
X106377276Y-97705256D01*
X106422124Y-97799282D01*
X106554453Y-97983438D01*
X106717302Y-98141250D01*
X106772681Y-98178463D01*
X106900870Y-98264603D01*
X106900876Y-98264606D01*
X106905523Y-98267729D01*
X106910655Y-98269982D01*
X106910659Y-98269984D01*
X107103688Y-98354718D01*
X107113167Y-98358879D01*
X107118625Y-98360189D01*
X107118624Y-98360189D01*
X107288440Y-98400958D01*
X107333671Y-98411817D01*
X107432611Y-98417522D01*
X107554458Y-98424548D01*
X107554461Y-98424548D01*
X107560064Y-98424871D01*
X107785191Y-98397627D01*
X107790553Y-98395977D01*
X107790555Y-98395977D01*
X107911144Y-98358879D01*
X108001936Y-98330948D01*
X108150686Y-98254172D01*
X108198464Y-98229512D01*
X108198465Y-98229512D01*
X108203447Y-98226940D01*
X108383355Y-98088892D01*
X108387128Y-98084746D01*
X108387133Y-98084741D01*
X108532195Y-97925319D01*
X108535974Y-97921166D01*
X108538959Y-97916408D01*
X108653494Y-97733824D01*
X108653495Y-97733821D01*
X108656479Y-97729065D01*
X108660157Y-97719917D01*
X108663137Y-97712503D01*
X108707104Y-97656759D01*
X108780044Y-97633500D01*
X108803550Y-97633500D01*
X108871671Y-97653502D01*
X108917276Y-97705256D01*
X108962124Y-97799282D01*
X109094453Y-97983438D01*
X109257302Y-98141250D01*
X109312681Y-98178463D01*
X109440870Y-98264603D01*
X109440876Y-98264606D01*
X109445523Y-98267729D01*
X109450655Y-98269982D01*
X109450659Y-98269984D01*
X109643688Y-98354718D01*
X109653167Y-98358879D01*
X109658625Y-98360189D01*
X109658624Y-98360189D01*
X109828440Y-98400958D01*
X109873671Y-98411817D01*
X109972611Y-98417522D01*
X110094458Y-98424548D01*
X110094461Y-98424548D01*
X110100064Y-98424871D01*
X110325191Y-98397627D01*
X110330553Y-98395977D01*
X110330555Y-98395977D01*
X110451144Y-98358879D01*
X110541936Y-98330948D01*
X110690686Y-98254172D01*
X110738464Y-98229512D01*
X110738465Y-98229512D01*
X110743447Y-98226940D01*
X110923355Y-98088892D01*
X110927128Y-98084746D01*
X110927133Y-98084741D01*
X111072195Y-97925319D01*
X111075974Y-97921166D01*
X111078959Y-97916408D01*
X111193494Y-97733824D01*
X111193495Y-97733821D01*
X111196479Y-97729065D01*
X111200157Y-97719917D01*
X111203137Y-97712503D01*
X111247104Y-97656759D01*
X111320044Y-97633500D01*
X111343550Y-97633500D01*
X111411671Y-97653502D01*
X111457276Y-97705256D01*
X111502124Y-97799282D01*
X111634453Y-97983438D01*
X111797302Y-98141250D01*
X111852681Y-98178463D01*
X111980870Y-98264603D01*
X111980876Y-98264606D01*
X111985523Y-98267729D01*
X111990655Y-98269982D01*
X111990659Y-98269984D01*
X112183688Y-98354718D01*
X112193167Y-98358879D01*
X112198625Y-98360189D01*
X112198624Y-98360189D01*
X112368440Y-98400958D01*
X112413671Y-98411817D01*
X112512611Y-98417522D01*
X112634458Y-98424548D01*
X112634461Y-98424548D01*
X112640064Y-98424871D01*
X112865191Y-98397627D01*
X112870553Y-98395977D01*
X112870555Y-98395977D01*
X112991144Y-98358879D01*
X113081936Y-98330948D01*
X113230686Y-98254172D01*
X113278464Y-98229512D01*
X113278465Y-98229512D01*
X113283447Y-98226940D01*
X113463355Y-98088892D01*
X113467128Y-98084746D01*
X113467133Y-98084741D01*
X113612195Y-97925319D01*
X113615974Y-97921166D01*
X113618959Y-97916408D01*
X113733494Y-97733824D01*
X113733495Y-97733821D01*
X113736479Y-97729065D01*
X113740157Y-97719917D01*
X113743137Y-97712503D01*
X113787104Y-97656759D01*
X113860044Y-97633500D01*
X113883550Y-97633500D01*
X113951671Y-97653502D01*
X113997276Y-97705256D01*
X114042124Y-97799282D01*
X114174453Y-97983438D01*
X114337302Y-98141250D01*
X114392681Y-98178463D01*
X114520870Y-98264603D01*
X114520876Y-98264606D01*
X114525523Y-98267729D01*
X114530655Y-98269982D01*
X114530659Y-98269984D01*
X114723688Y-98354718D01*
X114733167Y-98358879D01*
X114738625Y-98360189D01*
X114738624Y-98360189D01*
X114908440Y-98400958D01*
X114953671Y-98411817D01*
X115052611Y-98417522D01*
X115174458Y-98424548D01*
X115174461Y-98424548D01*
X115180064Y-98424871D01*
X115405191Y-98397627D01*
X115410553Y-98395977D01*
X115410555Y-98395977D01*
X115531144Y-98358879D01*
X115621936Y-98330948D01*
X115770686Y-98254172D01*
X115818464Y-98229512D01*
X115818465Y-98229512D01*
X115823447Y-98226940D01*
X116003355Y-98088892D01*
X116007128Y-98084746D01*
X116007133Y-98084741D01*
X116152195Y-97925319D01*
X116155974Y-97921166D01*
X116158959Y-97916408D01*
X116273494Y-97733824D01*
X116273495Y-97733821D01*
X116276479Y-97729065D01*
X116280157Y-97719917D01*
X116283137Y-97712503D01*
X116327104Y-97656759D01*
X116400044Y-97633500D01*
X116423550Y-97633500D01*
X116491671Y-97653502D01*
X116537276Y-97705256D01*
X116582124Y-97799282D01*
X116714453Y-97983438D01*
X116877302Y-98141250D01*
X116932681Y-98178463D01*
X117060870Y-98264603D01*
X117060876Y-98264606D01*
X117065523Y-98267729D01*
X117070655Y-98269982D01*
X117070659Y-98269984D01*
X117263688Y-98354718D01*
X117273167Y-98358879D01*
X117278625Y-98360189D01*
X117278624Y-98360189D01*
X117448440Y-98400958D01*
X117493671Y-98411817D01*
X117592611Y-98417522D01*
X117714458Y-98424548D01*
X117714461Y-98424548D01*
X117720064Y-98424871D01*
X117945191Y-98397627D01*
X117950553Y-98395977D01*
X117950555Y-98395977D01*
X118071144Y-98358879D01*
X118161936Y-98330948D01*
X118310686Y-98254172D01*
X118358464Y-98229512D01*
X118358465Y-98229512D01*
X118363447Y-98226940D01*
X118543355Y-98088892D01*
X118547128Y-98084746D01*
X118547133Y-98084741D01*
X118692195Y-97925319D01*
X118695974Y-97921166D01*
X118698959Y-97916408D01*
X118813496Y-97733821D01*
X118813498Y-97733817D01*
X118816479Y-97729065D01*
X118901061Y-97518660D01*
X118947047Y-97296602D01*
X118947419Y-97290155D01*
X118950395Y-97238539D01*
X118950395Y-97238535D01*
X118950500Y-97236716D01*
X118950500Y-97050594D01*
X118970502Y-96982473D01*
X119024158Y-96935980D01*
X119094432Y-96925876D01*
X119159012Y-96955370D01*
X119165595Y-96961499D01*
X119796609Y-97592513D01*
X119803969Y-97600601D01*
X119808027Y-97606995D01*
X119813804Y-97612420D01*
X119856878Y-97652869D01*
X119859720Y-97655624D01*
X119880034Y-97675938D01*
X119883445Y-97678583D01*
X119892465Y-97686287D01*
X119924699Y-97716557D01*
X119931643Y-97720374D01*
X119931645Y-97720376D01*
X119942453Y-97726318D01*
X119958977Y-97737172D01*
X119968711Y-97744723D01*
X119968713Y-97744724D01*
X119974977Y-97749583D01*
X120015561Y-97767146D01*
X120026190Y-97772353D01*
X120064952Y-97793662D01*
X120084578Y-97798701D01*
X120103271Y-97805102D01*
X120121865Y-97813148D01*
X120162511Y-97819586D01*
X120165531Y-97820064D01*
X120177154Y-97822471D01*
X120219975Y-97833465D01*
X120220531Y-97833500D01*
X120240447Y-97833500D01*
X120260157Y-97835051D01*
X120279945Y-97838185D01*
X120287837Y-97837439D01*
X120323593Y-97834059D01*
X120335451Y-97833500D01*
X120554113Y-97833500D01*
X120623106Y-97854068D01*
X120733211Y-97926119D01*
X120903197Y-97989336D01*
X120910178Y-97990267D01*
X120910180Y-97990268D01*
X120959766Y-97996884D01*
X121082963Y-98013322D01*
X121089974Y-98012684D01*
X121089978Y-98012684D01*
X121230059Y-97999934D01*
X121263577Y-97996884D01*
X121270279Y-97994706D01*
X121270281Y-97994706D01*
X121429361Y-97943018D01*
X121429364Y-97943017D01*
X121436060Y-97940841D01*
X121531910Y-97883703D01*
X121585789Y-97851585D01*
X121585791Y-97851584D01*
X121591841Y-97847977D01*
X121723177Y-97722908D01*
X121789290Y-97623399D01*
X121819639Y-97577721D01*
X121819640Y-97577719D01*
X121823540Y-97571849D01*
X121887942Y-97402309D01*
X121911215Y-97236716D01*
X121912632Y-97226636D01*
X121912632Y-97226633D01*
X121913183Y-97222714D01*
X121913500Y-97200000D01*
X121893284Y-97019770D01*
X121833641Y-96848498D01*
X121834033Y-96848362D01*
X121823319Y-96782486D01*
X121830557Y-96753378D01*
X121887942Y-96602309D01*
X121903185Y-96493849D01*
X121912632Y-96426636D01*
X121912632Y-96426633D01*
X121913183Y-96422714D01*
X121913339Y-96411537D01*
X121913445Y-96403962D01*
X121913445Y-96403957D01*
X121913500Y-96400000D01*
X121893284Y-96219770D01*
X121886650Y-96200718D01*
X121849641Y-96094443D01*
X121833641Y-96048498D01*
X121834033Y-96048362D01*
X121823319Y-95982486D01*
X121830557Y-95953378D01*
X121887942Y-95802309D01*
X121906309Y-95671624D01*
X121912632Y-95626636D01*
X121912632Y-95626633D01*
X121913183Y-95622714D01*
X121913500Y-95600000D01*
X121893284Y-95419770D01*
X121833641Y-95248498D01*
X121834033Y-95248362D01*
X121823319Y-95182486D01*
X121830557Y-95153378D01*
X121887942Y-95002309D01*
X121913183Y-94822714D01*
X121913500Y-94800000D01*
X121893284Y-94619770D01*
X121833641Y-94448498D01*
X121789507Y-94377868D01*
X127586616Y-94377868D01*
X127603166Y-94664892D01*
X127603991Y-94669097D01*
X127603992Y-94669105D01*
X127615223Y-94726348D01*
X127658516Y-94947014D01*
X127659903Y-94951065D01*
X127749634Y-95213148D01*
X127751642Y-95219014D01*
X127880822Y-95475859D01*
X127982368Y-95623610D01*
X128038380Y-95705107D01*
X128043664Y-95712796D01*
X128237155Y-95925440D01*
X128457716Y-96109857D01*
X128461357Y-96112141D01*
X128697624Y-96260352D01*
X128697628Y-96260354D01*
X128701264Y-96262635D01*
X128705174Y-96264400D01*
X128705175Y-96264401D01*
X128731188Y-96276146D01*
X128963293Y-96380945D01*
X128967412Y-96382165D01*
X129234841Y-96461382D01*
X129234846Y-96461383D01*
X129238954Y-96462600D01*
X129243188Y-96463248D01*
X129243193Y-96463249D01*
X129496037Y-96501940D01*
X129523147Y-96506088D01*
X129669498Y-96508387D01*
X129806321Y-96510537D01*
X129806327Y-96510537D01*
X129810612Y-96510604D01*
X129814864Y-96510089D01*
X129814872Y-96510089D01*
X130036529Y-96483265D01*
X130096030Y-96476064D01*
X130100179Y-96474976D01*
X130100182Y-96474975D01*
X130369970Y-96404198D01*
X130374121Y-96403109D01*
X130639736Y-96293087D01*
X130649303Y-96287497D01*
X130884255Y-96150202D01*
X130884257Y-96150200D01*
X130887963Y-96148035D01*
X131114208Y-95970637D01*
X131140671Y-95943330D01*
X131256776Y-95823518D01*
X131314283Y-95764175D01*
X131316816Y-95760727D01*
X131316820Y-95760722D01*
X131481949Y-95535925D01*
X131484487Y-95532470D01*
X131515224Y-95475859D01*
X131619621Y-95283585D01*
X131619622Y-95283583D01*
X131621671Y-95279809D01*
X131697792Y-95078362D01*
X131721777Y-95014887D01*
X131721778Y-95014883D01*
X131723295Y-95010869D01*
X131787479Y-94730624D01*
X131792970Y-94669105D01*
X131812816Y-94446728D01*
X131812816Y-94446726D01*
X131813036Y-94444262D01*
X131813500Y-94400000D01*
X131807970Y-94318879D01*
X131794238Y-94117442D01*
X131794237Y-94117436D01*
X131793946Y-94113165D01*
X131789409Y-94091254D01*
X131736513Y-93835835D01*
X131735644Y-93831638D01*
X131639674Y-93560628D01*
X131507812Y-93305150D01*
X131342498Y-93069931D01*
X131339573Y-93066783D01*
X131149711Y-92862468D01*
X131149708Y-92862466D01*
X131146790Y-92859325D01*
X131143474Y-92856611D01*
X131143471Y-92856608D01*
X130927629Y-92679942D01*
X130927622Y-92679937D01*
X130924311Y-92677227D01*
X130679176Y-92527009D01*
X130675240Y-92525281D01*
X130419851Y-92413172D01*
X130419847Y-92413171D01*
X130415923Y-92411448D01*
X130139421Y-92332685D01*
X129925987Y-92302309D01*
X129859041Y-92292781D01*
X129859039Y-92292781D01*
X129854789Y-92292176D01*
X129703976Y-92291387D01*
X129571579Y-92290693D01*
X129571573Y-92290693D01*
X129567292Y-92290671D01*
X129563048Y-92291230D01*
X129563044Y-92291230D01*
X129437864Y-92307710D01*
X129282251Y-92328197D01*
X129278111Y-92329330D01*
X129278109Y-92329330D01*
X129261547Y-92333861D01*
X129004940Y-92404061D01*
X128983580Y-92413172D01*
X128744433Y-92515176D01*
X128744426Y-92515180D01*
X128740491Y-92516858D01*
X128736810Y-92519061D01*
X128497479Y-92662297D01*
X128497475Y-92662300D01*
X128493797Y-92664501D01*
X128490454Y-92667179D01*
X128490450Y-92667182D01*
X128395666Y-92743119D01*
X128269423Y-92844259D01*
X128266479Y-92847361D01*
X128266475Y-92847365D01*
X128093417Y-93029729D01*
X128071520Y-93052804D01*
X127903752Y-93286279D01*
X127769222Y-93540362D01*
X127670419Y-93810352D01*
X127609173Y-94091254D01*
X127608837Y-94095524D01*
X127591259Y-94318879D01*
X127586616Y-94377868D01*
X121789507Y-94377868D01*
X121752646Y-94318878D01*
X121733500Y-94252109D01*
X121733500Y-93678384D01*
X121734014Y-93667480D01*
X121735666Y-93660089D01*
X121733562Y-93593134D01*
X121733500Y-93589177D01*
X121733500Y-93560422D01*
X121732961Y-93556155D01*
X121732027Y-93544305D01*
X121731904Y-93540362D01*
X121730639Y-93500117D01*
X121724987Y-93480661D01*
X121720978Y-93461302D01*
X121719434Y-93449079D01*
X121719434Y-93449078D01*
X121718440Y-93441212D01*
X121713230Y-93428054D01*
X121702168Y-93400111D01*
X121698323Y-93388882D01*
X121688199Y-93354035D01*
X121688198Y-93354034D01*
X121685987Y-93346422D01*
X121675674Y-93328983D01*
X121666978Y-93311231D01*
X121662442Y-93299775D01*
X121659522Y-93292400D01*
X121633533Y-93256629D01*
X121627016Y-93246708D01*
X121607548Y-93213790D01*
X121604514Y-93208659D01*
X121604145Y-93208241D01*
X121590062Y-93194158D01*
X121577228Y-93179133D01*
X121565446Y-93162917D01*
X121531664Y-93134970D01*
X121522885Y-93126981D01*
X121425633Y-93029729D01*
X121391607Y-92967417D01*
X121396672Y-92896602D01*
X121439219Y-92839766D01*
X121450207Y-92832408D01*
X121521663Y-92789811D01*
X121585789Y-92751585D01*
X121585791Y-92751584D01*
X121591841Y-92747977D01*
X121723177Y-92622908D01*
X121823540Y-92471849D01*
X121887942Y-92302309D01*
X121913183Y-92122714D01*
X121913500Y-92100000D01*
X121893284Y-91919770D01*
X121833641Y-91748498D01*
X121834033Y-91748362D01*
X121823319Y-91682486D01*
X121830557Y-91653378D01*
X121887942Y-91502309D01*
X121913183Y-91322714D01*
X121913500Y-91300000D01*
X121893284Y-91119770D01*
X121833641Y-90948498D01*
X121834033Y-90948362D01*
X121823319Y-90882486D01*
X121830557Y-90853378D01*
X121887942Y-90702309D01*
X121913183Y-90522714D01*
X121913500Y-90500000D01*
X121893284Y-90319770D01*
X121833641Y-90148498D01*
X121834033Y-90148362D01*
X121823319Y-90082486D01*
X121830557Y-90053378D01*
X121887942Y-89902309D01*
X121906030Y-89773607D01*
X121912632Y-89726636D01*
X121912632Y-89726633D01*
X121913183Y-89722714D01*
X121913500Y-89700000D01*
X121893284Y-89519770D01*
X121833641Y-89348498D01*
X121737535Y-89194696D01*
X121688292Y-89145108D01*
X121627010Y-89083398D01*
X121609742Y-89066009D01*
X121456615Y-88968831D01*
X121285763Y-88907994D01*
X121278771Y-88907160D01*
X121278770Y-88907160D01*
X121195721Y-88897257D01*
X121105679Y-88886520D01*
X121098676Y-88887256D01*
X121098675Y-88887256D01*
X120932321Y-88904740D01*
X120932317Y-88904741D01*
X120925313Y-88905477D01*
X120918642Y-88907748D01*
X120760299Y-88961652D01*
X120760296Y-88961653D01*
X120753629Y-88963923D01*
X120619405Y-89046498D01*
X120617259Y-89047818D01*
X120551237Y-89066500D01*
X120214594Y-89066500D01*
X120146473Y-89046498D01*
X120125499Y-89029595D01*
X120083391Y-88987487D01*
X120076031Y-88979399D01*
X120071973Y-88973005D01*
X120023121Y-88927130D01*
X120020280Y-88924376D01*
X119999966Y-88904062D01*
X119996555Y-88901417D01*
X119987533Y-88893711D01*
X119979876Y-88886520D01*
X119955301Y-88863443D01*
X119948357Y-88859626D01*
X119948355Y-88859624D01*
X119937547Y-88853682D01*
X119921023Y-88842828D01*
X119911286Y-88835275D01*
X119911285Y-88835275D01*
X119905023Y-88830417D01*
X119864447Y-88812858D01*
X119853790Y-88807637D01*
X119815048Y-88786338D01*
X119807365Y-88784366D01*
X119807364Y-88784365D01*
X119795432Y-88781301D01*
X119776728Y-88774897D01*
X119765415Y-88770001D01*
X119765408Y-88769999D01*
X119758136Y-88766852D01*
X119750312Y-88765613D01*
X119750309Y-88765612D01*
X119714465Y-88759935D01*
X119702844Y-88757528D01*
X119665782Y-88748013D01*
X119665781Y-88748013D01*
X119660025Y-88746535D01*
X119659469Y-88746500D01*
X119639548Y-88746500D01*
X119619838Y-88744949D01*
X119607886Y-88743056D01*
X119607885Y-88743056D01*
X119600056Y-88741816D01*
X119592164Y-88742562D01*
X119556418Y-88745941D01*
X119544560Y-88746500D01*
X118936450Y-88746500D01*
X118868329Y-88726498D01*
X118822724Y-88674744D01*
X118780290Y-88585780D01*
X118780289Y-88585778D01*
X118777876Y-88580718D01*
X118645547Y-88396562D01*
X118482698Y-88238750D01*
X118393072Y-88178524D01*
X118299130Y-88115397D01*
X118299124Y-88115394D01*
X118294477Y-88112271D01*
X118289345Y-88110018D01*
X118289341Y-88110016D01*
X118091975Y-88023378D01*
X118091973Y-88023377D01*
X118086833Y-88021121D01*
X117943475Y-87986704D01*
X117871786Y-87969493D01*
X117871785Y-87969493D01*
X117866329Y-87968183D01*
X117767390Y-87962478D01*
X117645542Y-87955452D01*
X117645539Y-87955452D01*
X117639936Y-87955129D01*
X117414809Y-87982373D01*
X117409447Y-87984023D01*
X117409445Y-87984023D01*
X117342838Y-88004514D01*
X117198064Y-88049052D01*
X117193080Y-88051624D01*
X117193081Y-88051624D01*
X117033524Y-88133978D01*
X116996553Y-88153060D01*
X116816645Y-88291108D01*
X116812872Y-88295254D01*
X116812867Y-88295259D01*
X116724244Y-88392655D01*
X116664026Y-88458834D01*
X116661043Y-88463590D01*
X116661041Y-88463592D01*
X116584393Y-88585780D01*
X116543521Y-88650935D01*
X116541429Y-88656139D01*
X116541428Y-88656141D01*
X116526113Y-88694239D01*
X116482146Y-88749983D01*
X116415021Y-88773108D01*
X116346050Y-88756271D01*
X116295480Y-88701487D01*
X116240290Y-88585780D01*
X116237876Y-88580718D01*
X116105547Y-88396562D01*
X115942698Y-88238750D01*
X115853072Y-88178524D01*
X115759130Y-88115397D01*
X115759124Y-88115394D01*
X115754477Y-88112271D01*
X115749345Y-88110018D01*
X115749341Y-88110016D01*
X115551975Y-88023378D01*
X115551973Y-88023377D01*
X115546833Y-88021121D01*
X115403475Y-87986704D01*
X115331786Y-87969493D01*
X115331785Y-87969493D01*
X115326329Y-87968183D01*
X115227390Y-87962478D01*
X115105542Y-87955452D01*
X115105539Y-87955452D01*
X115099936Y-87955129D01*
X115053579Y-87960739D01*
X114983550Y-87949066D01*
X114930947Y-87901385D01*
X114912474Y-87832834D01*
X114933994Y-87765178D01*
X114949347Y-87746557D01*
X115637430Y-87058475D01*
X116492523Y-86203382D01*
X116500601Y-86196031D01*
X116506995Y-86191973D01*
X116552855Y-86143137D01*
X116555609Y-86140296D01*
X116575938Y-86119967D01*
X116578590Y-86116547D01*
X116586297Y-86107524D01*
X116611130Y-86081080D01*
X116616557Y-86075301D01*
X116620374Y-86068357D01*
X116620378Y-86068352D01*
X116626316Y-86057550D01*
X116637172Y-86041023D01*
X116644724Y-86031287D01*
X116649583Y-86025023D01*
X116667142Y-85984447D01*
X116672363Y-85973790D01*
X116693662Y-85935048D01*
X116696805Y-85922807D01*
X116698699Y-85915432D01*
X116705103Y-85896728D01*
X116709999Y-85885415D01*
X116710001Y-85885408D01*
X116713148Y-85878136D01*
X116714986Y-85866535D01*
X116720065Y-85834465D01*
X116722472Y-85822844D01*
X116731987Y-85785782D01*
X116731987Y-85785781D01*
X116733465Y-85780025D01*
X116733500Y-85779469D01*
X116733500Y-85759548D01*
X116735051Y-85739838D01*
X116736944Y-85727886D01*
X116736944Y-85727885D01*
X116738184Y-85720056D01*
X116734059Y-85676417D01*
X116733500Y-85664560D01*
X116733500Y-85580796D01*
X116753502Y-85512675D01*
X116807158Y-85466182D01*
X116877432Y-85456078D01*
X116905376Y-85464140D01*
X116905401Y-85464064D01*
X116907689Y-85464807D01*
X116910754Y-85465692D01*
X116917713Y-85468790D01*
X117000076Y-85486297D01*
X117098056Y-85507124D01*
X117098061Y-85507124D01*
X117104513Y-85508496D01*
X117295487Y-85508496D01*
X117301939Y-85507124D01*
X117301944Y-85507124D01*
X117399924Y-85486297D01*
X117482287Y-85468790D01*
X117488318Y-85466105D01*
X117650720Y-85393799D01*
X117650722Y-85393798D01*
X117656750Y-85391114D01*
X117697431Y-85361558D01*
X117805907Y-85282746D01*
X117805909Y-85282744D01*
X117811251Y-85278863D01*
X117891329Y-85189927D01*
X117934618Y-85141850D01*
X117934619Y-85141849D01*
X117939037Y-85136942D01*
X118034524Y-84971554D01*
X118075330Y-84845966D01*
X118091498Y-84796206D01*
X118091498Y-84796205D01*
X118093538Y-84789927D01*
X118098923Y-84738696D01*
X118109965Y-84633635D01*
X118136978Y-84567979D01*
X118195200Y-84527349D01*
X118266145Y-84524646D01*
X118324370Y-84557711D01*
X120514017Y-86747358D01*
X120516470Y-86749880D01*
X120575464Y-86812264D01*
X120587271Y-86824750D01*
X120591292Y-86827824D01*
X120591295Y-86827827D01*
X120608997Y-86841361D01*
X120649708Y-86872487D01*
X120654807Y-86876600D01*
X120681554Y-86899364D01*
X120710808Y-86924262D01*
X120710811Y-86924264D01*
X120714666Y-86927545D01*
X120742772Y-86944566D01*
X120754024Y-86952242D01*
X120776109Y-86969128D01*
X120776113Y-86969131D01*
X120780125Y-86972198D01*
X120784577Y-86974585D01*
X120784583Y-86974589D01*
X120849367Y-87009325D01*
X120855080Y-87012583D01*
X120922317Y-87053303D01*
X120927010Y-87055199D01*
X120927014Y-87055201D01*
X120952776Y-87065609D01*
X120965121Y-87071392D01*
X120989608Y-87084522D01*
X120989614Y-87084525D01*
X120994072Y-87086915D01*
X121068396Y-87112507D01*
X121074525Y-87114798D01*
X121088013Y-87120248D01*
X121142711Y-87142348D01*
X121142714Y-87142349D01*
X121147402Y-87144243D01*
X121152338Y-87145364D01*
X121152343Y-87145366D01*
X121179445Y-87151524D01*
X121192543Y-87155255D01*
X121223608Y-87165951D01*
X121301077Y-87179332D01*
X121307481Y-87180612D01*
X121384131Y-87198026D01*
X121416937Y-87200090D01*
X121430441Y-87201677D01*
X121452726Y-87205526D01*
X121458925Y-87206597D01*
X121458928Y-87206597D01*
X121462828Y-87207271D01*
X121466785Y-87207451D01*
X121466788Y-87207451D01*
X121488473Y-87208436D01*
X121488492Y-87208436D01*
X121489892Y-87208500D01*
X121546659Y-87208500D01*
X121554571Y-87208749D01*
X121626415Y-87213269D01*
X121668925Y-87209101D01*
X121681219Y-87208500D01*
X123972689Y-87208500D01*
X123976207Y-87208549D01*
X124074156Y-87211285D01*
X124074158Y-87211285D01*
X124079211Y-87211426D01*
X124157111Y-87201032D01*
X124163652Y-87200333D01*
X124213437Y-87196327D01*
X124236935Y-87194437D01*
X124236936Y-87194437D01*
X124241980Y-87194031D01*
X124246893Y-87192824D01*
X124246895Y-87192824D01*
X124273884Y-87186195D01*
X124287272Y-87183665D01*
X124314828Y-87179988D01*
X124314829Y-87179988D01*
X124319841Y-87179319D01*
X124327810Y-87176913D01*
X124395064Y-87156608D01*
X124401427Y-87154867D01*
X124452395Y-87142348D01*
X124477735Y-87136124D01*
X124507986Y-87123284D01*
X124520787Y-87118650D01*
X124547399Y-87110615D01*
X124552241Y-87109153D01*
X124622853Y-87074713D01*
X124628856Y-87071978D01*
X124696533Y-87043250D01*
X124696537Y-87043248D01*
X124701199Y-87041269D01*
X124729004Y-87023760D01*
X124740901Y-87017138D01*
X124765882Y-87004954D01*
X124765885Y-87004952D01*
X124770435Y-87002733D01*
X124775696Y-86999022D01*
X124834653Y-86957433D01*
X124840139Y-86953774D01*
X124842572Y-86952242D01*
X124906622Y-86911907D01*
X124931268Y-86890179D01*
X124941959Y-86881736D01*
X124965569Y-86865081D01*
X124965574Y-86865077D01*
X124968806Y-86862797D01*
X124988812Y-86844529D01*
X125028939Y-86804402D01*
X125034709Y-86798983D01*
X125084928Y-86754709D01*
X125088721Y-86751365D01*
X125105269Y-86731219D01*
X125115835Y-86718356D01*
X125124104Y-86709237D01*
X125987936Y-85845405D01*
X126050248Y-85811379D01*
X126077031Y-85808500D01*
X126762145Y-85808500D01*
X126764653Y-85808298D01*
X126764658Y-85808298D01*
X126936939Y-85794437D01*
X126936944Y-85794436D01*
X126941980Y-85794031D01*
X126946888Y-85792825D01*
X126946891Y-85792825D01*
X127172821Y-85737331D01*
X127177735Y-85736124D01*
X127182387Y-85734149D01*
X127182391Y-85734148D01*
X127396544Y-85643245D01*
X127396545Y-85643245D01*
X127401199Y-85641269D01*
X127606622Y-85511907D01*
X127788721Y-85351365D01*
X127942809Y-85163775D01*
X128064924Y-84953962D01*
X128066740Y-84949232D01*
X128150109Y-84732048D01*
X128150110Y-84732044D01*
X128151922Y-84727324D01*
X128152957Y-84722371D01*
X128200532Y-84494643D01*
X128200532Y-84494639D01*
X128201566Y-84489692D01*
X128212578Y-84247180D01*
X128211115Y-84234530D01*
X128185258Y-84011056D01*
X128184676Y-84006026D01*
X128174876Y-83971392D01*
X128145937Y-83869128D01*
X128118576Y-83772436D01*
X128036685Y-83596819D01*
X128018118Y-83557001D01*
X128018116Y-83556997D01*
X128015981Y-83552419D01*
X128008616Y-83541581D01*
X127961056Y-83471600D01*
X127879528Y-83351635D01*
X127712729Y-83175250D01*
X127678648Y-83149193D01*
X127523895Y-83030875D01*
X127523891Y-83030872D01*
X127519875Y-83027802D01*
X127503404Y-83018970D01*
X127310389Y-82915477D01*
X127305928Y-82913085D01*
X127301147Y-82911439D01*
X127301143Y-82911437D01*
X127081181Y-82835698D01*
X127076392Y-82834049D01*
X126968616Y-82815433D01*
X126841082Y-82793404D01*
X126841076Y-82793403D01*
X126837172Y-82792729D01*
X126833211Y-82792549D01*
X126833210Y-82792549D01*
X126811527Y-82791564D01*
X126811508Y-82791564D01*
X126810108Y-82791500D01*
X125427311Y-82791500D01*
X125423793Y-82791451D01*
X125325844Y-82788715D01*
X125325842Y-82788715D01*
X125320789Y-82788574D01*
X125242889Y-82798968D01*
X125236348Y-82799667D01*
X125186563Y-82803673D01*
X125163065Y-82805563D01*
X125163064Y-82805563D01*
X125158020Y-82805969D01*
X125153107Y-82807176D01*
X125153105Y-82807176D01*
X125126116Y-82813805D01*
X125112728Y-82816335D01*
X125085172Y-82820012D01*
X125085171Y-82820012D01*
X125080159Y-82820681D01*
X125075314Y-82822144D01*
X125075313Y-82822144D01*
X125004936Y-82843392D01*
X124998573Y-82845133D01*
X124965084Y-82853359D01*
X124922265Y-82863876D01*
X124892014Y-82876716D01*
X124879213Y-82881350D01*
X124847759Y-82890847D01*
X124808219Y-82910132D01*
X124777146Y-82925287D01*
X124771144Y-82928022D01*
X124703467Y-82956750D01*
X124703463Y-82956752D01*
X124698801Y-82958731D01*
X124670996Y-82976240D01*
X124659099Y-82982862D01*
X124634118Y-82995046D01*
X124634115Y-82995048D01*
X124629565Y-82997267D01*
X124625433Y-83000182D01*
X124625431Y-83000183D01*
X124607130Y-83013093D01*
X124539936Y-83036015D01*
X124471015Y-83018970D01*
X124422251Y-82967370D01*
X124408500Y-82910132D01*
X124408500Y-81727295D01*
X124408549Y-81723777D01*
X124411285Y-81625844D01*
X124411285Y-81625841D01*
X124411426Y-81620789D01*
X124401032Y-81542889D01*
X124400332Y-81536340D01*
X124394437Y-81463065D01*
X124394437Y-81463064D01*
X124394031Y-81458020D01*
X124386195Y-81426116D01*
X124383665Y-81412728D01*
X124379988Y-81385172D01*
X124379988Y-81385171D01*
X124379319Y-81380159D01*
X124377856Y-81375313D01*
X124356608Y-81304936D01*
X124354867Y-81298573D01*
X124346641Y-81265084D01*
X124336124Y-81222265D01*
X124323284Y-81192014D01*
X124318650Y-81179213D01*
X124310615Y-81152601D01*
X124309153Y-81147759D01*
X124274713Y-81077146D01*
X124271978Y-81071144D01*
X124243250Y-81003467D01*
X124243248Y-81003463D01*
X124241269Y-80998801D01*
X124223760Y-80970996D01*
X124217138Y-80959099D01*
X124204954Y-80934118D01*
X124204952Y-80934115D01*
X124202733Y-80929565D01*
X124199820Y-80925435D01*
X124199812Y-80925422D01*
X124157432Y-80865345D01*
X124153772Y-80859858D01*
X124143137Y-80842969D01*
X124111907Y-80793378D01*
X124090178Y-80768731D01*
X124081740Y-80758046D01*
X124065080Y-80734429D01*
X124065078Y-80734427D01*
X124062797Y-80731193D01*
X124044528Y-80711187D01*
X124004402Y-80671061D01*
X123998983Y-80665291D01*
X123954709Y-80615072D01*
X123951365Y-80611279D01*
X123918356Y-80584165D01*
X123909237Y-80575896D01*
X123011209Y-79677868D01*
X148686616Y-79677868D01*
X148703166Y-79964892D01*
X148703991Y-79969097D01*
X148703992Y-79969105D01*
X148715223Y-80026348D01*
X148758516Y-80247014D01*
X148851642Y-80519014D01*
X148853568Y-80522843D01*
X148977242Y-80768740D01*
X148980822Y-80775859D01*
X149083614Y-80925422D01*
X149134046Y-80998801D01*
X149143664Y-81012796D01*
X149337155Y-81225440D01*
X149557716Y-81409857D01*
X149561357Y-81412141D01*
X149797624Y-81560352D01*
X149797628Y-81560354D01*
X149801264Y-81562635D01*
X150063293Y-81680945D01*
X150067412Y-81682165D01*
X150334841Y-81761382D01*
X150334846Y-81761383D01*
X150338954Y-81762600D01*
X150343188Y-81763248D01*
X150343193Y-81763249D01*
X150543394Y-81793884D01*
X150623147Y-81806088D01*
X150769498Y-81808387D01*
X150906321Y-81810537D01*
X150906327Y-81810537D01*
X150910612Y-81810604D01*
X150914864Y-81810089D01*
X150914872Y-81810089D01*
X151136529Y-81783265D01*
X151196030Y-81776064D01*
X151200179Y-81774976D01*
X151200182Y-81774975D01*
X151469970Y-81704198D01*
X151474121Y-81703109D01*
X151739736Y-81593087D01*
X151788827Y-81564401D01*
X151984255Y-81450202D01*
X151984257Y-81450200D01*
X151987963Y-81448035D01*
X152214208Y-81270637D01*
X152414283Y-81064175D01*
X152416816Y-81060727D01*
X152416820Y-81060722D01*
X152581949Y-80835925D01*
X152584487Y-80832470D01*
X152605712Y-80793378D01*
X152719621Y-80583585D01*
X152719622Y-80583583D01*
X152721671Y-80579809D01*
X152823295Y-80310869D01*
X152887479Y-80030624D01*
X152892970Y-79969105D01*
X152912816Y-79746728D01*
X152912816Y-79746726D01*
X152913036Y-79744262D01*
X152913500Y-79700000D01*
X152898407Y-79478596D01*
X152894238Y-79417442D01*
X152894237Y-79417436D01*
X152893946Y-79413165D01*
X152889409Y-79391254D01*
X152855274Y-79226429D01*
X152835644Y-79131638D01*
X152739674Y-78860628D01*
X152607812Y-78605150D01*
X152442498Y-78369931D01*
X152439573Y-78366783D01*
X152249711Y-78162468D01*
X152249708Y-78162466D01*
X152246790Y-78159325D01*
X152243474Y-78156611D01*
X152243471Y-78156608D01*
X152027629Y-77979942D01*
X152027622Y-77979937D01*
X152024311Y-77977227D01*
X151779176Y-77827009D01*
X151775240Y-77825281D01*
X151519851Y-77713172D01*
X151519847Y-77713171D01*
X151515923Y-77711448D01*
X151239421Y-77632685D01*
X151028794Y-77602708D01*
X150959041Y-77592781D01*
X150959039Y-77592781D01*
X150954789Y-77592176D01*
X150803976Y-77591387D01*
X150671579Y-77590693D01*
X150671573Y-77590693D01*
X150667292Y-77590671D01*
X150663048Y-77591230D01*
X150663044Y-77591230D01*
X150537864Y-77607710D01*
X150382251Y-77628197D01*
X150378111Y-77629330D01*
X150378109Y-77629330D01*
X150109085Y-77702927D01*
X150104940Y-77704061D01*
X150083580Y-77713172D01*
X149844433Y-77815176D01*
X149844426Y-77815180D01*
X149840491Y-77816858D01*
X149836810Y-77819061D01*
X149597479Y-77962297D01*
X149597475Y-77962300D01*
X149593797Y-77964501D01*
X149590454Y-77967179D01*
X149590450Y-77967182D01*
X149480922Y-78054931D01*
X149369423Y-78144259D01*
X149366479Y-78147361D01*
X149366475Y-78147365D01*
X149352143Y-78162468D01*
X149171520Y-78352804D01*
X149003752Y-78586279D01*
X148869222Y-78840362D01*
X148770419Y-79110352D01*
X148709173Y-79391254D01*
X148686616Y-79677868D01*
X123011209Y-79677868D01*
X122485983Y-79152642D01*
X122483530Y-79150120D01*
X122416211Y-79078932D01*
X122416210Y-79078931D01*
X122412729Y-79075250D01*
X122408708Y-79072176D01*
X122408705Y-79072173D01*
X122391003Y-79058639D01*
X122350292Y-79027513D01*
X122345193Y-79023400D01*
X122311880Y-78995047D01*
X122289192Y-78975738D01*
X122289189Y-78975736D01*
X122285334Y-78972455D01*
X122257228Y-78955434D01*
X122245976Y-78947758D01*
X122223891Y-78930872D01*
X122223887Y-78930869D01*
X122219875Y-78927802D01*
X122215423Y-78925415D01*
X122215417Y-78925411D01*
X122150633Y-78890675D01*
X122144920Y-78887417D01*
X122077683Y-78846697D01*
X122072990Y-78844801D01*
X122072986Y-78844799D01*
X122047224Y-78834391D01*
X122034879Y-78828608D01*
X122010392Y-78815478D01*
X122010386Y-78815475D01*
X122005928Y-78813085D01*
X121931604Y-78787493D01*
X121925475Y-78785202D01*
X121891964Y-78771662D01*
X121857289Y-78757652D01*
X121857286Y-78757651D01*
X121852598Y-78755757D01*
X121847662Y-78754636D01*
X121847657Y-78754634D01*
X121820555Y-78748476D01*
X121807457Y-78744745D01*
X121776392Y-78734049D01*
X121698923Y-78720668D01*
X121692519Y-78719388D01*
X121615869Y-78701974D01*
X121583063Y-78699910D01*
X121569559Y-78698323D01*
X121547274Y-78694474D01*
X121541075Y-78693403D01*
X121541072Y-78693403D01*
X121537172Y-78692729D01*
X121533215Y-78692549D01*
X121533212Y-78692549D01*
X121511527Y-78691564D01*
X121511508Y-78691564D01*
X121510108Y-78691500D01*
X121453341Y-78691500D01*
X121445429Y-78691251D01*
X121378640Y-78687049D01*
X121373585Y-78686731D01*
X121331076Y-78690899D01*
X121318781Y-78691500D01*
X109697031Y-78691500D01*
X109628910Y-78671498D01*
X109607936Y-78654595D01*
X107954050Y-77000709D01*
X107920024Y-76938397D01*
X107925089Y-76867582D01*
X107967636Y-76810746D01*
X107975025Y-76805615D01*
X108051965Y-76756170D01*
X108065447Y-76744488D01*
X108149262Y-76647760D01*
X108158907Y-76632752D01*
X108212077Y-76516325D01*
X108217102Y-76499212D01*
X108235961Y-76368046D01*
X108236600Y-76359105D01*
X108236600Y-75772115D01*
X108232125Y-75756876D01*
X108230735Y-75755671D01*
X108223052Y-75754000D01*
X106732000Y-75754000D01*
X106663879Y-75733998D01*
X106617386Y-75680342D01*
X106606000Y-75628000D01*
X106606000Y-75372000D01*
X106626002Y-75303879D01*
X106679658Y-75257386D01*
X106732000Y-75246000D01*
X108218485Y-75246000D01*
X108233724Y-75241525D01*
X108234929Y-75240135D01*
X108236600Y-75232452D01*
X108236600Y-74636694D01*
X108256602Y-74568573D01*
X108310258Y-74522080D01*
X108380532Y-74511976D01*
X108445112Y-74541470D01*
X108451695Y-74547599D01*
X110696609Y-76792513D01*
X110703969Y-76800601D01*
X110708027Y-76806995D01*
X110713804Y-76812420D01*
X110756878Y-76852869D01*
X110759720Y-76855624D01*
X110780034Y-76875938D01*
X110783445Y-76878583D01*
X110792465Y-76886287D01*
X110824699Y-76916557D01*
X110831643Y-76920374D01*
X110831645Y-76920376D01*
X110842453Y-76926318D01*
X110858977Y-76937172D01*
X110874977Y-76949583D01*
X110882248Y-76952730D01*
X110882249Y-76952730D01*
X110915551Y-76967141D01*
X110926207Y-76972362D01*
X110964952Y-76993662D01*
X110972635Y-76995634D01*
X110972636Y-76995635D01*
X110984568Y-76998699D01*
X111003272Y-77005103D01*
X111014585Y-77009999D01*
X111014592Y-77010001D01*
X111021864Y-77013148D01*
X111029688Y-77014387D01*
X111029691Y-77014388D01*
X111065535Y-77020065D01*
X111077156Y-77022472D01*
X111111511Y-77031292D01*
X111119975Y-77033465D01*
X111120531Y-77033500D01*
X111140452Y-77033500D01*
X111160162Y-77035051D01*
X111172114Y-77036944D01*
X111172115Y-77036944D01*
X111179944Y-77038184D01*
X111187836Y-77037438D01*
X111223582Y-77034059D01*
X111235440Y-77033500D01*
X123421616Y-77033500D01*
X123432520Y-77034014D01*
X123439911Y-77035666D01*
X123447837Y-77035417D01*
X123447838Y-77035417D01*
X123506866Y-77033562D01*
X123510823Y-77033500D01*
X123539578Y-77033500D01*
X123543845Y-77032961D01*
X123555687Y-77032028D01*
X123587335Y-77031033D01*
X123591960Y-77030888D01*
X123599883Y-77030639D01*
X123619334Y-77024988D01*
X123638695Y-77020978D01*
X123641420Y-77020634D01*
X123650930Y-77019433D01*
X123650933Y-77019432D01*
X123658788Y-77018440D01*
X123666153Y-77015524D01*
X123666157Y-77015523D01*
X123699901Y-77002163D01*
X123711130Y-76998318D01*
X123720365Y-76995635D01*
X123753578Y-76985986D01*
X123763705Y-76979997D01*
X123771011Y-76975677D01*
X123788762Y-76966981D01*
X123800226Y-76962442D01*
X123800229Y-76962440D01*
X123807600Y-76959522D01*
X123843368Y-76933535D01*
X123853291Y-76927016D01*
X123864519Y-76920376D01*
X123891341Y-76904514D01*
X123891759Y-76904145D01*
X123905842Y-76890062D01*
X123920867Y-76877228D01*
X123937083Y-76865446D01*
X123965030Y-76831664D01*
X123973019Y-76822885D01*
X125592513Y-75203391D01*
X125600601Y-75196031D01*
X125606995Y-75191973D01*
X125652870Y-75143121D01*
X125655624Y-75140280D01*
X125675938Y-75119966D01*
X125678583Y-75116555D01*
X125686289Y-75107533D01*
X125711133Y-75081077D01*
X125716557Y-75075301D01*
X125720376Y-75068355D01*
X125726318Y-75057547D01*
X125737172Y-75041023D01*
X125744725Y-75031286D01*
X125744725Y-75031285D01*
X125749583Y-75025023D01*
X125767142Y-74984447D01*
X125772363Y-74973790D01*
X125793662Y-74935048D01*
X125795635Y-74927364D01*
X125798699Y-74915432D01*
X125805103Y-74896728D01*
X125809999Y-74885415D01*
X125810001Y-74885408D01*
X125813148Y-74878136D01*
X125820065Y-74834465D01*
X125822472Y-74822844D01*
X125831987Y-74785782D01*
X125831987Y-74785781D01*
X125833465Y-74780025D01*
X125833500Y-74779469D01*
X125833500Y-74759548D01*
X125835051Y-74739838D01*
X125836944Y-74727886D01*
X125836944Y-74727885D01*
X125838184Y-74720056D01*
X125834059Y-74676417D01*
X125833500Y-74664560D01*
X125833500Y-72561677D01*
X125853502Y-72493556D01*
X125907158Y-72447063D01*
X125977432Y-72436959D01*
X126042012Y-72466453D01*
X126058450Y-72483671D01*
X126131556Y-72576406D01*
X126138820Y-72584168D01*
X126303745Y-72732927D01*
X126312222Y-72739361D01*
X126499842Y-72858199D01*
X126509287Y-72863116D01*
X126714249Y-72948643D01*
X126724388Y-72951899D01*
X126868346Y-72985002D01*
X126882421Y-72984163D01*
X126886000Y-72974904D01*
X126886000Y-71907548D01*
X127394000Y-71907548D01*
X127394000Y-72973578D01*
X127398151Y-72987716D01*
X127409440Y-72989514D01*
X127414865Y-72988430D01*
X127628206Y-72926650D01*
X127638132Y-72922840D01*
X127838008Y-72826001D01*
X127847155Y-72820570D01*
X128027856Y-72691440D01*
X128035964Y-72684539D01*
X128192323Y-72526810D01*
X128199146Y-72518649D01*
X128306229Y-72366002D01*
X128361725Y-72321721D01*
X128432350Y-72314474D01*
X128495683Y-72346560D01*
X128520058Y-72378144D01*
X128528200Y-72393108D01*
X128534049Y-72401979D01*
X128671556Y-72576406D01*
X128678820Y-72584168D01*
X128843745Y-72732927D01*
X128852222Y-72739361D01*
X129039842Y-72858199D01*
X129049287Y-72863116D01*
X129254249Y-72948643D01*
X129264388Y-72951899D01*
X129408346Y-72985002D01*
X129422421Y-72984163D01*
X129426000Y-72974904D01*
X129426000Y-71912115D01*
X129424659Y-71907548D01*
X129934000Y-71907548D01*
X129934000Y-72973578D01*
X129938151Y-72987716D01*
X129949440Y-72989514D01*
X129954865Y-72988430D01*
X130168206Y-72926650D01*
X130178132Y-72922840D01*
X130378008Y-72826001D01*
X130387155Y-72820570D01*
X130567856Y-72691440D01*
X130575964Y-72684539D01*
X130732323Y-72526810D01*
X130739146Y-72518649D01*
X130846229Y-72366002D01*
X130901725Y-72321721D01*
X130972350Y-72314474D01*
X131035683Y-72346560D01*
X131060058Y-72378144D01*
X131068200Y-72393108D01*
X131074049Y-72401979D01*
X131211556Y-72576406D01*
X131218820Y-72584168D01*
X131383745Y-72732927D01*
X131392222Y-72739361D01*
X131579842Y-72858199D01*
X131589287Y-72863116D01*
X131794249Y-72948643D01*
X131804388Y-72951899D01*
X131948346Y-72985002D01*
X131962421Y-72984163D01*
X131966000Y-72974904D01*
X131966000Y-71912115D01*
X131961525Y-71896876D01*
X131960135Y-71895671D01*
X131952452Y-71894000D01*
X129952115Y-71894000D01*
X129936876Y-71898475D01*
X129935671Y-71899865D01*
X129934000Y-71907548D01*
X129424659Y-71907548D01*
X129421525Y-71896876D01*
X129420135Y-71895671D01*
X129412452Y-71894000D01*
X127412115Y-71894000D01*
X127396876Y-71898475D01*
X127395671Y-71899865D01*
X127394000Y-71907548D01*
X126886000Y-71907548D01*
X126886000Y-71512000D01*
X126906002Y-71443879D01*
X126959658Y-71397386D01*
X127012000Y-71386000D01*
X132348000Y-71386000D01*
X132416121Y-71406002D01*
X132462614Y-71459658D01*
X132474000Y-71512000D01*
X132474000Y-72973578D01*
X132478151Y-72987716D01*
X132489440Y-72989514D01*
X132494865Y-72988430D01*
X132708206Y-72926650D01*
X132718132Y-72922840D01*
X132918008Y-72826001D01*
X132927155Y-72820570D01*
X133107856Y-72691440D01*
X133115964Y-72684539D01*
X133272323Y-72526810D01*
X133279142Y-72518654D01*
X133302779Y-72484960D01*
X133358275Y-72440680D01*
X133428901Y-72433433D01*
X133492233Y-72465519D01*
X133512548Y-72490178D01*
X133548093Y-72546622D01*
X133708635Y-72728721D01*
X133896225Y-72882809D01*
X134106038Y-73004924D01*
X134110765Y-73006738D01*
X134110768Y-73006740D01*
X134327952Y-73090109D01*
X134327956Y-73090110D01*
X134332676Y-73091922D01*
X134337626Y-73092956D01*
X134337629Y-73092957D01*
X134565357Y-73140532D01*
X134565361Y-73140532D01*
X134570308Y-73141566D01*
X134812820Y-73152578D01*
X134817840Y-73151997D01*
X134817844Y-73151997D01*
X135048944Y-73125258D01*
X135053974Y-73124676D01*
X135058845Y-73123298D01*
X135058848Y-73123297D01*
X135232541Y-73074146D01*
X135287564Y-73058576D01*
X135435669Y-72989514D01*
X135502999Y-72958118D01*
X135503003Y-72958116D01*
X135507581Y-72955981D01*
X135513588Y-72951899D01*
X135595662Y-72896121D01*
X135708365Y-72819528D01*
X135871283Y-72665464D01*
X135881068Y-72656211D01*
X135881069Y-72656210D01*
X135884750Y-72652729D01*
X135927524Y-72596783D01*
X135984786Y-72554817D01*
X136055649Y-72550472D01*
X136117613Y-72585127D01*
X136120416Y-72588282D01*
X136120472Y-72588365D01*
X136130253Y-72598708D01*
X136184269Y-72655828D01*
X136187235Y-72659076D01*
X136248635Y-72728721D01*
X136252537Y-72731926D01*
X136252543Y-72731932D01*
X136262963Y-72740491D01*
X136274526Y-72751273D01*
X136287271Y-72764750D01*
X136291290Y-72767823D01*
X136291297Y-72767829D01*
X136361055Y-72821163D01*
X136364502Y-72823895D01*
X136419336Y-72868936D01*
X136436225Y-72882809D01*
X136452249Y-72892135D01*
X136465391Y-72900934D01*
X136476098Y-72909121D01*
X136476113Y-72909131D01*
X136480125Y-72912198D01*
X136562002Y-72956100D01*
X136565776Y-72958210D01*
X136646038Y-73004924D01*
X136650759Y-73006736D01*
X136650765Y-73006739D01*
X136663355Y-73011572D01*
X136677742Y-73018159D01*
X136689603Y-73024519D01*
X136689606Y-73024520D01*
X136694072Y-73026915D01*
X136698863Y-73028565D01*
X136698866Y-73028566D01*
X136781835Y-73057134D01*
X136785969Y-73058638D01*
X136867947Y-73090107D01*
X136867950Y-73090108D01*
X136872676Y-73091922D01*
X136890822Y-73095713D01*
X136906078Y-73099915D01*
X136918818Y-73104302D01*
X136918823Y-73104303D01*
X136923608Y-73105951D01*
X137015113Y-73121757D01*
X137019384Y-73122571D01*
X137072560Y-73133680D01*
X137105357Y-73140532D01*
X137105361Y-73140532D01*
X137110308Y-73141566D01*
X137115356Y-73141795D01*
X137115362Y-73141796D01*
X137125496Y-73142256D01*
X137128830Y-73142407D01*
X137144559Y-73144116D01*
X137158915Y-73146596D01*
X137158928Y-73146597D01*
X137162828Y-73147271D01*
X137166789Y-73147451D01*
X137166790Y-73147451D01*
X137188473Y-73148436D01*
X137188492Y-73148436D01*
X137189892Y-73148500D01*
X137260159Y-73148500D01*
X137265875Y-73148630D01*
X137352820Y-73152578D01*
X137357841Y-73151997D01*
X137357844Y-73151997D01*
X137380849Y-73149335D01*
X137395331Y-73148500D01*
X139800159Y-73148500D01*
X139805875Y-73148630D01*
X139892820Y-73152578D01*
X139897841Y-73151997D01*
X139897844Y-73151997D01*
X139920849Y-73149335D01*
X139935331Y-73148500D01*
X142340159Y-73148500D01*
X142345875Y-73148630D01*
X142432820Y-73152578D01*
X142437840Y-73151997D01*
X142437845Y-73151997D01*
X142525056Y-73141907D01*
X142529431Y-73141478D01*
X142616939Y-73134437D01*
X142616944Y-73134436D01*
X142621980Y-73134031D01*
X142628193Y-73132505D01*
X142639985Y-73129609D01*
X142655556Y-73126807D01*
X142668945Y-73125258D01*
X142668947Y-73125258D01*
X142673974Y-73124676D01*
X142763322Y-73099392D01*
X142767559Y-73098273D01*
X142852822Y-73077331D01*
X142852825Y-73077330D01*
X142857735Y-73076124D01*
X142862391Y-73074148D01*
X142862396Y-73074146D01*
X142874805Y-73068879D01*
X142889722Y-73063625D01*
X142907564Y-73058576D01*
X142912158Y-73056434D01*
X142991708Y-73019339D01*
X142995728Y-73017549D01*
X143076538Y-72983248D01*
X143076544Y-72983245D01*
X143081199Y-72981269D01*
X143096892Y-72971386D01*
X143110775Y-72963818D01*
X143127581Y-72955981D01*
X143131763Y-72953139D01*
X143131765Y-72953138D01*
X143188494Y-72914584D01*
X143204385Y-72903784D01*
X143208056Y-72901382D01*
X143282337Y-72854606D01*
X143282342Y-72854602D01*
X143286622Y-72851907D01*
X143300534Y-72839642D01*
X143313031Y-72829949D01*
X143328365Y-72819528D01*
X143332042Y-72816051D01*
X143332048Y-72816046D01*
X143395828Y-72755731D01*
X143399076Y-72752765D01*
X143421578Y-72732927D01*
X143468721Y-72691365D01*
X143471926Y-72687463D01*
X143471932Y-72687457D01*
X143480491Y-72677037D01*
X143491273Y-72665474D01*
X143504750Y-72652729D01*
X143547522Y-72596785D01*
X143604787Y-72554817D01*
X143675650Y-72550472D01*
X143737614Y-72585127D01*
X143740418Y-72588285D01*
X143740472Y-72588365D01*
X143740742Y-72588651D01*
X143740746Y-72588655D01*
X143804269Y-72655828D01*
X143807235Y-72659076D01*
X143868635Y-72728721D01*
X143872537Y-72731926D01*
X143872543Y-72731932D01*
X143882963Y-72740491D01*
X143894526Y-72751273D01*
X143907271Y-72764750D01*
X143911290Y-72767823D01*
X143911297Y-72767829D01*
X143981055Y-72821163D01*
X143984502Y-72823895D01*
X144039336Y-72868936D01*
X144056225Y-72882809D01*
X144072249Y-72892135D01*
X144085391Y-72900934D01*
X144096098Y-72909121D01*
X144096113Y-72909131D01*
X144100125Y-72912198D01*
X144182002Y-72956100D01*
X144185776Y-72958210D01*
X144266038Y-73004924D01*
X144270759Y-73006736D01*
X144270765Y-73006739D01*
X144283355Y-73011572D01*
X144297742Y-73018159D01*
X144309603Y-73024519D01*
X144309606Y-73024520D01*
X144314072Y-73026915D01*
X144318863Y-73028565D01*
X144318866Y-73028566D01*
X144401835Y-73057134D01*
X144405969Y-73058638D01*
X144487947Y-73090107D01*
X144487950Y-73090108D01*
X144492676Y-73091922D01*
X144510822Y-73095713D01*
X144526078Y-73099915D01*
X144538818Y-73104302D01*
X144538823Y-73104303D01*
X144543608Y-73105951D01*
X144635113Y-73121757D01*
X144639384Y-73122571D01*
X144692560Y-73133680D01*
X144725357Y-73140532D01*
X144725361Y-73140532D01*
X144730308Y-73141566D01*
X144735356Y-73141795D01*
X144735362Y-73141796D01*
X144745496Y-73142256D01*
X144748830Y-73142407D01*
X144764559Y-73144116D01*
X144778915Y-73146596D01*
X144778928Y-73146597D01*
X144782828Y-73147271D01*
X144786789Y-73147451D01*
X144786790Y-73147451D01*
X144808473Y-73148436D01*
X144808492Y-73148436D01*
X144809892Y-73148500D01*
X144880159Y-73148500D01*
X144885875Y-73148630D01*
X144972820Y-73152578D01*
X144977841Y-73151997D01*
X144977844Y-73151997D01*
X145000849Y-73149335D01*
X145015331Y-73148500D01*
X147420159Y-73148500D01*
X147425875Y-73148630D01*
X147512820Y-73152578D01*
X147517841Y-73151997D01*
X147517844Y-73151997D01*
X147540849Y-73149335D01*
X147555331Y-73148500D01*
X149960159Y-73148500D01*
X149965875Y-73148630D01*
X150052820Y-73152578D01*
X150057840Y-73151997D01*
X150057845Y-73151997D01*
X150145056Y-73141907D01*
X150149431Y-73141478D01*
X150236939Y-73134437D01*
X150236944Y-73134436D01*
X150241980Y-73134031D01*
X150248193Y-73132505D01*
X150259985Y-73129609D01*
X150275556Y-73126807D01*
X150288945Y-73125258D01*
X150288947Y-73125258D01*
X150293974Y-73124676D01*
X150383322Y-73099392D01*
X150387559Y-73098273D01*
X150472822Y-73077331D01*
X150472825Y-73077330D01*
X150477735Y-73076124D01*
X150482391Y-73074148D01*
X150482396Y-73074146D01*
X150494805Y-73068879D01*
X150509722Y-73063625D01*
X150527564Y-73058576D01*
X150532158Y-73056434D01*
X150611708Y-73019339D01*
X150615728Y-73017549D01*
X150696538Y-72983248D01*
X150696544Y-72983245D01*
X150701199Y-72981269D01*
X150716892Y-72971386D01*
X150730775Y-72963818D01*
X150747581Y-72955981D01*
X150751763Y-72953139D01*
X150751765Y-72953138D01*
X150808494Y-72914584D01*
X150824385Y-72903784D01*
X150828056Y-72901382D01*
X150902337Y-72854606D01*
X150902342Y-72854602D01*
X150906622Y-72851907D01*
X150920534Y-72839642D01*
X150933031Y-72829949D01*
X150948365Y-72819528D01*
X150952042Y-72816051D01*
X150952048Y-72816046D01*
X151015828Y-72755731D01*
X151019076Y-72752765D01*
X151041578Y-72732927D01*
X151088721Y-72691365D01*
X151091926Y-72687463D01*
X151091932Y-72687457D01*
X151100491Y-72677037D01*
X151111273Y-72665474D01*
X151124750Y-72652729D01*
X151127823Y-72648710D01*
X151127829Y-72648703D01*
X151181163Y-72578945D01*
X151183895Y-72575498D01*
X151239594Y-72507689D01*
X151242809Y-72503775D01*
X151252135Y-72487751D01*
X151260934Y-72474609D01*
X151269121Y-72463902D01*
X151269131Y-72463887D01*
X151272198Y-72459875D01*
X151316100Y-72377998D01*
X151318216Y-72374213D01*
X151321957Y-72367786D01*
X151364924Y-72293962D01*
X151366736Y-72289241D01*
X151366739Y-72289235D01*
X151371572Y-72276645D01*
X151378159Y-72262258D01*
X151384519Y-72250397D01*
X151384520Y-72250394D01*
X151386915Y-72245928D01*
X151391827Y-72231664D01*
X151417134Y-72158165D01*
X151418638Y-72154031D01*
X151450107Y-72072053D01*
X151450108Y-72072050D01*
X151451922Y-72067324D01*
X151455713Y-72049178D01*
X151459915Y-72033922D01*
X151464302Y-72021182D01*
X151464303Y-72021177D01*
X151465951Y-72016392D01*
X151481757Y-71924887D01*
X151482571Y-71920616D01*
X151497602Y-71848668D01*
X151500532Y-71834643D01*
X151500532Y-71834639D01*
X151501566Y-71829692D01*
X151502407Y-71811170D01*
X151504116Y-71795441D01*
X151506596Y-71781085D01*
X151506597Y-71781072D01*
X151507271Y-71777172D01*
X151508500Y-71750108D01*
X151508500Y-71679841D01*
X151508630Y-71674125D01*
X151511234Y-71616773D01*
X151512578Y-71587180D01*
X151509335Y-71559151D01*
X151508500Y-71544669D01*
X151508500Y-69139841D01*
X151508630Y-69134125D01*
X151512578Y-69047180D01*
X151511997Y-69042155D01*
X151501907Y-68954944D01*
X151501478Y-68950569D01*
X151494437Y-68863061D01*
X151494436Y-68863056D01*
X151494031Y-68858020D01*
X151489609Y-68840015D01*
X151486807Y-68824444D01*
X151485258Y-68811055D01*
X151485258Y-68811053D01*
X151484676Y-68806026D01*
X151459392Y-68716678D01*
X151458273Y-68712441D01*
X151437331Y-68627178D01*
X151437330Y-68627175D01*
X151436124Y-68622265D01*
X151434146Y-68617604D01*
X151428879Y-68605195D01*
X151423624Y-68590275D01*
X151419954Y-68577306D01*
X151418576Y-68572436D01*
X151388905Y-68508807D01*
X151377100Y-68455557D01*
X151377100Y-68236400D01*
X151371873Y-68163321D01*
X151344203Y-68069085D01*
X151333235Y-68031730D01*
X151333234Y-68031728D01*
X151330696Y-68023084D01*
X151272673Y-67932799D01*
X151256549Y-67907709D01*
X151256547Y-67907706D01*
X151251677Y-67900129D01*
X151237787Y-67888093D01*
X151148031Y-67810318D01*
X151148028Y-67810316D01*
X151141219Y-67804416D01*
X151089908Y-67780983D01*
X151016464Y-67747442D01*
X151016463Y-67747442D01*
X151008270Y-67743700D01*
X150999355Y-67742418D01*
X150999354Y-67742418D01*
X150868048Y-67723539D01*
X150868041Y-67723538D01*
X150863600Y-67722900D01*
X150653701Y-67722900D01*
X150605981Y-67712931D01*
X150605928Y-67713085D01*
X150604705Y-67712664D01*
X150604706Y-67712664D01*
X150601137Y-67711435D01*
X150601134Y-67711434D01*
X150518165Y-67682866D01*
X150514031Y-67681362D01*
X150432053Y-67649893D01*
X150432050Y-67649892D01*
X150427324Y-67648078D01*
X150409178Y-67644287D01*
X150393922Y-67640085D01*
X150381182Y-67635698D01*
X150381177Y-67635697D01*
X150376392Y-67634049D01*
X150284887Y-67618243D01*
X150280616Y-67617429D01*
X150223817Y-67605563D01*
X150194643Y-67599468D01*
X150194639Y-67599468D01*
X150189692Y-67598434D01*
X150184644Y-67598205D01*
X150184638Y-67598204D01*
X150174504Y-67597744D01*
X150171170Y-67597593D01*
X150155441Y-67595884D01*
X150141085Y-67593404D01*
X150141072Y-67593403D01*
X150137172Y-67592729D01*
X150133211Y-67592549D01*
X150133210Y-67592549D01*
X150111527Y-67591564D01*
X150111508Y-67591564D01*
X150110108Y-67591500D01*
X150039841Y-67591500D01*
X150034125Y-67591370D01*
X149947180Y-67587422D01*
X149942159Y-67588003D01*
X149942156Y-67588003D01*
X149919151Y-67590665D01*
X149904669Y-67591500D01*
X147499841Y-67591500D01*
X147494125Y-67591370D01*
X147407180Y-67587422D01*
X147402159Y-67588003D01*
X147402156Y-67588003D01*
X147379151Y-67590665D01*
X147364669Y-67591500D01*
X144959841Y-67591500D01*
X144954125Y-67591370D01*
X144867180Y-67587422D01*
X144862160Y-67588003D01*
X144862155Y-67588003D01*
X144774944Y-67598093D01*
X144770569Y-67598522D01*
X144683061Y-67605563D01*
X144683056Y-67605564D01*
X144678020Y-67605969D01*
X144673106Y-67607176D01*
X144660015Y-67610391D01*
X144644444Y-67613193D01*
X144631055Y-67614742D01*
X144631053Y-67614742D01*
X144626026Y-67615324D01*
X144536678Y-67640608D01*
X144532441Y-67641727D01*
X144447178Y-67662669D01*
X144447175Y-67662670D01*
X144442265Y-67663876D01*
X144437609Y-67665852D01*
X144437604Y-67665854D01*
X144425195Y-67671121D01*
X144410278Y-67676375D01*
X144392436Y-67681424D01*
X144387844Y-67683565D01*
X144387842Y-67683566D01*
X144308292Y-67720661D01*
X144304272Y-67722451D01*
X144223462Y-67756752D01*
X144223456Y-67756755D01*
X144218801Y-67758731D01*
X144214523Y-67761425D01*
X144214521Y-67761426D01*
X144211344Y-67763427D01*
X144203108Y-67768614D01*
X144189225Y-67776182D01*
X144172419Y-67784019D01*
X144168239Y-67786859D01*
X144168235Y-67786862D01*
X144147915Y-67800672D01*
X144107996Y-67827802D01*
X144095627Y-67836208D01*
X144091944Y-67838618D01*
X144017663Y-67885394D01*
X144017659Y-67885397D01*
X144013378Y-67888093D01*
X144009585Y-67891437D01*
X143999466Y-67900358D01*
X143986969Y-67910051D01*
X143971635Y-67920472D01*
X143967958Y-67923949D01*
X143967952Y-67923954D01*
X143904172Y-67984269D01*
X143900924Y-67987235D01*
X143831279Y-68048635D01*
X143828074Y-68052537D01*
X143828068Y-68052543D01*
X143819509Y-68062963D01*
X143808727Y-68074526D01*
X143795250Y-68087271D01*
X143753006Y-68142524D01*
X143752478Y-68143215D01*
X143695213Y-68185183D01*
X143624350Y-68189528D01*
X143562386Y-68154873D01*
X143559582Y-68151715D01*
X143559528Y-68151635D01*
X143542379Y-68133500D01*
X143495731Y-68084172D01*
X143492765Y-68080924D01*
X143467744Y-68052543D01*
X143431365Y-68011279D01*
X143427463Y-68008074D01*
X143427457Y-68008068D01*
X143417037Y-67999509D01*
X143405474Y-67988727D01*
X143392729Y-67975250D01*
X143388710Y-67972177D01*
X143388703Y-67972171D01*
X143318945Y-67918837D01*
X143315498Y-67916105D01*
X143247689Y-67860406D01*
X143243775Y-67857191D01*
X143227751Y-67847865D01*
X143214609Y-67839066D01*
X143203902Y-67830879D01*
X143203887Y-67830869D01*
X143199875Y-67827802D01*
X143117998Y-67783900D01*
X143114213Y-67781784D01*
X143112837Y-67780983D01*
X143033962Y-67735076D01*
X143029241Y-67733264D01*
X143029235Y-67733261D01*
X143016645Y-67728428D01*
X143002258Y-67721841D01*
X142990397Y-67715481D01*
X142990394Y-67715480D01*
X142985928Y-67713085D01*
X142981137Y-67711435D01*
X142981134Y-67711434D01*
X142898165Y-67682866D01*
X142894031Y-67681362D01*
X142812053Y-67649893D01*
X142812050Y-67649892D01*
X142807324Y-67648078D01*
X142789178Y-67644287D01*
X142773922Y-67640085D01*
X142761182Y-67635698D01*
X142761177Y-67635697D01*
X142756392Y-67634049D01*
X142664887Y-67618243D01*
X142660616Y-67617429D01*
X142603817Y-67605563D01*
X142574643Y-67599468D01*
X142574639Y-67599468D01*
X142569692Y-67598434D01*
X142564644Y-67598205D01*
X142564638Y-67598204D01*
X142554504Y-67597744D01*
X142551170Y-67597593D01*
X142535441Y-67595884D01*
X142521085Y-67593404D01*
X142521072Y-67593403D01*
X142517172Y-67592729D01*
X142513211Y-67592549D01*
X142513210Y-67592549D01*
X142491527Y-67591564D01*
X142491508Y-67591564D01*
X142490108Y-67591500D01*
X142419841Y-67591500D01*
X142414125Y-67591370D01*
X142327180Y-67587422D01*
X142322159Y-67588003D01*
X142322156Y-67588003D01*
X142299151Y-67590665D01*
X142284669Y-67591500D01*
X139879841Y-67591500D01*
X139874125Y-67591370D01*
X139787180Y-67587422D01*
X139782159Y-67588003D01*
X139782156Y-67588003D01*
X139759151Y-67590665D01*
X139744669Y-67591500D01*
X137339841Y-67591500D01*
X137334125Y-67591370D01*
X137247180Y-67587422D01*
X137242160Y-67588003D01*
X137242155Y-67588003D01*
X137154944Y-67598093D01*
X137150569Y-67598522D01*
X137063061Y-67605563D01*
X137063056Y-67605564D01*
X137058020Y-67605969D01*
X137053106Y-67607176D01*
X137040015Y-67610391D01*
X137024444Y-67613193D01*
X137011055Y-67614742D01*
X137011053Y-67614742D01*
X137006026Y-67615324D01*
X136916678Y-67640608D01*
X136912441Y-67641727D01*
X136827178Y-67662669D01*
X136827175Y-67662670D01*
X136822265Y-67663876D01*
X136817609Y-67665852D01*
X136817604Y-67665854D01*
X136805195Y-67671121D01*
X136790278Y-67676375D01*
X136772436Y-67681424D01*
X136767844Y-67683565D01*
X136767842Y-67683566D01*
X136688292Y-67720661D01*
X136684272Y-67722451D01*
X136603462Y-67756752D01*
X136603456Y-67756755D01*
X136598801Y-67758731D01*
X136594523Y-67761425D01*
X136594521Y-67761426D01*
X136591344Y-67763427D01*
X136583108Y-67768614D01*
X136569225Y-67776182D01*
X136552419Y-67784019D01*
X136548239Y-67786859D01*
X136548235Y-67786862D01*
X136527915Y-67800672D01*
X136487996Y-67827802D01*
X136475627Y-67836208D01*
X136471944Y-67838618D01*
X136397663Y-67885394D01*
X136397659Y-67885397D01*
X136393378Y-67888093D01*
X136389585Y-67891437D01*
X136379466Y-67900358D01*
X136366969Y-67910051D01*
X136351635Y-67920472D01*
X136347958Y-67923949D01*
X136347952Y-67923954D01*
X136284172Y-67984269D01*
X136280924Y-67987235D01*
X136211279Y-68048635D01*
X136208074Y-68052537D01*
X136208068Y-68052543D01*
X136199509Y-68062963D01*
X136188727Y-68074526D01*
X136175250Y-68087271D01*
X136133006Y-68142524D01*
X136132478Y-68143215D01*
X136075213Y-68185183D01*
X136004350Y-68189528D01*
X135942386Y-68154873D01*
X135939582Y-68151715D01*
X135939528Y-68151635D01*
X135922379Y-68133500D01*
X135875731Y-68084172D01*
X135872765Y-68080924D01*
X135847744Y-68052543D01*
X135811365Y-68011279D01*
X135807463Y-68008074D01*
X135807457Y-68008068D01*
X135797037Y-67999509D01*
X135785474Y-67988727D01*
X135772729Y-67975250D01*
X135768710Y-67972177D01*
X135768703Y-67972171D01*
X135698945Y-67918837D01*
X135695498Y-67916105D01*
X135627689Y-67860406D01*
X135623775Y-67857191D01*
X135607751Y-67847865D01*
X135594609Y-67839066D01*
X135583902Y-67830879D01*
X135583887Y-67830869D01*
X135579875Y-67827802D01*
X135497998Y-67783900D01*
X135494213Y-67781784D01*
X135492837Y-67780983D01*
X135413962Y-67735076D01*
X135409241Y-67733264D01*
X135409235Y-67733261D01*
X135396645Y-67728428D01*
X135382258Y-67721841D01*
X135370397Y-67715481D01*
X135370394Y-67715480D01*
X135365928Y-67713085D01*
X135361137Y-67711435D01*
X135361134Y-67711434D01*
X135278165Y-67682866D01*
X135274031Y-67681362D01*
X135192053Y-67649893D01*
X135192050Y-67649892D01*
X135187324Y-67648078D01*
X135169178Y-67644287D01*
X135153922Y-67640085D01*
X135141182Y-67635698D01*
X135141177Y-67635697D01*
X135136392Y-67634049D01*
X135044887Y-67618243D01*
X135040616Y-67617429D01*
X134983817Y-67605563D01*
X134954643Y-67599468D01*
X134954639Y-67599468D01*
X134949692Y-67598434D01*
X134944644Y-67598205D01*
X134944638Y-67598204D01*
X134934504Y-67597744D01*
X134931170Y-67597593D01*
X134915441Y-67595884D01*
X134901085Y-67593404D01*
X134901072Y-67593403D01*
X134897172Y-67592729D01*
X134893211Y-67592549D01*
X134893210Y-67592549D01*
X134871527Y-67591564D01*
X134871508Y-67591564D01*
X134870108Y-67591500D01*
X134799841Y-67591500D01*
X134794125Y-67591370D01*
X134707180Y-67587422D01*
X134702159Y-67588003D01*
X134702156Y-67588003D01*
X134679151Y-67590665D01*
X134664669Y-67591500D01*
X132157855Y-67591500D01*
X132155347Y-67591702D01*
X132155342Y-67591702D01*
X131983061Y-67605563D01*
X131983056Y-67605564D01*
X131978020Y-67605969D01*
X131973112Y-67607175D01*
X131973109Y-67607175D01*
X131747179Y-67662669D01*
X131742265Y-67663876D01*
X131737613Y-67665851D01*
X131737609Y-67665852D01*
X131568797Y-67737509D01*
X131518801Y-67758731D01*
X131313378Y-67888093D01*
X131131279Y-68048635D01*
X130977191Y-68236225D01*
X130974645Y-68240600D01*
X130974644Y-68240601D01*
X130974207Y-68241352D01*
X130973959Y-68241587D01*
X130971757Y-68244755D01*
X130971097Y-68244296D01*
X130922654Y-68290165D01*
X130852894Y-68303358D01*
X130787076Y-68276741D01*
X130760788Y-68248337D01*
X130758068Y-68244296D01*
X130753226Y-68237104D01*
X130746943Y-68230517D01*
X130671416Y-68151345D01*
X130592494Y-68068613D01*
X130405671Y-67929613D01*
X130400920Y-67927197D01*
X130400916Y-67927195D01*
X130202854Y-67826495D01*
X130202853Y-67826495D01*
X130198098Y-67824077D01*
X129975712Y-67755025D01*
X129970425Y-67754324D01*
X129970424Y-67754324D01*
X129750154Y-67725129D01*
X129750150Y-67725129D01*
X129744870Y-67724429D01*
X129739541Y-67724629D01*
X129739539Y-67724629D01*
X129638351Y-67728428D01*
X129512174Y-67733165D01*
X129328381Y-67771729D01*
X129257606Y-67766142D01*
X129213413Y-67737509D01*
X128583391Y-67107487D01*
X128576031Y-67099399D01*
X128571973Y-67093005D01*
X128523121Y-67047130D01*
X128520280Y-67044376D01*
X128499966Y-67024062D01*
X128496555Y-67021417D01*
X128487533Y-67013711D01*
X128468126Y-66995486D01*
X128455301Y-66983443D01*
X128448357Y-66979626D01*
X128448355Y-66979624D01*
X128437547Y-66973682D01*
X128421023Y-66962828D01*
X128411286Y-66955275D01*
X128411285Y-66955275D01*
X128405023Y-66950417D01*
X128364447Y-66932858D01*
X128353790Y-66927637D01*
X128315048Y-66906338D01*
X128307365Y-66904366D01*
X128307364Y-66904365D01*
X128295432Y-66901301D01*
X128276728Y-66894897D01*
X128265415Y-66890001D01*
X128265408Y-66889999D01*
X128258136Y-66886852D01*
X128250312Y-66885613D01*
X128250309Y-66885612D01*
X128214465Y-66879935D01*
X128202844Y-66877528D01*
X128165782Y-66868013D01*
X128165781Y-66868013D01*
X128160025Y-66866535D01*
X128159469Y-66866500D01*
X128139548Y-66866500D01*
X128119838Y-66864949D01*
X128107886Y-66863056D01*
X128107885Y-66863056D01*
X128100056Y-66861816D01*
X128092164Y-66862562D01*
X128056418Y-66865941D01*
X128044560Y-66866500D01*
X125678401Y-66866500D01*
X125667481Y-66865985D01*
X125660089Y-66864333D01*
X125652166Y-66864582D01*
X125593116Y-66866438D01*
X125589158Y-66866500D01*
X125560422Y-66866500D01*
X125556151Y-66867039D01*
X125544322Y-66867971D01*
X125500117Y-66869361D01*
X125492501Y-66871574D01*
X125492499Y-66871574D01*
X125480661Y-66875013D01*
X125461302Y-66879022D01*
X125449079Y-66880566D01*
X125449078Y-66880566D01*
X125441212Y-66881560D01*
X125433836Y-66884480D01*
X125433837Y-66884480D01*
X125400111Y-66897832D01*
X125388882Y-66901677D01*
X125354035Y-66911801D01*
X125354034Y-66911802D01*
X125346422Y-66914013D01*
X125339599Y-66918048D01*
X125328983Y-66924326D01*
X125311231Y-66933022D01*
X125292400Y-66940478D01*
X125272034Y-66955275D01*
X125256629Y-66966467D01*
X125246711Y-66972982D01*
X125208659Y-66995486D01*
X125208241Y-66995855D01*
X125194158Y-67009938D01*
X125179133Y-67022772D01*
X125162917Y-67034554D01*
X125134971Y-67068335D01*
X125126981Y-67077115D01*
X123907487Y-68296609D01*
X123899399Y-68303969D01*
X123893005Y-68308027D01*
X123887580Y-68313804D01*
X123847131Y-68356878D01*
X123844376Y-68359720D01*
X123824062Y-68380034D01*
X123821417Y-68383445D01*
X123813713Y-68392465D01*
X123783443Y-68424699D01*
X123779626Y-68431643D01*
X123779624Y-68431645D01*
X123773682Y-68442453D01*
X123762828Y-68458977D01*
X123750417Y-68474977D01*
X123747270Y-68482248D01*
X123747270Y-68482249D01*
X123732859Y-68515551D01*
X123727638Y-68526207D01*
X123706338Y-68564952D01*
X123704366Y-68572635D01*
X123704365Y-68572636D01*
X123701301Y-68584568D01*
X123694897Y-68603272D01*
X123690001Y-68614585D01*
X123689999Y-68614592D01*
X123686852Y-68621864D01*
X123685613Y-68629688D01*
X123685612Y-68629691D01*
X123679935Y-68665535D01*
X123677528Y-68677156D01*
X123668469Y-68712441D01*
X123666535Y-68719975D01*
X123666500Y-68720531D01*
X123666500Y-68740452D01*
X123664949Y-68760162D01*
X123661816Y-68779944D01*
X123662562Y-68787836D01*
X123665941Y-68823582D01*
X123666500Y-68835440D01*
X123666500Y-74285406D01*
X123646498Y-74353527D01*
X123629595Y-74374501D01*
X122774501Y-75229595D01*
X122712189Y-75263621D01*
X122685406Y-75266500D01*
X112114594Y-75266500D01*
X112046473Y-75246498D01*
X112025499Y-75229595D01*
X109403391Y-72607487D01*
X109396031Y-72599399D01*
X109391973Y-72593005D01*
X109343121Y-72547130D01*
X109340280Y-72544376D01*
X109319966Y-72524062D01*
X109316555Y-72521417D01*
X109307533Y-72513711D01*
X109302731Y-72509201D01*
X109275301Y-72483443D01*
X109268357Y-72479626D01*
X109268355Y-72479624D01*
X109257547Y-72473682D01*
X109241023Y-72462828D01*
X109231286Y-72455275D01*
X109231285Y-72455275D01*
X109225023Y-72450417D01*
X109217273Y-72447063D01*
X109193924Y-72436959D01*
X109184447Y-72432858D01*
X109173790Y-72427637D01*
X109135048Y-72406338D01*
X109127365Y-72404366D01*
X109127364Y-72404365D01*
X109115432Y-72401301D01*
X109096728Y-72394897D01*
X109085415Y-72390001D01*
X109085408Y-72389999D01*
X109078136Y-72386852D01*
X109070312Y-72385613D01*
X109070309Y-72385612D01*
X109034465Y-72379935D01*
X109022844Y-72377528D01*
X108985782Y-72368013D01*
X108985781Y-72368013D01*
X108980025Y-72366535D01*
X108979469Y-72366500D01*
X108959548Y-72366500D01*
X108939838Y-72364949D01*
X108927886Y-72363056D01*
X108927885Y-72363056D01*
X108920056Y-72361816D01*
X108912164Y-72362562D01*
X108876418Y-72365941D01*
X108864560Y-72366500D01*
X99278384Y-72366500D01*
X99267480Y-72365986D01*
X99260089Y-72364334D01*
X99252163Y-72364583D01*
X99252162Y-72364583D01*
X99193134Y-72366438D01*
X99189177Y-72366500D01*
X99160422Y-72366500D01*
X99156155Y-72367039D01*
X99144313Y-72367972D01*
X99100117Y-72369361D01*
X99092500Y-72371574D01*
X99080661Y-72375013D01*
X99061302Y-72379022D01*
X99049079Y-72380566D01*
X99049078Y-72380566D01*
X99041212Y-72381560D01*
X99033836Y-72384480D01*
X99033837Y-72384480D01*
X99000111Y-72397832D01*
X98988882Y-72401677D01*
X98954035Y-72411801D01*
X98954034Y-72411802D01*
X98946422Y-72414013D01*
X98939599Y-72418048D01*
X98928983Y-72424326D01*
X98911231Y-72433022D01*
X98892400Y-72440478D01*
X98876836Y-72451786D01*
X98856629Y-72466467D01*
X98846711Y-72472982D01*
X98808659Y-72495486D01*
X98808241Y-72495855D01*
X98794158Y-72509938D01*
X98779133Y-72522772D01*
X98762917Y-72534554D01*
X98734971Y-72568335D01*
X98726981Y-72577115D01*
X97166534Y-74137562D01*
X97104222Y-74171588D01*
X97040075Y-74168800D01*
X96995712Y-74155025D01*
X96990425Y-74154324D01*
X96990424Y-74154324D01*
X96770154Y-74125129D01*
X96770150Y-74125129D01*
X96764870Y-74124429D01*
X96759541Y-74124629D01*
X96759539Y-74124629D01*
X96648522Y-74128797D01*
X96532174Y-74133165D01*
X96447835Y-74150861D01*
X96309503Y-74179886D01*
X96309500Y-74179887D01*
X96304276Y-74180983D01*
X96087693Y-74266515D01*
X95888618Y-74387317D01*
X95884588Y-74390814D01*
X95718359Y-74535060D01*
X95712742Y-74539934D01*
X95709359Y-74544060D01*
X95709355Y-74544064D01*
X95685787Y-74572808D01*
X95565096Y-74720002D01*
X95449900Y-74922373D01*
X95403987Y-75048860D01*
X95379312Y-75116840D01*
X95370448Y-75141259D01*
X95369499Y-75146508D01*
X95369498Y-75146511D01*
X95329962Y-75365149D01*
X95329012Y-75370403D01*
X95328961Y-75375742D01*
X95327768Y-75500000D01*
X95326776Y-75603253D01*
X91966179Y-75603253D01*
X91966179Y-71898255D01*
X91986181Y-71830134D01*
X92039837Y-71783641D01*
X92092139Y-71772255D01*
X102189174Y-71769150D01*
X117896170Y-71764320D01*
X117964297Y-71784301D01*
X118010605Y-71837709D01*
X118012118Y-71844241D01*
X118016447Y-71851942D01*
X118020136Y-71863001D01*
X118079876Y-72075542D01*
X118082474Y-72086716D01*
X118083023Y-72089685D01*
X118083388Y-72098652D01*
X118100314Y-72148862D01*
X118102210Y-72155001D01*
X118106509Y-72170296D01*
X118108230Y-72176418D01*
X118110039Y-72180509D01*
X118110039Y-72180510D01*
X118111692Y-72184249D01*
X118115846Y-72194939D01*
X118117989Y-72201297D01*
X118117995Y-72201312D01*
X118119549Y-72205921D01*
X118121794Y-72210238D01*
X118121796Y-72210242D01*
X118129198Y-72224474D01*
X118132652Y-72231662D01*
X118152780Y-72277192D01*
X118158566Y-72284052D01*
X118163325Y-72291667D01*
X118162869Y-72291952D01*
X118169242Y-72301465D01*
X118255884Y-72468051D01*
X118259760Y-72478120D01*
X118260395Y-72477854D01*
X118263867Y-72486129D01*
X118266131Y-72494817D01*
X118292154Y-72538285D01*
X118292190Y-72538345D01*
X118295864Y-72544921D01*
X118300236Y-72553326D01*
X118304615Y-72561745D01*
X118311217Y-72570956D01*
X118316900Y-72579618D01*
X118324278Y-72591942D01*
X118327391Y-72595683D01*
X118327394Y-72595688D01*
X118335666Y-72605631D01*
X118341219Y-72612817D01*
X118355890Y-72633287D01*
X118368800Y-72651301D01*
X118375863Y-72656833D01*
X118382078Y-72663319D01*
X118381953Y-72663439D01*
X118391344Y-72672558D01*
X118499653Y-72802747D01*
X118505513Y-72811679D01*
X118506106Y-72811264D01*
X118511254Y-72818615D01*
X118515310Y-72826625D01*
X118550118Y-72863751D01*
X118555048Y-72869333D01*
X118564445Y-72880628D01*
X118564449Y-72880633D01*
X118567315Y-72884077D01*
X118575588Y-72891550D01*
X118583039Y-72898864D01*
X118584980Y-72900934D01*
X118589408Y-72905658D01*
X118589412Y-72905662D01*
X118592735Y-72909206D01*
X118606939Y-72920302D01*
X118613800Y-72926067D01*
X118649078Y-72957934D01*
X118657159Y-72961839D01*
X118664609Y-72966853D01*
X118664499Y-72967016D01*
X118675522Y-72973875D01*
X118799937Y-73071062D01*
X118808583Y-73078469D01*
X118811184Y-73080909D01*
X118816791Y-73087914D01*
X118824138Y-73093063D01*
X118824139Y-73093064D01*
X118833915Y-73099915D01*
X118859181Y-73117622D01*
X118860021Y-73118211D01*
X118865272Y-73122098D01*
X118882587Y-73135624D01*
X118890217Y-73140001D01*
X118899809Y-73146097D01*
X118909491Y-73152882D01*
X118928019Y-73161989D01*
X118935119Y-73165765D01*
X118978155Y-73190457D01*
X118986884Y-73192560D01*
X118995224Y-73195878D01*
X118995037Y-73196349D01*
X119005935Y-73200285D01*
X119141027Y-73266683D01*
X119149640Y-73271468D01*
X119155754Y-73276613D01*
X119163969Y-73280233D01*
X119163970Y-73280233D01*
X119206218Y-73298847D01*
X119211000Y-73301075D01*
X119230277Y-73310551D01*
X119230287Y-73310555D01*
X119234309Y-73312532D01*
X119239636Y-73314265D01*
X119251451Y-73318777D01*
X119254893Y-73320294D01*
X119254896Y-73320295D01*
X119259344Y-73322255D01*
X119264042Y-73323508D01*
X119264046Y-73323509D01*
X119282886Y-73328532D01*
X119289410Y-73330462D01*
X119330548Y-73343847D01*
X119339083Y-73346624D01*
X119348051Y-73346894D01*
X119353261Y-73347801D01*
X119364111Y-73350187D01*
X119506906Y-73388257D01*
X119513446Y-73390389D01*
X119518970Y-73393492D01*
X119527708Y-73395514D01*
X119527711Y-73395515D01*
X119574272Y-73406288D01*
X119578302Y-73407291D01*
X119607171Y-73414988D01*
X119611619Y-73415517D01*
X119616029Y-73416362D01*
X119616026Y-73416377D01*
X119623537Y-73417688D01*
X119629256Y-73419011D01*
X119634111Y-73419366D01*
X119634113Y-73419366D01*
X119649416Y-73420484D01*
X119656937Y-73421033D01*
X119662619Y-73421578D01*
X119675720Y-73423135D01*
X119707669Y-73426933D01*
X119707671Y-73426933D01*
X119716582Y-73427992D01*
X119725116Y-73426561D01*
X119736375Y-73426837D01*
X119884770Y-73437677D01*
X119890157Y-73438380D01*
X119895264Y-73440124D01*
X119904230Y-73440524D01*
X119904231Y-73440524D01*
X119952552Y-73442679D01*
X119956117Y-73442889D01*
X119971903Y-73444042D01*
X119988346Y-73445243D01*
X119992819Y-73444933D01*
X119997298Y-73444941D01*
X119997298Y-73445058D01*
X120002017Y-73444998D01*
X120003483Y-73444950D01*
X120008351Y-73445167D01*
X120037925Y-73441904D01*
X120042996Y-73441449D01*
X120098263Y-73437611D01*
X120105542Y-73434922D01*
X120114821Y-73433418D01*
X120174458Y-73426837D01*
X120263980Y-73416959D01*
X120269407Y-73416671D01*
X120274760Y-73417459D01*
X120283653Y-73416221D01*
X120283657Y-73416221D01*
X120331556Y-73409553D01*
X120335100Y-73409110D01*
X120351525Y-73407298D01*
X120362746Y-73406060D01*
X120362749Y-73406060D01*
X120367194Y-73405569D01*
X120371525Y-73404453D01*
X120375946Y-73403644D01*
X120375967Y-73403757D01*
X120380654Y-73402830D01*
X120382063Y-73402521D01*
X120386879Y-73401851D01*
X120391536Y-73400447D01*
X120391541Y-73400446D01*
X120415323Y-73393277D01*
X120420254Y-73391899D01*
X120465198Y-73380320D01*
X120465199Y-73380319D01*
X120473892Y-73378080D01*
X120480569Y-73374108D01*
X120489435Y-73370936D01*
X120566181Y-73347801D01*
X120634712Y-73327143D01*
X120641343Y-73325533D01*
X120647643Y-73325273D01*
X120701443Y-73307098D01*
X120705392Y-73305836D01*
X120729775Y-73298487D01*
X120729785Y-73298483D01*
X120734062Y-73297194D01*
X120738120Y-73295308D01*
X120742313Y-73293711D01*
X120742319Y-73293727D01*
X120749356Y-73290914D01*
X120750272Y-73290604D01*
X120750275Y-73290603D01*
X120754889Y-73289044D01*
X120759206Y-73286795D01*
X120759209Y-73286794D01*
X120779560Y-73276193D01*
X120784671Y-73273676D01*
X120825841Y-73254544D01*
X120825845Y-73254541D01*
X120833982Y-73250760D01*
X120840467Y-73245078D01*
X120850135Y-73239429D01*
X120986795Y-73168240D01*
X120995336Y-73164329D01*
X121002870Y-73162515D01*
X121010656Y-73158049D01*
X121010658Y-73158048D01*
X121050913Y-73134957D01*
X121055396Y-73132505D01*
X121074949Y-73122320D01*
X121074966Y-73122310D01*
X121078935Y-73120242D01*
X121082579Y-73117627D01*
X121082587Y-73117622D01*
X121083168Y-73117205D01*
X121093925Y-73110284D01*
X121101062Y-73106190D01*
X121120431Y-73090678D01*
X121125728Y-73086660D01*
X121161157Y-73061234D01*
X121168450Y-73056000D01*
X121173982Y-73048928D01*
X121177066Y-73045968D01*
X121185543Y-73038533D01*
X121308840Y-72939792D01*
X121318420Y-72932833D01*
X121319110Y-72932380D01*
X121327230Y-72928567D01*
X121367477Y-72893019D01*
X121372127Y-72889108D01*
X121386866Y-72877304D01*
X121390364Y-72874503D01*
X121395588Y-72868932D01*
X121404073Y-72860696D01*
X121412074Y-72853629D01*
X121417127Y-72847542D01*
X121426113Y-72836718D01*
X121431151Y-72831010D01*
X121445185Y-72816044D01*
X121465734Y-72794132D01*
X121469790Y-72786123D01*
X121474940Y-72778772D01*
X121475481Y-72779151D01*
X121481468Y-72770037D01*
X121588025Y-72641676D01*
X121595652Y-72633287D01*
X121598390Y-72630536D01*
X121605559Y-72625134D01*
X121610921Y-72617941D01*
X121610924Y-72617938D01*
X121637057Y-72582881D01*
X121641128Y-72577708D01*
X121652190Y-72564383D01*
X121652193Y-72564379D01*
X121655051Y-72560936D01*
X121658808Y-72554817D01*
X121659724Y-72553326D01*
X121666077Y-72543952D01*
X121670301Y-72538285D01*
X121673215Y-72534376D01*
X121682791Y-72516254D01*
X121686815Y-72509201D01*
X121708000Y-72474694D01*
X121708002Y-72474690D01*
X121712699Y-72467039D01*
X121715060Y-72458377D01*
X121718624Y-72450141D01*
X121719072Y-72450335D01*
X121723359Y-72439482D01*
X121809852Y-72275798D01*
X121815788Y-72265725D01*
X121816710Y-72264315D01*
X121822636Y-72257574D01*
X121838087Y-72224474D01*
X121845217Y-72209200D01*
X121847986Y-72203630D01*
X121856610Y-72187310D01*
X121856613Y-72187304D01*
X121858703Y-72183348D01*
X121861402Y-72175811D01*
X121865853Y-72164991D01*
X121868460Y-72159407D01*
X121868461Y-72159405D01*
X121870517Y-72155000D01*
X121876518Y-72134306D01*
X121878909Y-72126922D01*
X121885987Y-72107157D01*
X121895849Y-72079617D01*
X121896382Y-72070656D01*
X121898180Y-72061860D01*
X121898781Y-72061983D01*
X121900671Y-72051024D01*
X121944975Y-71898255D01*
X121959356Y-71848664D01*
X121962190Y-71840503D01*
X121965899Y-71834148D01*
X121970056Y-71817438D01*
X121979373Y-71779978D01*
X121980634Y-71775296D01*
X121987026Y-71753258D01*
X121987029Y-71753242D01*
X121988273Y-71748954D01*
X121988907Y-71744455D01*
X121991398Y-71731636D01*
X121993224Y-71724295D01*
X121995512Y-71698753D01*
X121996242Y-71692414D01*
X121998417Y-71676988D01*
X122003651Y-71639851D01*
X122002359Y-71630968D01*
X122002353Y-71628292D01*
X122002855Y-71616773D01*
X122010218Y-71534568D01*
X122029502Y-71319274D01*
X122030497Y-71311156D01*
X122033121Y-71294301D01*
X122033121Y-71284506D01*
X122033623Y-71273264D01*
X122033811Y-71271168D01*
X122033811Y-71271166D01*
X122034210Y-71266712D01*
X122033297Y-71249471D01*
X122033121Y-71242808D01*
X122033121Y-65979130D01*
X122053123Y-65911009D01*
X122106779Y-65864516D01*
X122159121Y-65853130D01*
X155329752Y-65853130D01*
X155397873Y-65873132D01*
G37*
G04 #@! TD.AperFunction*
M02*
