M48
; DRILL file {KiCad (5.99.0-10628-ga06f965ffa)} date Sat Dec  4 20:30:55 2021
; FORMAT={-:-/ absolute / metric / decimal}
; #@! TF.CreationDate,2021-12-04T20:30:55+01:00
; #@! TF.GenerationSoftware,Kicad,Pcbnew,(5.99.0-10628-ga06f965ffa)
; #@! TF.FileFunction,Plated,1,2,PTH
FMAT,2
METRIC
; #@! TA.AperFunction,Plated,PTH,ViaDrill
T1C0.300
; #@! TA.AperFunction,Plated,PTH,ViaDrill
T2C0.400
; #@! TA.AperFunction,Plated,PTH,ComponentDrill
T3C0.762
; #@! TA.AperFunction,Plated,PTH,ComponentDrill
T4C1.016
%
G90
G05
T1
X121.1Y-89.7
X121.1Y-90.5
X121.1Y-91.3
X121.1Y-92.1
X121.1Y-94.8
X121.1Y-95.6
X121.1Y-96.4
X121.1Y-97.2
T2
X111.05Y-85.0
X113.7Y-77.3
X114.8Y-75.1
X115.4Y-84.6
X117.0Y-86.2
X117.2Y-84.6
X122.9Y-81.7
X122.9Y-83.0
X125.4Y-84.3
X125.6Y-92.1
X126.7Y-84.3
T3
X99.9Y-89.38
X99.9Y-97.0
X102.44Y-89.38
X102.44Y-97.0
X104.98Y-89.38
X104.98Y-97.0
X107.52Y-89.38
X107.52Y-97.0
X110.06Y-89.38
X110.06Y-97.0
X112.6Y-89.38
X112.6Y-97.0
X115.14Y-89.38
X115.14Y-97.0
X117.68Y-89.38
X117.68Y-97.0
T4
X96.7Y-75.5
X96.7Y-78.04
X99.24Y-75.5
X99.24Y-78.04
X101.78Y-75.5
X101.78Y-78.04
X104.32Y-75.5
X104.32Y-78.04
X106.86Y-75.5
X106.86Y-78.04
X127.14Y-69.1
X127.14Y-71.64
X129.68Y-69.1
X129.68Y-71.64
X132.22Y-69.1
X132.22Y-71.64
X134.76Y-69.1
X134.76Y-71.64
X137.3Y-69.1
X137.3Y-71.64
X139.84Y-69.1
X139.84Y-71.64
X142.38Y-69.1
X142.38Y-71.64
X144.92Y-69.1
X144.92Y-71.64
X147.46Y-69.1
X147.46Y-71.64
X150.0Y-69.1
X150.0Y-71.64
T0
M30
