G04 #@! TF.GenerationSoftware,KiCad,Pcbnew,(5.99.0-10628-ga06f965ffa)*
G04 #@! TF.CreationDate,2021-12-09T18:38:09+01:00*
G04 #@! TF.ProjectId,MAN Adapterplatine,4d414e20-4164-4617-9074-6572706c6174,1.1*
G04 #@! TF.SameCoordinates,Original*
G04 #@! TF.FileFunction,Soldermask,Top*
G04 #@! TF.FilePolarity,Negative*
%FSLAX46Y46*%
G04 Gerber Fmt 4.6, Leading zero omitted, Abs format (unit mm)*
G04 Created by KiCad (PCBNEW (5.99.0-10628-ga06f965ffa)) date 2021-12-09 18:38:09*
%MOMM*%
%LPD*%
G01*
G04 APERTURE LIST*
%ADD10R,1.727200X1.727200*%
%ADD11O,1.727200X1.727200*%
%ADD12R,1.000000X1.250000*%
%ADD13R,2.550000X2.700000*%
%ADD14R,0.750000X0.800000*%
%ADD15R,0.800000X0.750000*%
%ADD16R,0.800000X0.500000*%
%ADD17R,0.800000X0.400000*%
%ADD18R,1.524000X1.824000*%
%ADD19R,1.500000X1.500000*%
%ADD20O,1.524000X1.824000*%
%ADD21R,1.500000X0.600000*%
%ADD22C,3.200000*%
G04 APERTURE END LIST*
D10*
X150000000Y-69100000D03*
D11*
X150000000Y-71640000D03*
X147460000Y-69100000D03*
X147460000Y-71640000D03*
X144920000Y-69100000D03*
X144920000Y-71640000D03*
X142380000Y-69100000D03*
X142380000Y-71640000D03*
X139840000Y-69100000D03*
X139840000Y-71640000D03*
X137300000Y-69100000D03*
X137300000Y-71640000D03*
X134760000Y-69100000D03*
X134760000Y-71640000D03*
X132220000Y-69100000D03*
X132220000Y-71640000D03*
X129680000Y-69100000D03*
X129680000Y-71640000D03*
X127140000Y-69100000D03*
X127140000Y-71640000D03*
D10*
X106860000Y-75500000D03*
D11*
X106860000Y-78040000D03*
X104320000Y-75500000D03*
X104320000Y-78040000D03*
X101780000Y-75500000D03*
X101780000Y-78040000D03*
X99240000Y-75500000D03*
X99240000Y-78040000D03*
X96700000Y-75500000D03*
X96700000Y-78040000D03*
D12*
X106600000Y-83100000D03*
X104600000Y-83100000D03*
D13*
X134775000Y-79900000D03*
X128425000Y-79900000D03*
D14*
X109700000Y-74000000D03*
X109700000Y-75500000D03*
D15*
X111050000Y-86200000D03*
X112550000Y-86200000D03*
D16*
X122000000Y-94800000D03*
D17*
X122000000Y-95600000D03*
X122000000Y-96400000D03*
D16*
X122000000Y-97200000D03*
X123800000Y-97200000D03*
D17*
X123800000Y-96400000D03*
X123800000Y-95600000D03*
D16*
X123800000Y-94800000D03*
X122000000Y-89700000D03*
D17*
X122000000Y-90500000D03*
X122000000Y-91300000D03*
D16*
X122000000Y-92100000D03*
X123800000Y-92100000D03*
D17*
X123800000Y-91300000D03*
X123800000Y-90500000D03*
D16*
X123800000Y-89700000D03*
D18*
X99900000Y-97000000D03*
D19*
X99900000Y-94002800D03*
D20*
X102440000Y-97000000D03*
D19*
X102440000Y-94002800D03*
X104980000Y-94002800D03*
D20*
X104980000Y-97000000D03*
X107520000Y-97000000D03*
D19*
X107520000Y-94002800D03*
X110060000Y-94002800D03*
D20*
X110060000Y-97000000D03*
X112600000Y-97000000D03*
D19*
X112600000Y-94002800D03*
D20*
X115140000Y-97000000D03*
D19*
X115140000Y-94002800D03*
X117680000Y-94002800D03*
D20*
X117680000Y-97000000D03*
D19*
X117680000Y-92376800D03*
D20*
X117680000Y-89380000D03*
D19*
X115140000Y-92376800D03*
D20*
X115140000Y-89380000D03*
X112600000Y-89380000D03*
D19*
X112600000Y-92376800D03*
D20*
X110060000Y-89380000D03*
D19*
X110060000Y-92376800D03*
X107520000Y-92376800D03*
D20*
X107520000Y-89380000D03*
X104980000Y-89380000D03*
D19*
X104980000Y-92376800D03*
X102440000Y-92376800D03*
D20*
X102440000Y-89380000D03*
X99900000Y-89380000D03*
D19*
X99900000Y-92376800D03*
D21*
X117200000Y-83645000D03*
X117200000Y-82375000D03*
X117200000Y-81105000D03*
X117200000Y-79835000D03*
X117200000Y-78565000D03*
X117200000Y-77295000D03*
X117200000Y-76025000D03*
X117200000Y-74755000D03*
X111800000Y-74755000D03*
X111800000Y-76025000D03*
X111800000Y-77295000D03*
X111800000Y-78565000D03*
X111800000Y-79835000D03*
X111800000Y-81105000D03*
X111800000Y-82375000D03*
X111800000Y-83645000D03*
D22*
X150800000Y-79700000D03*
X129700000Y-94400000D03*
M02*
